<svg width="488" height="425" viewBox="0 0 488 425" fill="none" xmlns="http://www.w3.org/2000/svg">
<ellipse cx="61.512" cy="88.6002" rx="47.9682" ry="42.3249" fill="#CA955F"/>
<ellipse cx="11.0045" cy="88.0881" rx="11.0045" ry="11.2866" fill="#CA955F"/>
<ellipse cx="115.406" cy="90.3455" rx="11.0045" ry="11.2866" fill="#CA955F"/>
<circle cx="42.325" cy="75.1085" r="5.07899" fill="black"/>
<circle cx="34.1419" cy="89.499" r="10.4401" fill="#FF8C67"/>
<circle cx="93.6791" cy="89.7811" r="9.59364" fill="#FF8C67"/>
<circle cx="209.931" cy="93.1148" r="10.7223" fill="#FF8C67"/>
<circle cx="82.3925" cy="75.1085" r="5.07899" fill="black"/>
<line x1="33.8698" y1="88.7169" x2="91.4317" y2="89.8456" stroke="black"/>
<path d="M34.0227 88.9862L37.3987 94.7159C42.7242 103.754 52.4325 109.302 62.923 109.302V109.302" stroke="black"/>
<path d="M91.575 90.5825L91.4249 90.9071C86.2617 102.064 75.0878 109.205 62.7941 109.205V109.205" stroke="black"/>
<path d="M40.0689 97.9567L86.4189 97.9567C86.727 97.9567 87.0179 97.8147 87.2074 97.5717L88.8823 95.4244L91.1364 91.531C91.518 90.8719 91.052 90.045 90.2905 90.0302L35.9392 88.9696C35.1554 88.9543 34.6596 89.8059 35.0599 90.48L39.2091 97.4673C39.3893 97.7707 39.716 97.9567 40.0689 97.9567Z" fill="white" stroke="white"/>
<path d="M40.0676 98.2462H86.625L82.6747 102.196L77.0314 105.865L68.5664 108.686L62.0766 109.251L56.9976 108.686L51.0721 106.711L45.9931 103.889L43.7358 101.914L40.0676 98.2462Z" fill="black"/>
<path d="M9.6995 71.4023L8.53223 73.6396C7.93205 74.79 7.61861 76.0683 7.61858 77.3658L8.54776 77.1077C11.194 76.3727 14.0268 76.7729 16.3657 78.2123L22.2912 67.2077C30.565 54.5331 44.6781 46.8921 59.8141 46.892L62.3588 46.892L68.5236 47.3337C87.9071 48.7222 104.203 62.4109 108.916 81.2639C110.962 79.9621 113.262 79.1113 115.662 78.7684L115.97 78.7244L117.017 75.4621C117.628 73.5576 117.805 71.5403 117.535 69.5585C117.247 67.4439 116.585 65.3973 115.581 63.5142L114.842 62.1289L115.207 60.8879C116.328 57.0778 114.8 52.9849 111.456 50.8422L112.182 49.7856C113.008 48.5836 113.615 47.2447 113.974 45.8311C114.173 45.0466 114.167 44.224 113.958 43.4423L113.857 43.0662C113.578 42.0268 113.025 41.0813 112.256 40.3283C111.361 39.4515 110.257 38.8182 109.048 38.4885L108.344 38.2964C108.003 38.2036 107.746 37.925 107.68 37.5785L107.071 34.3815C106.804 32.9835 106.061 31.7212 104.968 30.8102L104.839 30.7029C103.812 29.8473 102.582 29.272 101.267 29.0329L100.77 28.9426C100.375 28.8708 99.9684 28.8935 99.5835 29.0089C98.1806 29.4298 96.6607 29.1457 95.5045 28.2465L92.2684 25.7295L90.6098 24.0708C88.9217 22.3828 86.8314 21.1528 84.536 20.497C82.942 20.0416 81.2623 19.9736 79.6368 20.2987L78.2338 20.5793C77.12 20.8021 75.966 20.4942 75.1112 19.7462L73.3977 18.2469C72.4594 17.4259 71.2807 16.9306 70.0377 16.835L69.5081 16.7943C68.7053 16.7325 67.8999 16.8749 67.1669 17.2081C65.8595 17.8023 64.703 18.684 63.7836 19.7872L62.3588 21.497L61.8886 21.4115C60.1608 21.0973 58.3816 21.2238 56.7155 21.7791L56.2436 21.3746C53.1662 18.7369 48.577 18.9132 45.711 21.7791L41.8277 21.2244C40.4783 21.0316 39.1047 21.0947 37.7787 21.4105L37.0226 21.5905C34.9504 22.0838 33.0438 23.1117 31.4927 24.5715C29.9136 26.0578 28.8447 28.0052 28.439 30.1355L27.9346 32.7836C23.6781 32.4901 20.1986 36.1296 20.6831 40.3685L20.8804 42.0951L19.449 42.4928C17.1267 43.1379 15.1864 44.7363 14.1085 46.892C13.5732 48.8549 13.9545 50.9546 15.1457 52.604L16.9302 55.0748C15.8224 56.921 15.2372 59.0335 15.2372 61.1865L15.2372 62.4109C13.9725 63.6755 13.262 65.3908 13.262 67.1793L13.262 67.2077C11.776 68.3222 10.5587 69.7555 9.6995 71.4023Z" fill="#7F5538" stroke="#7F5538"/>
<path d="M49.033 135.399L54.3941 135.4L62.577 150.167L71.042 135.4L75.5566 135.4L81.1489 141.828C82.8711 143.808 84.798 145.6 86.8973 147.174C88.5477 148.412 90.035 149.854 91.3238 151.465L92.4662 152.893C93.4168 154.081 94.2181 155.381 94.8521 156.765C96.276 159.871 97.2009 163.183 97.5926 166.578L97.8478 168.789L27.3062 168.79L27.5172 166.786C27.7523 164.553 28.208 162.349 28.8775 160.206L29.2814 158.914L29.8379 157.863C31.1571 155.371 32.7075 153.009 34.4686 150.807L35.2068 149.885L36.9952 148.096C37.8695 147.222 38.8402 146.45 39.8887 145.795C41.8282 144.582 43.5156 143.007 44.8583 141.156L49.033 135.399Z" fill="#A5CA27" stroke="#A5CA27"/>
<path d="M54.4581 134.646V128.72L71.1058 128.438V134.646L62.3587 149.318L54.4581 134.646Z" fill="#CA955F" stroke="#CA955F"/>
<path d="M303.976 104.966C303.976 136.289 267.294 142.212 237.102 137.133C200.421 139.39 171.497 132.618 173.333 99.8869C175.026 69.6952 204.17 36.6817 239.077 36.6817C278.863 38.6569 303.976 73.6429 303.976 104.966Z" fill="#333333"/>
<ellipse cx="238.712" cy="91.9861" rx="47.9682" ry="42.3249" fill="#F9D5B2"/>
<ellipse cx="184.254" cy="85.2142" rx="11.0045" ry="11.2866" fill="#F9D5B2"/>
<ellipse cx="294.299" cy="88.6001" rx="11.0045" ry="11.2866" fill="#F9D5B2"/>
<path d="M219.605 78.9363C220.8 79.45 222.251 78.8611 222.141 77.5653V77.5653C222.074 76.7793 221.815 76.0219 221.385 75.3602C220.956 74.6985 220.37 74.153 219.679 73.7718C218.989 73.3907 218.215 73.1858 217.426 73.1753C216.637 73.1647 215.858 73.3489 215.157 73.7114C214.457 74.0739 213.856 74.6037 213.409 75.2537C212.962 75.9036 212.682 76.6538 212.595 77.4378V77.4378C212.45 78.7301 213.885 79.3576 215.093 78.876L216.207 78.4318C216.946 78.1372 217.772 78.1482 218.503 78.4625L219.605 78.9363Z" fill="#333333"/>
<path d="M237.955 83.7615C236.906 83.7615 235.875 84.4092 235.94 85.4559C235.942 85.5036 235.946 85.5513 235.951 85.5989C236.013 86.2244 236.228 86.8249 236.578 87.3473C236.927 87.8697 237.4 88.2978 237.955 88.5938C238.51 88.8897 239.128 89.0443 239.757 89.0439C240.386 89.0435 241.004 88.888 241.558 88.5914C242.113 88.2947 242.585 87.866 242.934 87.3431C243.283 86.8203 243.497 86.2195 243.558 85.5939V85.5939C243.669 84.4635 242.544 83.7568 241.409 83.7568L239.175 83.7568L237.955 83.7615V83.7615Z" fill="#FFA194"/>
<path d="M261.93 78.9363C263.125 79.45 264.576 78.8611 264.466 77.5653V77.5653C264.399 76.7793 264.14 76.0219 263.71 75.3602C263.281 74.6985 262.695 74.153 262.004 73.7718C261.313 73.3907 260.539 73.1858 259.751 73.1753C258.962 73.1647 258.183 73.3489 257.482 73.7114C256.781 74.0739 256.181 74.6037 255.734 75.2537C255.287 75.9036 255.007 76.6538 254.919 77.4378V77.4378C254.775 78.7301 256.21 79.3576 257.418 78.876L258.532 78.4318C259.271 78.1372 260.097 78.1482 260.828 78.4625L261.93 78.9363Z" fill="#333333"/>
<path d="M281.027 72.0648L281.601 73.0813C261.856 70.6823 243.133 62.8669 227.532 50.5287L229.676 50.1234C245.323 47.1659 261.453 51.6996 273.269 62.3762C276.358 65.1682 278.978 68.4396 281.027 72.0648Z" fill="#333333" stroke="#333333"/>
<circle cx="207.674" cy="95.3721" r="9.59364" fill="#FFA194"/>
<circle cx="270.879" cy="98.1938" r="9.59364" fill="#FFA194"/>
<path d="M265.572 100.63L268.904 95.3726L237.584 94.5261L209.649 93.6791C214.713 105.553 225.898 113.848 238.712 115.406C249.605 115.406 259.741 109.831 265.572 100.63Z" fill="white" stroke="white"/>
<path d="M467.331 89.9154C467.331 113.27 445.886 132.305 419.299 132.305C392.711 132.305 371.266 113.27 371.266 89.9154C371.266 66.5607 392.711 47.5261 419.299 47.5261C445.886 47.5261 467.331 66.5607 467.331 89.9154Z" fill="#F8BA77" stroke="#F8BA77"/>
<circle cx="365.123" cy="91.044" r="11.851" fill="#F8BA77"/>
<ellipse cx="473.192" cy="92.1727" rx="11.5688" ry="11.851" fill="#F8BA77"/>
<path d="M367.473 69.2387L366.534 78.6286L371.048 81.1681C373.485 75.1698 376.626 69.4822 380.405 64.225L381.206 63.1094C387.131 56.8146 394.541 52.1082 402.758 49.422L404.908 48.7189L406.736 48.2955C420.424 45.1238 434.807 47.2935 446.951 54.3623L447.993 55.0822C457.351 61.548 464.166 71.0707 467.267 82.0146L468.678 81.168L468.926 79.7619C469.323 77.5133 470.043 75.3339 471.064 73.2916C471.727 71.9659 472.582 70.7454 473.601 69.6695L479.665 63.2685C481.333 61.5083 482.446 59.297 482.868 56.9092C483 56.1573 483.004 55.3883 482.879 54.6351L482.634 53.1657C482.362 51.5378 481.737 49.9893 480.802 48.6293C479.69 47.0109 478.278 45.6197 476.644 44.5303L474.885 43.3578L475.168 47.0259L475.064 48.8963C474.948 50.972 474.122 52.9447 472.724 54.4829C472.288 54.9616 471.758 55.3444 471.167 55.6072L471.111 55.632C470.071 56.0944 468.929 56.2779 467.796 56.1646L466.703 56.0553L467.417 54.697C468.795 52.0789 469.427 49.1322 469.242 46.1794L468.885 44.3917C468.747 43.7036 468.554 43.0276 468.307 42.3705C467.99 41.525 467.611 40.7041 467.173 39.9147L466.074 37.9381C465.367 36.6641 464.523 35.4702 463.559 34.3774L460.777 31.2246L459.648 36.0215L459.182 37.6533C458.76 39.1306 457.737 40.363 456.363 41.0502C454.488 41.9876 452.323 42.162 450.322 41.5368L448.926 41.1005L427.996 33.5752C425.218 32.5763 422.328 31.9226 419.39 31.6288C416.707 31.3605 414 31.4421 411.338 31.8714L409.592 32.153C407.607 32.4733 405.671 33.0491 403.833 33.866C402.301 34.5468 400.878 35.4508 399.612 36.5486L397.29 38.561L390.236 19.0915L388.825 39.6896L374.716 28.6852L382.236 41.7902C383.468 43.938 382.473 46.6782 380.149 47.5343L379.231 47.8725C375.569 48.3956 372.472 50.8485 371.124 54.2931L370.988 54.6419C369.156 59.3243 367.973 64.2355 367.473 69.2387Z" fill="#F6EEC6" stroke="#F6EEC6"/>
<path d="M461.805 68.0788L462.647 69.4727C441.273 68.7053 420.561 61.5884 403.211 49.0826L405.689 48.3512C422.208 43.4772 440.069 47.1658 453.305 58.1846C456.67 60.986 459.543 64.3301 461.805 68.0788Z" fill="#F6EEC6" stroke="#F6EEC6"/>
<circle cx="400.958" cy="76.6535" r="4.79682" fill="#333333"/>
<circle cx="442.154" cy="77.2178" r="4.79682" fill="#333333"/>
<path d="M419.67 78.6825C418.621 78.6825 417.59 79.3302 417.655 80.3769C417.657 80.4246 417.661 80.4723 417.666 80.52C417.728 81.1454 417.943 81.746 418.293 82.2684C418.642 82.7907 419.115 83.2189 419.67 83.5148C420.224 83.8107 420.843 83.9653 421.472 83.9649C422.101 83.9645 422.719 83.8091 423.273 83.5124C423.828 83.2157 424.3 82.787 424.649 82.2642C424.998 81.7413 425.212 81.1405 425.273 80.5149V80.5149C425.384 79.3845 424.259 78.6778 423.123 78.6778L420.89 78.6778L419.67 78.6825V78.6825Z" fill="#FFA194"/>
<circle cx="389.389" cy="95.3722" r="11.2866" fill="#FFA194"/>
<circle cx="450.901" cy="95.9365" r="10.158" fill="#FFA194"/>
<path d="M449.428 96.1222L418.113 95.1448L390.181 94.2158C395.543 101.864 404.003 106.76 413.305 107.597L419.541 108.158C430.707 108.319 441.495 103.981 449.428 96.1222Z" fill="white" stroke="white"/>
<path d="M366.604 84.4187V84.4187C363.599 84.4187 360.956 86.4079 360.125 89.296L359.836 90.2996V90.2996C359.661 93.4435 361.173 96.4426 363.805 98.1713L364.347 98.527" stroke="#4A3D29"/>
<path d="M366.608 84.374L364.834 84.3185C361.738 84.2216 358.959 86.2017 358.04 89.1587V89.1587C357.921 89.5414 357.851 89.9379 357.833 90.3383L357.819 90.6549C357.698 93.3673 359.184 95.8971 361.612 97.1122L364.35 98.4823" stroke="#4A3D29"/>
<path d="M358.351 88.7867L358.915 87.3759L360.044 86.2472L362.301 84.8364L364.558 84.272L360.89 87.0937L359.762 90.4797L359.903 92.4548L360.608 94.9943L362.301 97.2517L360.89 96.6873L358.915 94.43L358.069 92.737L357.786 91.044L358.351 88.7867Z" fill="#4A3D29"/>
<path d="M12.2035 81.4105V81.4105C9.19804 81.4105 6.55545 83.3997 5.724 86.2879L5.43509 87.2915V87.2915C5.26043 90.4353 6.77281 93.4344 9.40459 95.1631L9.94616 95.5188" stroke="#4A3D29"/>
<path d="M12.207 81.366L10.4331 81.3104C7.33797 81.2135 4.55856 83.1937 3.63914 86.1506V86.1506C3.52013 86.5334 3.45084 86.9298 3.43298 87.3303L3.41886 87.6468C3.29788 90.3592 4.78386 92.889 7.21188 94.1041L9.9497 95.4743" stroke="#4A3D29"/>
<path d="M3.9502 85.7786L4.51453 84.3677L5.64319 83.2391L7.90052 81.8282L10.1578 81.2639L6.48969 84.0856L5.36103 87.4716L5.50211 89.4467L6.20752 91.9862L7.90052 94.2435L6.48969 93.6792L4.51453 91.4219L3.66803 89.7289L3.38586 88.0359L3.9502 85.7786Z" fill="#4A3D29"/>
<path d="M187.146 79.1533V79.1533C184.141 79.1533 181.498 81.1424 180.667 84.0306L180.378 85.0342V85.0342C180.203 88.1781 181.716 91.1772 184.347 92.9058L184.889 93.2616" stroke="#4A3D29"/>
<path d="M187.15 79.1087L185.376 79.0532C182.281 78.9563 179.502 80.9364 178.582 83.8933V83.8933C178.463 84.2761 178.394 84.6726 178.376 85.073L178.362 85.3896C178.241 88.102 179.727 90.6317 182.155 91.8468L184.893 93.217" stroke="#4A3D29"/>
<path d="M178.893 83.5213L179.458 82.1104L180.586 80.9818L182.844 79.571L185.101 79.0066L181.433 81.8283L180.304 85.2143L180.445 87.1894L181.151 89.7289L182.844 91.9863L181.433 91.4219L179.458 89.1646L178.611 87.4716L178.329 85.7786L178.893 83.5213Z" fill="#4A3D29"/>
<path d="M471.785 98.758V98.758C474.79 98.758 477.433 96.7689 478.265 93.8807L478.553 92.8771V92.8771C478.728 89.7332 477.216 86.7341 474.584 85.0055L474.042 84.6497" stroke="#4A3D29"/>
<path d="M471.781 98.8026L473.555 98.8582C476.651 98.9551 479.43 96.975 480.349 94.018V94.018C480.468 93.6352 480.538 93.2388 480.556 92.8383L480.57 92.5218C480.691 89.8094 479.205 87.2796 476.777 86.0645L474.039 84.6943" stroke="#4A3D29"/>
<path d="M480.038 94.3901L479.474 95.8009L478.345 96.9295L476.088 98.3404L473.831 98.9047L477.499 96.083L478.627 92.6971L478.486 90.7219L477.781 88.1824L476.088 85.9251L477.499 86.4894L479.474 88.7467L480.32 90.4397L480.603 92.1327L480.038 94.3901Z" fill="#4A3D29"/>
<path d="M291.199 95.9365V95.9365C294.204 95.9365 296.847 93.9473 297.678 91.0592L297.967 90.0556V90.0556C298.142 86.9117 296.63 83.9126 293.998 82.1839L293.456 81.8282" stroke="#4A3D29"/>
<path d="M291.195 95.9811L292.969 96.0366C296.064 96.1335 298.844 94.1534 299.763 91.1964V91.1964C299.882 90.8137 299.952 90.4172 299.969 90.0168L299.983 89.7002C300.104 86.9878 298.618 84.4581 296.19 83.2429L293.453 81.8728" stroke="#4A3D29"/>
<path d="M299.452 91.5685L298.888 92.9793L297.759 94.108L295.502 95.5188L293.244 96.0832L296.913 93.2615L298.041 89.8755L297.9 87.9003L297.195 85.3609L295.502 83.1035L296.913 83.6679L298.888 85.9252L299.734 87.6182L300.016 89.3112L299.452 91.5685Z" fill="#4A3D29"/>
<path d="M112.87 97.0651V97.0651C115.875 97.0651 118.518 95.076 119.349 92.1878L119.638 91.1842V91.1842C119.813 88.0403 118.301 85.0412 115.669 83.3126L115.127 82.9568" stroke="#4A3D29"/>
<path d="M112.866 97.1097L114.64 97.1652C117.735 97.2621 120.515 95.282 121.434 92.3251V92.3251C121.553 91.9423 121.623 91.5458 121.64 91.1454L121.655 90.8288C121.775 88.1164 120.29 85.5867 117.861 84.3716L115.124 83.0014" stroke="#4A3D29"/>
<path d="M121.123 92.6971L120.559 94.108L119.43 95.2366L117.173 96.6475L114.916 97.2118L118.584 94.3901L119.712 91.0041L119.571 89.029L118.866 86.4895L117.173 84.2322L118.584 84.7965L120.559 87.0538L121.405 88.7468L121.688 90.4398L121.123 92.6971Z" fill="#4A3D29"/>
<path d="M473.757 183.126C419.217 202.031 549.013 167.042 419.217 177.482C283.495 177.482 370.684 212.983 370.684 188.205C370.684 163.427 393.26 139.954 420.063 139.954C446.867 139.954 473.757 158.348 473.757 183.126Z" fill="#56BBB9"/>
<path d="M409.574 139.252L409.438 131.772L410.25 131.968C415.827 133.32 421.655 133.253 427.199 131.772V141.93L426.818 142.936C425.287 146.971 420.885 149.124 416.759 147.855C412.64 147.031 409.651 143.451 409.574 139.252Z" fill="#F8BA77" stroke="#F8BA77"/>
<rect x="343.114" y="179.458" width="34.9886" height="19.7516" fill="#FBFBFB"/>
<path d="M446.951 176.072H481.94V195.823H446.951V176.072Z" fill="#FBFBFB"/>
<path d="M228.837 138.261L229.119 133.465L247.46 133.182L246.049 138.261H228.837Z" fill="#F9D5B2" stroke="#F9D5B2"/>
<path d="M272.29 183.408V183.408C270.984 177.25 268.584 171.377 265.205 166.066L264.39 164.785V164.785C260.521 159.074 255.094 154.593 248.753 151.876L248.588 151.805L248.729 145.457L249.153 138.826L226.861 138.544L226.297 152.088L219.682 154.033C206.973 157.771 198.961 170.303 200.902 183.408V183.408" stroke="black"/>
<path d="M248.863 144.187L226.854 143.637M248.863 148.137L226.854 146.458" stroke="black"/>
<path d="M248.588 151.805L226.29 151.523" stroke="black"/>
<path d="M213.882 156.32L257.053 156.884M208.521 160.27L262.132 162.246" stroke="black"/>
<path d="M206.263 163.092L265.819 166.761" stroke="black"/>
<path d="M268.611 172.403L202.877 169.582" stroke="black"/>
<line x1="269.755" y1="175.443" x2="201.472" y2="176.069" stroke="black"/>
<line x1="272.012" y1="181.651" x2="200.906" y2="182.224" stroke="black"/>
<path d="M227.144 138.543L249.153 138.826L248.588 143.905L226.861 143.34L227.144 138.543Z" fill="#F15A24"/>
<path d="M226.862 146.726L248.306 148.419V151.523L226.579 151.241L226.862 146.726Z" fill="#F15A24"/>
<path d="M214.164 156.602L257.053 157.167L257.363 157.414C259.032 158.749 260.538 160.276 261.85 161.963V161.963L209.367 159.988L211.907 158.013L214.164 156.602Z" fill="#F15A24"/>
<path d="M206.546 163.374L265.518 167.042V167.042C266.268 167.979 266.901 169.004 267.404 170.094L268.34 172.121L202.877 169.3V169.3C203.814 167.238 205.004 165.302 206.418 163.534L206.546 163.374Z" fill="#F15A24"/>
<path d="M201.184 176.072L269.468 175.507L270.315 177.482L271.444 181.151L201.184 181.715V181.715C200.632 180.059 200.583 178.277 201.042 176.593L201.184 176.072Z" fill="#F15A24"/>
<path d="M248.87 143.904L249.152 138.826L226.862 138.544L226.579 143.34" stroke="#F15A24"/>
<path d="M128.103 340.01H78.1511C66.0008 340.01 56.1511 330.16 56.1511 318.01L56.1511 213.6C56.1511 208.145 60.5726 203.724 66.0269 203.724V203.724" stroke="#00DBE9" stroke-width="3"/>
<path d="M341.421 340.292H391.655C403.806 340.292 413.655 330.443 413.655 318.292V213.638C413.655 208.163 409.217 203.724 403.741 203.724V203.724" stroke="#00DBE9" stroke-width="3"/>
<line x1="233.262" y1="258.467" x2="233.262" y2="196.952" stroke="#00DBE9" stroke-width="3"/>
<path d="M283.814 321.935L178.331 321.935L178.96 340.1C179.259 348.742 180.625 357.314 183.026 365.621C184.974 372.358 187.528 378.904 190.658 385.179L193.636 391.148C195.655 395.194 197.966 399.087 200.552 402.795L201.753 404.516C203.538 407.076 205.597 409.433 207.895 411.544L209.376 412.906C212.02 415.336 215.141 417.191 218.54 418.351L220.416 418.991C228.831 421.863 238.123 420.359 245.202 414.978L249.458 411.627C253.44 408.491 257.069 404.932 260.282 401.013L264.954 395.314L265.979 393.503C270.448 385.611 274.008 377.237 276.59 368.543L277.323 366.076C279.988 357.102 281.713 347.874 282.469 338.542L283.814 321.935Z" fill="#E1E0E0" stroke="#E1E0E0" stroke-width="2"/>
<path d="M283.368 331.505C283.368 335.465 282.978 338.232 282.27 340.07C281.571 341.887 280.589 342.739 279.397 343.005C278.155 343.283 276.566 342.954 274.611 342.113C272.67 341.277 270.447 339.971 267.969 338.4C266.738 337.62 265.447 336.776 264.101 335.896C260.045 333.244 255.489 330.266 250.602 327.737C244.086 324.365 236.919 321.759 229.441 321.759C221.961 321.759 214.929 324.366 208.614 327.74C203.719 330.355 199.222 333.45 195.272 336.167C194.132 336.952 193.036 337.706 191.991 338.407C189.647 339.979 187.561 341.283 185.747 342.118C183.918 342.959 182.458 343.279 181.33 343.007C180.252 342.748 179.346 341.911 178.699 340.083C178.047 338.24 177.691 335.468 177.691 331.505C177.691 299.903 201.383 274.352 230.529 274.352C259.675 274.352 283.368 299.903 283.368 331.505Z" fill="#E1E0E0" stroke="#E1E0E0"/>
<path d="M247.806 377.538C247.806 388.834 239.401 397.918 229.119 397.918C218.837 397.918 210.432 388.834 210.432 377.538C210.432 366.242 218.837 357.158 229.119 357.158C239.401 357.158 247.806 366.242 247.806 377.538Z" fill="#231F20" stroke="#231F20"/>
<path d="M199.001 312.595L263.948 312.595C261.519 298.969 250.746 288.364 237.083 286.149L233.469 285.563C232.266 285.368 231.044 285.312 229.828 285.397L228.528 285.488C214.527 286.463 202.794 296.444 199.585 310.107L199.001 312.595Z" fill="#231F20" stroke="#231F20"/>
<path d="M178.484 332.429C178.484 333.464 178.571 334.358 178.644 335.098C178.648 335.137 178.651 335.176 178.655 335.214C178.732 336 178.777 336.552 178.711 336.965C178.68 337.16 178.627 337.298 178.557 337.403C178.489 337.504 178.389 337.598 178.227 337.681C177.879 337.859 177.273 337.973 176.217 337.973C172.213 337.973 168.972 334.749 168.972 330.78C168.972 326.811 172.213 323.587 176.217 323.587C177.181 323.587 177.731 323.869 178.072 324.272C178.433 324.699 178.631 325.344 178.706 326.208C178.781 327.066 178.729 328.064 178.654 329.142C178.643 329.307 178.631 329.473 178.618 329.641C178.552 330.557 178.484 331.512 178.484 332.429Z" fill="#ACACAC" stroke="#ACACAC"/>
<line x1="171.212" y1="335.105" x2="165.776" y2="354.678" stroke="#ACACAC"/>
<path d="M173.449 336.603L169.643 356.175" stroke="#ACACAC"/>
<circle cx="166.421" cy="360.014" r="5.14154" fill="#C4C4C4" stroke="#ACACAC"/>
<line x1="163.619" y1="364.347" x2="162.532" y2="396.967" stroke="#ACACAC"/>
<line x1="166.921" y1="365.655" x2="166.921" y2="396.94" stroke="#ACACAC"/>
<path d="M294.138 331.293C294.138 334.996 291.227 337.973 287.668 337.973C286.776 337.973 286.083 337.787 285.539 337.475C284.996 337.163 284.573 336.709 284.248 336.126C283.587 334.942 283.342 333.254 283.342 331.293C283.342 329.332 283.587 327.644 284.248 326.459C284.573 325.877 284.996 325.422 285.539 325.111C286.083 324.798 286.776 324.613 287.668 324.613C291.227 324.613 294.138 327.589 294.138 331.293Z" fill="#ACACAC" stroke="#ACACAC"/>
<line x1="289.737" y1="338.119" x2="294.087" y2="356.604" stroke="#ACACAC"/>
<line x1="291.897" y1="336.98" x2="298.421" y2="355.465" stroke="#ACACAC"/>
<path d="M301.831 360.014C301.831 362.875 299.622 365.155 296.946 365.155C294.269 365.155 292.061 362.875 292.061 360.014C292.061 357.152 294.269 354.872 296.946 354.872C299.622 354.872 301.831 357.152 301.831 360.014Z" fill="#ACACAC" stroke="#ACACAC"/>
<circle cx="277.97" cy="326.934" r="2.32077" fill="#231F20" stroke="#231F20"/>
<circle cx="228.991" cy="413.865" r="2.06434" fill="#231F20" stroke="#231F20"/>
<path d="M186.436 326.934C186.436 328.261 185.468 329.254 184.371 329.254C183.275 329.254 182.307 328.261 182.307 326.934C182.307 325.606 183.275 324.613 184.371 324.613C185.468 324.613 186.436 325.606 186.436 326.934Z" fill="#C4C4C4" stroke="#ACACAC"/>
<line x1="295.138" y1="364.117" x2="295.138" y2="396.94" stroke="#ACACAC"/>
<line x1="298.215" y1="364.117" x2="298.215" y2="396.94" stroke="#ACACAC"/>
<path d="M303.89 402.13C304.517 403.625 304.686 405.273 304.376 406.865C304.288 407.316 304.1 407.573 303.909 407.711C303.717 407.849 303.471 407.902 303.196 407.856C302.637 407.762 301.989 407.248 301.762 406.329L301.104 403.66C299.867 398.651 292.735 398.68 291.54 403.7L290.903 406.374C290.684 407.295 290.04 407.814 289.482 407.912C289.208 407.961 288.961 407.909 288.768 407.773C288.575 407.637 288.385 407.382 288.294 406.931C287.971 405.342 288.126 403.693 288.741 402.192C289.355 400.691 290.401 399.407 291.745 398.5C293.09 397.594 294.673 397.106 296.294 397.1C297.916 397.093 299.503 397.567 300.855 398.463C302.207 399.358 303.263 400.634 303.89 402.13Z" fill="#C4C4C4" stroke="#ACACAC"/>
<path d="M172.321 402.13C172.948 403.625 173.117 405.273 172.807 406.865C172.719 407.316 172.532 407.573 172.34 407.711C172.148 407.849 171.902 407.902 171.627 407.856C171.069 407.762 170.42 407.248 170.194 406.329L169.535 403.66C168.299 398.651 161.166 398.68 159.971 403.7L159.334 406.374C159.115 407.295 158.471 407.814 157.914 407.912C157.639 407.961 157.393 407.909 157.199 407.773C157.007 407.637 156.817 407.382 156.725 406.931C156.402 405.342 156.558 403.693 157.172 402.192C157.786 400.691 158.832 399.407 160.177 398.5C161.521 397.594 163.104 397.106 164.726 397.1C166.347 397.093 167.935 397.567 169.286 398.463C170.638 399.358 171.695 400.634 172.321 402.13Z" fill="#C4C4C4" stroke="#ACACAC"/>
<path d="M283.814 321.935L178.331 321.935L178.96 340.1C179.259 348.742 180.625 357.314 183.026 365.621C184.974 372.358 187.528 378.904 190.658 385.179L193.636 391.148C195.655 395.194 197.966 399.087 200.552 402.795L201.753 404.516C203.538 407.076 205.597 409.433 207.895 411.544L209.376 412.906C212.02 415.336 215.141 417.191 218.54 418.351L220.416 418.991C228.831 421.863 238.123 420.359 245.202 414.978L249.458 411.627C253.44 408.491 257.069 404.932 260.282 401.013L264.954 395.314L265.979 393.503C270.448 385.611 274.008 377.237 276.59 368.543L277.323 366.076C279.988 357.102 281.713 347.874 282.469 338.542L283.814 321.935Z" fill="#E1E0E0" stroke="#E1E0E0" stroke-width="2"/>
<path d="M283.368 331.505C283.368 335.465 282.978 338.232 282.27 340.07C281.571 341.887 280.589 342.739 279.397 343.005C278.155 343.283 276.566 342.954 274.611 342.113C272.67 341.277 270.447 339.971 267.969 338.4C266.738 337.62 265.447 336.776 264.101 335.896C260.045 333.244 255.489 330.266 250.602 327.737C244.086 324.365 236.919 321.759 229.441 321.759C221.961 321.759 214.929 324.366 208.614 327.74C203.719 330.355 199.222 333.45 195.272 336.167C194.132 336.952 193.036 337.706 191.991 338.407C189.647 339.979 187.561 341.283 185.747 342.118C183.918 342.959 182.458 343.279 181.33 343.007C180.252 342.748 179.346 341.911 178.699 340.083C178.047 338.24 177.691 335.468 177.691 331.505C177.691 299.903 201.383 274.352 230.529 274.352C259.675 274.352 283.368 299.903 283.368 331.505Z" fill="#E1E0E0" stroke="#E1E0E0"/>
<path d="M247.806 377.538C247.806 388.834 239.401 397.918 229.119 397.918C218.837 397.918 210.432 388.834 210.432 377.538C210.432 366.242 218.837 357.158 229.119 357.158C239.401 357.158 247.806 366.242 247.806 377.538Z" fill="#231F20" stroke="#231F20"/>
<path d="M199.001 312.595L263.948 312.595C261.519 298.969 250.746 288.364 237.083 286.149L233.469 285.563C232.266 285.368 231.044 285.312 229.828 285.397L228.528 285.488C214.527 286.463 202.794 296.444 199.585 310.107L199.001 312.595Z" fill="#231F20" stroke="#231F20"/>
<path d="M178.484 332.429C178.484 333.464 178.571 334.358 178.644 335.098C178.648 335.137 178.651 335.176 178.655 335.214C178.732 336 178.777 336.552 178.711 336.965C178.68 337.16 178.627 337.298 178.557 337.403C178.489 337.504 178.389 337.598 178.227 337.681C177.879 337.859 177.273 337.973 176.217 337.973C172.213 337.973 168.972 334.749 168.972 330.78C168.972 326.811 172.213 323.587 176.217 323.587C177.181 323.587 177.731 323.869 178.072 324.272C178.433 324.699 178.631 325.344 178.706 326.208C178.781 327.066 178.729 328.064 178.654 329.142C178.643 329.307 178.631 329.473 178.618 329.641C178.552 330.557 178.484 331.512 178.484 332.429Z" fill="#ACACAC" stroke="#ACACAC"/>
<line x1="171.212" y1="335.105" x2="165.776" y2="354.678" stroke="#ACACAC"/>
<path d="M173.449 336.603L169.643 356.175" stroke="#ACACAC"/>
<circle cx="166.421" cy="360.014" r="5.14154" fill="#C4C4C4" stroke="#ACACAC"/>
<line x1="163.619" y1="364.347" x2="162.532" y2="396.967" stroke="#ACACAC"/>
<line x1="166.921" y1="365.655" x2="166.921" y2="396.94" stroke="#ACACAC"/>
<path d="M294.138 331.293C294.138 334.996 291.227 337.973 287.668 337.973C286.776 337.973 286.083 337.787 285.539 337.475C284.996 337.163 284.573 336.709 284.248 336.126C283.587 334.942 283.342 333.254 283.342 331.293C283.342 329.332 283.587 327.644 284.248 326.459C284.573 325.877 284.996 325.422 285.539 325.111C286.083 324.798 286.776 324.613 287.668 324.613C291.227 324.613 294.138 327.589 294.138 331.293Z" fill="#ACACAC" stroke="#ACACAC"/>
<line x1="289.737" y1="338.119" x2="294.087" y2="356.604" stroke="#ACACAC"/>
<line x1="291.897" y1="336.98" x2="298.421" y2="355.465" stroke="#ACACAC"/>
<path d="M301.831 360.014C301.831 362.875 299.622 365.155 296.946 365.155C294.269 365.155 292.061 362.875 292.061 360.014C292.061 357.152 294.269 354.872 296.946 354.872C299.622 354.872 301.831 357.152 301.831 360.014Z" fill="#ACACAC" stroke="#ACACAC"/>
<circle cx="277.97" cy="326.934" r="2.32077" fill="#231F20" stroke="#231F20"/>
<circle cx="228.991" cy="413.865" r="2.06434" fill="#231F20" stroke="#231F20"/>
<path d="M186.436 326.934C186.436 328.261 185.468 329.254 184.371 329.254C183.275 329.254 182.307 328.261 182.307 326.934C182.307 325.606 183.275 324.613 184.371 324.613C185.468 324.613 186.436 325.606 186.436 326.934Z" fill="#C4C4C4" stroke="#ACACAC"/>
<line x1="295.138" y1="364.117" x2="295.138" y2="396.94" stroke="#ACACAC"/>
<line x1="298.215" y1="364.117" x2="298.215" y2="396.94" stroke="#ACACAC"/>
<path d="M303.89 402.13C304.517 403.625 304.686 405.273 304.376 406.865C304.288 407.316 304.1 407.573 303.909 407.711C303.717 407.849 303.471 407.902 303.196 407.856C302.637 407.762 301.989 407.248 301.762 406.329L301.104 403.66C299.867 398.651 292.735 398.68 291.54 403.7L290.903 406.374C290.684 407.295 290.04 407.814 289.482 407.912C289.208 407.961 288.961 407.909 288.768 407.773C288.575 407.637 288.385 407.382 288.294 406.931C287.971 405.342 288.126 403.693 288.741 402.192C289.355 400.691 290.401 399.407 291.745 398.5C293.09 397.594 294.673 397.106 296.294 397.1C297.916 397.093 299.503 397.567 300.855 398.463C302.207 399.358 303.263 400.634 303.89 402.13Z" fill="#C4C4C4" stroke="#ACACAC"/>
<path d="M172.321 402.13C172.948 403.625 173.117 405.273 172.807 406.865C172.719 407.316 172.532 407.573 172.34 407.711C172.148 407.849 171.902 407.902 171.627 407.856C171.069 407.762 170.42 407.248 170.194 406.329L169.535 403.66C168.299 398.651 161.166 398.68 159.971 403.7L159.334 406.374C159.115 407.295 158.471 407.814 157.914 407.912C157.639 407.961 157.393 407.909 157.199 407.773C157.007 407.637 156.817 407.382 156.725 406.931C156.402 405.342 156.558 403.693 157.172 402.192C157.786 400.691 158.832 399.407 160.177 398.5C161.521 397.594 163.104 397.106 164.726 397.1C166.347 397.093 167.935 397.567 169.286 398.463C170.638 399.358 171.695 400.634 172.321 402.13Z" fill="#C4C4C4" stroke="#ACACAC"/>
<circle cx="244.074" cy="301.071" r="4.79682" fill="#00DBE9"/>
<circle cx="219.243" cy="301.071" r="4.79682" fill="#00DBE9"/>
<path d="M256.359 328.425L259.028 324.491C241.991 335.968 219.409 335.251 203.028 322.854C207.859 333.361 217.82 340.588 229.308 341.92L230.546 342.064C240.883 342.09 250.557 336.979 256.359 328.425Z" fill="white" stroke="white"/>
</svg>
