<svg width="483" height="420" viewBox="0 0 483 420" fill="none" xmlns="http://www.w3.org/2000/svg">
<path d="M466.758 171.915L458.946 161.621C432.955 127.369 379.467 134.906 363.954 175.007L415.799 173.677L466.758 171.915Z" fill="#56BBB9" stroke="#56BBB9"/>
<ellipse cx="60.8818" cy="87.6924" rx="47.4767" ry="41.8912" fill="#CA955F"/>
<ellipse cx="10.8917" cy="87.1855" rx="10.8917" ry="11.171" fill="#CA955F"/>
<ellipse cx="114.223" cy="89.4199" rx="10.8917" ry="11.171" fill="#CA955F"/>
<circle cx="41.8913" cy="74.339" r="5.02695" fill="black"/>
<circle cx="33.7922" cy="88.582" r="10.3332" fill="#FF8C67"/>
<circle cx="92.7193" cy="88.8613" r="9.49535" fill="#FF8C67"/>
<circle cx="207.78" cy="92.1608" r="10.6124" fill="#FF8C67"/>
<circle cx="81.5483" cy="74.339" r="5.02695" fill="black"/>
<line x1="33.5228" y1="87.8029" x2="90.4949" y2="88.92" stroke="black"/>
<path d="M33.6741 88.0745L37.0155 93.7455C42.2864 102.691 51.8953 108.182 62.2783 108.182V108.182" stroke="black"/>
<path d="M90.6367 89.6544L90.4881 89.9756C85.3778 101.018 74.3184 108.086 62.1507 108.087V108.087" stroke="black"/>
<path d="M39.6641 96.9531L85.5284 96.9531C85.8365 96.9531 86.1274 96.8111 86.3169 96.5681L87.9715 94.4468L90.1938 90.6083C90.5754 89.9491 90.1094 89.1223 89.3479 89.1075L35.5893 88.0585C34.8054 88.0432 34.3097 88.8948 34.71 89.5689L38.8043 96.4637C38.9845 96.7671 39.3112 96.9531 39.6641 96.9531Z" fill="white" stroke="white"/>
<path d="M39.657 97.2396H85.7374L81.8276 101.149L76.2421 104.78L67.8638 107.573L61.4405 108.131L56.4135 107.573L50.5488 105.618L45.5218 102.825L43.2876 100.87L39.657 97.2396Z" fill="black"/>
<path d="M9.60009 70.6708L8.44478 72.8851C7.85074 74.0237 7.54052 75.2889 7.54049 76.5732L8.46015 76.3177C11.0792 75.5902 13.883 75.9863 16.198 77.411L22.0628 66.5191C30.2518 53.9744 44.2203 46.4116 59.2012 46.4116L61.7199 46.4116L67.8215 46.8487C87.0064 48.2231 103.135 61.7715 107.8 80.4313C109.825 79.1428 112.101 78.3008 114.477 77.9614L114.782 77.9178L115.818 74.6889C116.423 72.8039 116.598 70.8074 116.331 68.8458C116.045 66.7529 115.39 64.7273 114.396 62.8635L113.665 61.4923L114.026 60.264C115.136 56.493 113.624 52.4421 110.314 50.3213L111.032 49.2755C111.85 48.0858 112.45 46.7607 112.806 45.3615C113.003 44.585 112.997 43.771 112.79 42.9972L112.69 42.625C112.414 41.5962 111.867 40.6604 111.106 39.9151C110.22 39.0473 109.127 38.4205 107.931 38.0942L107.234 37.9041C106.897 37.8122 106.642 37.5364 106.576 37.1935L105.974 34.0293C105.71 32.6456 104.975 31.3963 103.892 30.4945L103.765 30.3884C102.749 29.5415 101.531 28.9721 100.229 28.7354L99.738 28.6461C99.3467 28.575 98.9441 28.5975 98.5632 28.7117C97.1746 29.1283 95.6703 28.8471 94.526 27.9571L91.323 25.4659L89.6814 23.8242C88.0106 22.1535 85.9417 20.9361 83.6698 20.287C82.0922 19.8363 80.4297 19.769 78.8208 20.0907L77.4322 20.3685C76.3298 20.5889 75.1876 20.2842 74.3416 19.5439L72.6456 18.06C71.717 17.2474 70.5504 16.7572 69.3201 16.6626L68.7959 16.6222C68.0013 16.5611 67.2042 16.702 66.4787 17.0318C65.1846 17.62 64.04 18.4925 63.13 19.5845L61.7199 21.2767L61.2545 21.1921C59.5443 20.8812 57.7834 21.0063 56.1344 21.556L55.6673 21.1556C52.6215 18.545 48.0792 18.7194 45.2426 21.556L41.3991 21.0069C40.0636 20.8161 38.704 20.8786 37.3916 21.1911L36.6432 21.3693C34.5923 21.8576 32.7052 22.8749 31.17 24.3198C29.607 25.7908 28.5492 27.7183 28.1475 29.8268L27.6483 32.4477C23.4355 32.1572 19.9916 35.7594 20.4711 39.9549L20.6664 41.6638L19.2496 42.0574C16.9512 42.6959 15.0307 44.278 13.964 46.4116C13.4341 48.3544 13.8114 50.4326 14.9905 52.065L16.7567 54.5106C15.6602 56.3378 15.081 58.4287 15.081 60.5596L15.081 61.7714C13.8293 63.0231 13.1261 64.7208 13.1261 66.491L13.1261 66.5191C11.6553 67.6222 10.4505 69.0408 9.60009 70.6708Z" fill="#7F5538" stroke="#7F5538"/>
<path d="M48.5305 134.012L53.8368 134.012L61.9358 148.628L70.314 134.012L74.7824 134.012L80.3174 140.375C82.022 142.334 83.9291 144.108 86.0069 145.666C87.6404 146.891 89.1125 148.318 90.388 149.913L91.5187 151.326C92.4596 152.502 93.2527 153.789 93.8803 155.158C95.2895 158.233 96.2049 161.511 96.5927 164.871L96.8452 167.06L27.0263 167.06L27.2316 165.111C27.4667 162.879 27.9223 160.675 28.5919 158.532L28.9813 157.286L29.5118 156.284C30.831 153.792 32.3814 151.43 34.1425 149.228L34.846 148.349L36.6161 146.579C37.4814 145.714 38.4422 144.949 39.48 144.301C41.3996 143.101 43.0697 141.542 44.3986 139.71L48.5305 134.012Z" fill="#A5CA27" stroke="#A5CA27"/>
<path d="M53.9001 133.266V127.401L70.3773 127.122V133.266L61.7198 147.788L53.9001 133.266Z" fill="#CA955F" stroke="#CA955F"/>
<path d="M300.861 103.89C300.861 134.893 264.555 140.755 234.673 135.728C198.367 137.962 169.74 131.259 171.557 98.8635C173.233 68.9811 202.078 36.3058 236.628 36.3058C276.006 38.2608 300.861 72.8883 300.861 103.89Z" fill="#333333"/>
<ellipse cx="236.267" cy="91.0436" rx="47.4767" ry="41.8912" fill="#F9D5B2"/>
<ellipse cx="182.367" cy="84.3411" rx="10.8917" ry="11.171" fill="#F9D5B2"/>
<ellipse cx="291.284" cy="87.6924" rx="10.8917" ry="11.171" fill="#F9D5B2"/>
<path d="M217.355 78.1276C218.538 78.636 219.974 78.0531 219.865 76.7706V76.7706C219.799 75.9926 219.542 75.243 219.117 74.5881C218.692 73.9332 218.112 73.3932 217.428 73.016C216.745 72.6388 215.979 72.436 215.198 72.4255C214.417 72.4151 213.646 72.5974 212.953 72.9562C212.259 73.315 211.665 73.8393 211.223 74.4826C210.78 75.1259 210.503 75.8684 210.416 76.6444V76.6444C210.273 77.9235 211.694 78.5445 212.889 78.0679L213.98 77.6329C214.719 77.3383 215.545 77.3493 216.276 77.6636L217.355 78.1276Z" fill="#333333"/>
<path d="M235.517 82.9033C234.479 82.9033 233.459 83.5444 233.522 84.5803C233.525 84.6276 233.529 84.6748 233.534 84.7219C233.595 85.341 233.808 85.9354 234.154 86.4524C234.5 86.9695 234.968 87.3932 235.517 87.6861C236.066 87.979 236.678 88.132 237.301 88.1316C237.923 88.1312 238.535 87.9774 239.083 87.6837C239.632 87.3901 240.1 86.9658 240.445 86.4483C240.79 85.9308 241.002 85.3361 241.063 84.717V84.717C241.172 83.5981 240.059 82.8987 238.935 82.8987L236.725 82.8987L235.517 82.9033V82.9033Z" fill="#FFA194"/>
<path d="M259.247 78.1276C260.429 78.636 261.866 78.0531 261.757 76.7706V76.7706C261.69 75.9926 261.433 75.243 261.008 74.5881C260.583 73.9332 260.003 73.3932 259.32 73.016C258.636 72.6388 257.87 72.436 257.089 72.4255C256.309 72.4151 255.537 72.5974 254.844 72.9562C254.151 73.315 253.556 73.8393 253.114 74.4826C252.672 75.1259 252.395 75.8684 252.308 76.6444V76.6444C252.164 77.9235 253.585 78.5445 254.781 78.0679L255.872 77.6329C256.611 77.3383 257.437 77.3493 258.167 77.6636L259.247 78.1276Z" fill="#333333"/>
<path d="M278.148 71.3265L278.716 72.3325C259.173 69.9581 240.641 62.2228 225.2 50.011L227.323 49.6099C242.81 46.6827 258.774 51.17 270.469 61.7372C273.527 64.5005 276.119 67.7384 278.148 71.3265Z" fill="#333333" stroke="#333333"/>
<circle cx="205.546" cy="94.395" r="9.49535" fill="#FFA194"/>
<circle cx="268.104" cy="97.1878" r="9.49535" fill="#FFA194"/>
<path d="M262.851 99.599L266.149 94.3954L235.15 93.5576L207.501 92.7193C212.513 104.472 223.583 112.681 236.267 114.224C247.048 114.224 257.079 108.705 262.851 99.599Z" fill="white" stroke="white"/>
<path d="M462.538 88.9941C462.538 112.106 441.315 130.944 415.003 130.944C388.69 130.944 367.467 112.106 367.467 88.9941C367.467 65.8822 388.69 47.0443 415.003 47.0443C441.315 47.0443 462.538 65.8822 462.538 88.9941Z" fill="#F8BA77" stroke="#F8BA77"/>
<circle cx="361.382" cy="90.1113" r="11.7295" fill="#F8BA77"/>
<ellipse cx="468.344" cy="91.2283" rx="11.4503" ry="11.7295" fill="#F8BA77"/>
<path d="M363.708 68.5293L362.778 77.823L367.247 80.3365C369.658 74.3996 372.767 68.7703 376.507 63.5669L377.301 62.4628C383.164 56.2324 390.499 51.5743 398.631 48.9156L400.76 48.2198L402.568 47.8007C416.117 44.6614 430.352 46.809 442.372 53.8053L443.403 54.5179C452.665 60.9174 459.41 70.3425 462.479 81.1743L463.876 80.3364L464.121 78.9447C464.514 76.7191 465.227 74.562 466.238 72.5406C466.894 71.2286 467.74 70.0205 468.749 68.9556L474.751 62.6202C476.401 60.8781 477.503 58.6894 477.92 56.3261C478.052 55.5819 478.055 54.8208 477.931 54.0753L477.689 52.621C477.42 51.0097 476.801 49.4771 475.876 48.131C474.775 46.5293 473.378 45.1523 471.761 44.0741L470.02 42.9135L470.299 46.5441L470.196 48.3953C470.082 50.4497 469.264 52.4022 467.88 53.9247C467.449 54.3984 466.925 54.7774 466.34 55.0374L466.285 55.062C465.255 55.5196 464.124 55.7013 463.003 55.5892L461.921 55.4809L462.628 54.1366C463.992 51.5453 464.617 48.6288 464.434 45.7063L464.08 43.9369C463.944 43.2558 463.753 42.5868 463.509 41.9364C463.195 41.0995 462.82 40.2871 462.386 39.5058L461.299 37.5494C460.599 36.2884 459.764 35.1068 458.809 34.0251L456.056 30.9047L454.939 35.6524L454.478 37.2675C454.06 38.7297 453.047 39.9495 451.687 40.6296C449.832 41.5574 447.689 41.73 445.708 41.1112L444.327 40.6793L423.611 33.2312C420.862 32.2425 418.001 31.5955 415.093 31.3047C412.438 31.0392 409.759 31.1199 407.124 31.5449L405.396 31.8236C403.43 32.1406 401.514 32.7104 399.695 33.519C398.179 34.1928 396.771 35.0876 395.517 36.1742L393.219 38.1659L386.237 18.8959L384.841 39.283L370.877 28.3913L378.295 41.3199C379.528 43.4678 378.532 46.208 376.209 47.064L375.346 47.382C371.721 47.8997 368.656 50.3275 367.322 53.7368L367.187 54.082C365.373 58.7165 364.203 63.5773 363.708 68.5293Z" fill="#F6EEC6" stroke="#F6EEC6"/>
<path d="M457.074 67.3813L457.906 68.7609C436.752 68.0013 416.252 60.9573 399.079 48.5797L401.533 47.8558C417.882 43.0317 435.56 46.6825 448.66 57.5885C451.991 60.3611 454.834 63.671 457.074 67.3813Z" fill="#F6EEC6" stroke="#F6EEC6"/>
<circle cx="396.85" cy="75.8681" r="4.74767" fill="#333333"/>
<circle cx="437.624" cy="76.4267" r="4.74767" fill="#333333"/>
<path d="M415.37 77.8763C414.332 77.8763 413.312 78.5174 413.375 79.5534C413.378 79.6006 413.382 79.6478 413.387 79.695C413.448 80.3141 413.661 80.9084 414.007 81.4255C414.353 81.9425 414.821 82.3662 415.37 82.6591C415.919 82.952 416.532 83.105 417.154 83.1046C417.776 83.1042 418.388 82.9504 418.937 82.6568C419.485 82.3632 419.953 81.9388 420.298 81.4213C420.643 80.9038 420.856 80.3092 420.916 79.69V79.69C421.026 78.5712 419.912 77.8717 418.788 77.8717L416.578 77.8717L415.37 77.8763V77.8763Z" fill="#FFA194"/>
<circle cx="385.4" cy="94.395" r="11.171" fill="#FFA194"/>
<circle cx="446.281" cy="94.9536" r="10.0539" fill="#FFA194"/>
<path d="M444.824 95.1373L413.829 94.17L386.184 93.2505C391.49 100.82 399.864 105.666 409.071 106.494L415.243 107.05C426.294 107.209 436.972 102.916 444.824 95.1373Z" fill="white" stroke="white"/>
<path d="M362.848 83.5537V83.5537C359.873 83.5537 357.258 85.5225 356.435 88.3811L356.149 89.3744V89.3744C355.976 92.4861 357.473 95.4545 360.078 97.1654L360.614 97.5175" stroke="#4A3D29"/>
<path d="M362.851 83.5096L361.096 83.4546C358.032 83.3587 355.281 85.3186 354.371 88.2452V88.2452C354.253 88.6241 354.185 89.0165 354.167 89.4128L354.153 89.7261C354.033 92.4107 355.504 94.9146 357.907 96.1172L360.617 97.4734" stroke="#4A3D29"/>
<path d="M354.679 87.877L355.238 86.4806L356.355 85.3635L358.589 83.9671L360.823 83.4086L357.193 86.2013L356.076 89.5526L356.215 91.5075L356.913 94.021L358.589 96.2552L357.193 95.6967L355.238 93.4625L354.4 91.7868L354.121 90.1112L354.679 87.877Z" fill="#4A3D29"/>
<path d="M12.0784 80.5764V80.5764C9.10371 80.5764 6.48819 82.5452 5.66527 85.4038L5.37931 86.3971V86.3971C5.20644 89.5088 6.70333 92.4771 9.30815 94.1881L9.84417 94.5402" stroke="#4A3D29"/>
<path d="M12.0819 80.5323L10.3261 80.4774C7.26271 80.3814 4.51179 82.3413 3.60179 85.2679V85.2679C3.484 85.6468 3.41542 86.0392 3.39774 86.4355L3.38377 86.7488C3.26402 89.4335 4.73478 91.9373 7.13792 93.14L9.84769 94.4961" stroke="#4A3D29"/>
<path d="M3.90972 84.8997L4.46827 83.5033L5.58537 82.3862L7.81957 80.9898L10.0538 80.4313L6.42319 83.224L5.30609 86.5753L5.44573 88.5303L6.14392 91.0437L7.81957 93.2779L6.42319 92.7194L4.46827 90.4852L3.63044 88.8095L3.35117 87.1339L3.90972 84.8997Z" fill="#4A3D29"/>
<path d="M185.229 78.3423V78.3423C182.254 78.3423 179.639 80.3111 178.816 83.1697L178.53 84.163V84.163C178.357 87.2747 179.854 90.243 182.459 91.954L182.995 92.3061" stroke="#4A3D29"/>
<path d="M185.233 78.2982L183.477 78.2433C180.413 78.1473 177.662 80.1072 176.752 83.0338V83.0338C176.635 83.4127 176.566 83.8051 176.548 84.2014L176.534 84.5147C176.415 87.1994 177.885 89.7032 180.289 90.9059L182.998 92.262" stroke="#4A3D29"/>
<path d="M177.06 82.6656L177.619 81.2692L178.736 80.1521L180.97 78.7557L183.204 78.1972L179.574 80.9899L178.457 84.3412L178.596 86.2962L179.295 88.8096L180.97 91.0438L179.574 90.4853L177.619 88.2511L176.781 86.5754L176.502 84.8998L177.06 82.6656Z" fill="#4A3D29"/>
<path d="M466.951 97.7462V97.7462C469.926 97.7462 472.542 95.7774 473.364 92.9188L473.65 91.9255V91.9255C473.823 88.8138 472.326 85.8455 469.722 84.1345L469.186 83.7824" stroke="#4A3D29"/>
<path d="M466.948 97.7903L468.704 97.8453C471.767 97.9412 474.518 95.9814 475.428 93.0547V93.0547C475.546 92.6759 475.614 92.2835 475.632 91.8871L475.646 91.5738C475.766 88.8892 474.295 86.3854 471.892 85.1827L469.182 83.8266" stroke="#4A3D29"/>
<path d="M475.12 93.423L474.561 94.8193L473.444 95.9364L471.21 97.3328L468.976 97.8914L472.606 95.0986L473.723 91.7473L473.584 89.7924L472.886 87.2789L471.21 85.0447L472.606 85.6033L474.561 87.8375L475.399 89.5131L475.678 91.1888L475.12 93.423Z" fill="#4A3D29"/>
<path d="M288.215 94.9536V94.9536C291.19 94.9536 293.806 92.9848 294.628 90.1262L294.914 89.1329V89.1329C295.087 86.0212 293.59 83.0528 290.986 81.3419L290.45 80.9898" stroke="#4A3D29"/>
<path d="M288.212 94.9977L289.968 95.0527C293.031 95.1486 295.782 93.1887 296.692 90.2621V90.2621C296.81 89.8832 296.878 89.4908 296.896 89.0945L296.91 88.7812C297.03 86.0966 295.559 83.5927 293.156 82.3901L290.446 81.0339" stroke="#4A3D29"/>
<path d="M296.384 90.6303L295.826 92.0267L294.708 93.1438L292.474 94.5402L290.24 95.0987L293.871 92.306L294.988 88.9547L294.848 86.9997L294.15 84.4863L292.474 82.2521L293.871 82.8106L295.826 85.0448L296.663 86.7205L296.943 88.3961L296.384 90.6303Z" fill="#4A3D29"/>
<path d="M111.714 96.0707V96.0707C114.688 96.0707 117.304 94.1019 118.127 91.2433L118.413 90.25V90.25C118.586 87.1383 117.089 84.17 114.484 82.459L113.948 82.1069" stroke="#4A3D29"/>
<path d="M111.71 96.1148L113.466 96.1698C116.529 96.2657 119.28 94.3058 120.19 91.3792V91.3792C120.308 91.0003 120.376 90.6079 120.394 90.2116L120.408 89.8983C120.528 87.2137 119.057 84.7098 116.654 83.5072L113.944 82.151" stroke="#4A3D29"/>
<path d="M119.882 91.7474L119.324 93.1438L118.206 94.2609L115.972 95.6573L113.738 96.2158L117.369 93.4231L118.486 90.0718L118.346 88.1169L117.648 85.6034L115.972 83.3692L117.369 83.9277L119.324 86.1619L120.161 87.8376L120.441 89.5132L119.882 91.7474Z" fill="#4A3D29"/>
<path d="M226.492 136.845L226.771 132.097L244.924 131.818L243.528 136.845H226.492Z" fill="#F9D5B2" stroke="#F9D5B2"/>
<path d="M269.5 181.529V181.529C268.208 175.434 265.832 169.621 262.487 164.365L261.681 163.097V163.097C257.851 157.444 252.48 153.009 246.204 150.32L246.041 150.25L246.181 143.966L246.6 137.403L224.537 137.124L223.979 150.529L217.431 152.455C204.852 156.155 196.922 168.558 198.844 181.529V181.529" stroke="black"/>
<path d="M246.314 142.71L224.53 142.165M246.314 146.62L224.53 144.958" stroke="black"/>
<path d="M246.041 150.25L223.972 149.971" stroke="black"/>
<path d="M211.69 154.718L254.42 155.277M206.384 158.628L259.446 160.583" stroke="black"/>
<path d="M204.15 161.421L263.095 165.052" stroke="black"/>
<path d="M265.859 170.637L200.799 167.844" stroke="black"/>
<line x1="266.991" y1="173.651" x2="199.408" y2="174.271" stroke="black"/>
<line x1="269.225" y1="179.795" x2="198.848" y2="180.362" stroke="black"/>
<path d="M224.816 137.124L246.6 137.403L246.041 142.43L224.537 141.872L224.816 137.124Z" fill="#F15A24"/>
<path d="M224.537 145.223L245.762 146.899V149.971L224.258 149.691L224.537 145.223Z" fill="#F15A24"/>
<path d="M211.97 154.998L254.42 155.556L254.726 155.801C256.378 157.123 257.869 158.634 259.167 160.304V160.304L207.222 158.349L209.736 156.394L211.97 154.998Z" fill="#F15A24"/>
<path d="M204.429 161.7L262.798 165.331V165.331C263.54 166.258 264.167 167.272 264.664 168.351L265.591 170.358L200.799 167.565V167.565C201.726 165.525 202.903 163.608 204.303 161.858L204.429 161.7Z" fill="#F15A24"/>
<path d="M199.123 174.268L266.708 173.709L267.545 175.664L268.662 179.295L199.123 179.853V179.853C198.577 178.214 198.528 176.45 198.982 174.784L199.123 174.268Z" fill="#F15A24"/>
<path d="M246.32 142.43L246.6 137.403L224.537 137.124L224.258 141.872" stroke="#F15A24"/>
<path d="M126.791 336.526H77.5758C65.4256 336.526 55.5758 326.677 55.5758 314.526L55.5758 211.411C55.5758 206.013 59.9521 201.637 65.3504 201.637V201.637" stroke="#00DBE9" stroke-width="3"/>
<path d="M337.923 336.806H387.417C399.567 336.806 409.417 326.956 409.417 314.806V211.45C409.417 206.03 405.024 201.637 399.604 201.637V201.637" stroke="#00DBE9" stroke-width="3"/>
<line x1="230.857" y1="255.819" x2="230.857" y2="194.934" stroke="#00DBE9" stroke-width="3"/>
<path d="M280.906 318.636L176.504 318.636L177.126 336.616C177.422 345.169 178.774 353.653 181.151 361.875C183.078 368.543 185.607 375.022 188.705 381.232L191.652 387.14C193.65 391.145 195.938 394.998 198.498 398.668L199.686 400.372C201.452 402.905 203.491 405.238 205.765 407.328L207.231 408.675C209.848 411.081 212.937 412.916 216.301 414.064L218.158 414.698C226.487 417.541 235.684 416.052 242.69 410.727L246.84 407.458C250.822 404.322 254.452 400.763 257.665 396.844L262.239 391.264L263.185 389.593C267.654 381.701 271.214 373.327 273.796 364.633L274.44 362.464C277.106 353.489 278.83 344.261 279.586 334.93L280.906 318.636Z" fill="#E1E0E0" stroke="#E1E0E0" stroke-width="2"/>
<path d="M280.459 328.109C280.459 332.028 280.073 334.766 279.374 336.584C278.682 338.381 277.711 339.223 276.533 339.486C275.305 339.76 273.734 339.436 271.8 338.603C269.878 337.776 267.679 336.484 265.226 334.929C264.008 334.157 262.73 333.321 261.398 332.45C257.383 329.826 252.874 326.877 248.037 324.375C241.587 321.037 234.493 318.457 227.09 318.457C219.686 318.457 212.725 321.038 206.474 324.378C201.629 326.966 197.177 330.029 193.269 332.719C192.139 333.496 191.056 334.241 190.021 334.936C187.701 336.491 185.637 337.782 183.842 338.608C182.032 339.441 180.588 339.757 179.473 339.488C178.409 339.232 177.513 338.406 176.873 336.597C176.228 334.774 175.876 332.03 175.876 328.109C175.876 296.833 199.323 271.546 228.167 271.546C257.011 271.546 280.459 296.833 280.459 328.109Z" fill="#E1E0E0" stroke="#E1E0E0"/>
<path d="M245.262 373.67C245.262 384.848 236.944 393.836 226.771 393.836C216.598 393.836 208.281 384.848 208.281 373.67C208.281 362.492 216.598 353.504 226.771 353.504C236.944 353.504 245.262 362.492 245.262 373.67Z" fill="#231F20" stroke="#231F20"/>
<path d="M196.962 309.392L261.244 309.392C258.839 295.906 248.177 285.409 234.654 283.217L231.077 282.637C229.886 282.444 228.677 282.389 227.474 282.473L226.187 282.563C212.329 283.528 200.716 293.406 197.541 306.93L196.962 309.392Z" fill="#231F20" stroke="#231F20"/>
<path d="M176.65 329.023C176.65 330.048 176.737 330.933 176.809 331.666C176.812 331.704 176.816 331.742 176.82 331.78C176.896 332.559 176.94 333.104 176.875 333.512C176.844 333.704 176.792 333.84 176.723 333.943C176.657 334.043 176.559 334.135 176.399 334.216C176.055 334.392 175.457 334.505 174.412 334.505C170.451 334.505 167.246 331.317 167.246 327.391C167.246 323.465 170.451 320.277 174.412 320.277C175.365 320.277 175.908 320.555 176.244 320.953C176.6 321.374 176.796 322.011 176.87 322.866C176.944 323.715 176.893 324.703 176.819 325.769C176.807 325.932 176.795 326.097 176.783 326.263C176.718 327.17 176.65 328.115 176.65 329.023Z" fill="#ACACAC" stroke="#ACACAC"/>
<line x1="169.463" y1="331.673" x2="164.082" y2="351.045" stroke="#ACACAC"/>
<path d="M171.672 333.154L167.905 352.526" stroke="#ACACAC"/>
<circle cx="164.716" cy="356.325" r="5.08374" fill="#C4C4C4" stroke="#ACACAC"/>
<line x1="161.948" y1="360.614" x2="160.871" y2="392.9" stroke="#ACACAC"/>
<line x1="165.216" y1="361.909" x2="165.216" y2="392.873" stroke="#ACACAC"/>
<path d="M291.119 327.899C291.119 331.561 288.24 334.505 284.72 334.505C283.839 334.505 283.153 334.322 282.616 334.013C282.079 333.705 281.662 333.256 281.34 332.68C280.686 331.509 280.444 329.839 280.444 327.899C280.444 325.958 280.686 324.288 281.34 323.117C281.662 322.541 282.079 322.092 282.616 321.784C283.153 321.475 283.839 321.292 284.72 321.292C288.24 321.292 291.119 324.236 291.119 327.899Z" fill="#ACACAC" stroke="#ACACAC"/>
<line x1="286.774" y1="334.654" x2="291.079" y2="352.949" stroke="#ACACAC"/>
<line x1="288.911" y1="333.526" x2="295.369" y2="351.821" stroke="#ACACAC"/>
<path d="M298.733 356.325C298.733 359.155 296.549 361.409 293.903 361.409C291.258 361.409 289.073 359.155 289.073 356.325C289.073 353.495 291.258 351.241 293.903 351.241C296.549 351.241 298.733 353.495 298.733 356.325Z" fill="#ACACAC" stroke="#ACACAC"/>
<circle cx="275.122" cy="323.584" r="2.29187" fill="#231F20" stroke="#231F20"/>
<circle cx="226.645" cy="409.624" r="2.03807" fill="#231F20" stroke="#231F20"/>
<path d="M184.52 323.584C184.52 324.895 183.564 325.876 182.482 325.876C181.4 325.876 180.444 324.895 180.444 323.584C180.444 322.272 181.4 321.292 182.482 321.292C183.564 321.292 184.52 322.272 184.52 323.584Z" fill="#C4C4C4" stroke="#ACACAC"/>
<line x1="292.119" y1="360.386" x2="292.119" y2="392.873" stroke="#ACACAC"/>
<line x1="295.165" y1="360.386" x2="295.165" y2="392.873" stroke="#ACACAC"/>
<path d="M300.772 398.011C301.391 399.491 301.559 401.121 301.252 402.695C301.166 403.141 300.98 403.394 300.792 403.529C300.603 403.665 300.361 403.717 300.09 403.672C299.54 403.579 298.899 403.073 298.675 402.165L298.023 399.523C296.798 394.56 289.732 394.589 288.548 399.562L287.917 402.209C287.701 403.119 287.065 403.631 286.515 403.728C286.245 403.776 286.002 403.725 285.812 403.591C285.623 403.457 285.435 403.206 285.345 402.761C285.025 401.189 285.179 399.558 285.787 398.073C286.395 396.589 287.429 395.318 288.759 394.421C290.089 393.525 291.655 393.043 293.259 393.036C294.863 393.03 296.432 393.499 297.77 394.384C299.107 395.27 300.152 396.532 300.772 398.011Z" fill="#C4C4C4" stroke="#ACACAC"/>
<path d="M170.551 398.011C171.171 399.491 171.338 401.121 171.032 402.695C170.945 403.141 170.76 403.394 170.572 403.529C170.382 403.665 170.14 403.717 169.869 403.672C169.319 403.579 168.679 403.073 168.455 402.165L167.803 399.523C166.578 394.56 159.511 394.589 158.327 399.562L157.697 402.209C157.48 403.119 156.844 403.631 156.295 403.728C156.024 403.776 155.782 403.725 155.591 403.591C155.402 403.457 155.215 403.206 155.124 402.761C154.805 401.189 154.959 399.558 155.566 398.073C156.174 396.589 157.208 395.318 158.538 394.421C159.868 393.525 161.434 393.043 163.038 393.036C164.642 393.03 166.212 393.499 167.549 394.384C168.886 395.27 169.931 396.532 170.551 398.011Z" fill="#C4C4C4" stroke="#ACACAC"/>
<path d="M280.906 318.636L176.504 318.636L177.126 336.616C177.422 345.169 178.774 353.653 181.151 361.875C183.078 368.543 185.607 375.022 188.705 381.232L191.652 387.14C193.65 391.145 195.938 394.998 198.498 398.668L199.686 400.372C201.452 402.905 203.491 405.238 205.765 407.328L207.231 408.675C209.848 411.081 212.937 412.916 216.301 414.064L218.158 414.698C226.487 417.541 235.684 416.052 242.69 410.727L246.84 407.458C250.822 404.322 254.452 400.763 257.665 396.844L262.239 391.264L263.185 389.593C267.654 381.701 271.214 373.327 273.796 364.633L274.44 362.464C277.106 353.489 278.83 344.261 279.586 334.93L280.906 318.636Z" fill="#E1E0E0" stroke="#E1E0E0" stroke-width="2"/>
<path d="M280.459 328.109C280.459 332.028 280.073 334.766 279.374 336.584C278.682 338.381 277.711 339.223 276.533 339.486C275.305 339.76 273.734 339.436 271.8 338.603C269.878 337.776 267.679 336.484 265.226 334.929C264.008 334.157 262.73 333.321 261.398 332.45C257.383 329.826 252.874 326.877 248.037 324.375C241.587 321.037 234.493 318.457 227.09 318.457C219.686 318.457 212.725 321.038 206.474 324.378C201.629 326.966 197.177 330.029 193.269 332.719C192.139 333.496 191.056 334.241 190.021 334.936C187.701 336.491 185.637 337.782 183.842 338.608C182.032 339.441 180.588 339.757 179.473 339.488C178.409 339.232 177.513 338.406 176.873 336.597C176.228 334.774 175.876 332.03 175.876 328.109C175.876 296.833 199.323 271.546 228.167 271.546C257.011 271.546 280.459 296.833 280.459 328.109Z" fill="#E1E0E0" stroke="#E1E0E0"/>
<path d="M245.262 373.67C245.262 384.848 236.944 393.836 226.771 393.836C216.598 393.836 208.281 384.848 208.281 373.67C208.281 362.492 216.598 353.504 226.771 353.504C236.944 353.504 245.262 362.492 245.262 373.67Z" fill="#231F20" stroke="#231F20"/>
<path d="M196.962 309.392L261.244 309.392C258.839 295.906 248.177 285.409 234.654 283.217L231.077 282.637C229.886 282.444 228.677 282.389 227.474 282.473L226.187 282.563C212.329 283.528 200.716 293.406 197.541 306.93L196.962 309.392Z" fill="#231F20" stroke="#231F20"/>
<path d="M176.65 329.023C176.65 330.048 176.737 330.933 176.809 331.666C176.812 331.704 176.816 331.742 176.82 331.78C176.896 332.559 176.94 333.104 176.875 333.512C176.844 333.704 176.792 333.84 176.723 333.943C176.657 334.043 176.559 334.135 176.399 334.216C176.055 334.392 175.457 334.505 174.412 334.505C170.451 334.505 167.246 331.317 167.246 327.391C167.246 323.465 170.451 320.277 174.412 320.277C175.365 320.277 175.908 320.555 176.244 320.953C176.6 321.374 176.796 322.011 176.87 322.866C176.944 323.715 176.893 324.703 176.819 325.769C176.807 325.932 176.795 326.097 176.783 326.263C176.718 327.17 176.65 328.115 176.65 329.023Z" fill="#ACACAC" stroke="#ACACAC"/>
<line x1="169.463" y1="331.673" x2="164.082" y2="351.045" stroke="#ACACAC"/>
<path d="M171.672 333.154L167.905 352.526" stroke="#ACACAC"/>
<circle cx="164.716" cy="356.325" r="5.08374" fill="#C4C4C4" stroke="#ACACAC"/>
<line x1="161.948" y1="360.614" x2="160.871" y2="392.9" stroke="#ACACAC"/>
<line x1="165.216" y1="361.909" x2="165.216" y2="392.873" stroke="#ACACAC"/>
<path d="M291.119 327.899C291.119 331.561 288.24 334.505 284.72 334.505C283.839 334.505 283.153 334.322 282.616 334.013C282.079 333.705 281.662 333.256 281.34 332.68C280.686 331.509 280.444 329.839 280.444 327.899C280.444 325.958 280.686 324.288 281.34 323.117C281.662 322.541 282.079 322.092 282.616 321.784C283.153 321.475 283.839 321.292 284.72 321.292C288.24 321.292 291.119 324.236 291.119 327.899Z" fill="#ACACAC" stroke="#ACACAC"/>
<line x1="286.774" y1="334.654" x2="291.079" y2="352.949" stroke="#ACACAC"/>
<line x1="288.911" y1="333.526" x2="295.369" y2="351.821" stroke="#ACACAC"/>
<path d="M298.733 356.325C298.733 359.155 296.549 361.409 293.903 361.409C291.258 361.409 289.073 359.155 289.073 356.325C289.073 353.495 291.258 351.241 293.903 351.241C296.549 351.241 298.733 353.495 298.733 356.325Z" fill="#ACACAC" stroke="#ACACAC"/>
<circle cx="275.122" cy="323.584" r="2.29187" fill="#231F20" stroke="#231F20"/>
<circle cx="226.645" cy="409.624" r="2.03807" fill="#231F20" stroke="#231F20"/>
<path d="M184.52 323.584C184.52 324.895 183.564 325.876 182.482 325.876C181.4 325.876 180.444 324.895 180.444 323.584C180.444 322.272 181.4 321.292 182.482 321.292C183.564 321.292 184.52 322.272 184.52 323.584Z" fill="#C4C4C4" stroke="#ACACAC"/>
<line x1="292.119" y1="360.386" x2="292.119" y2="392.873" stroke="#ACACAC"/>
<line x1="295.165" y1="360.386" x2="295.165" y2="392.873" stroke="#ACACAC"/>
<path d="M300.772 398.011C301.391 399.491 301.559 401.121 301.252 402.695C301.166 403.141 300.98 403.394 300.792 403.529C300.603 403.665 300.361 403.717 300.09 403.672C299.54 403.579 298.899 403.073 298.675 402.165L298.023 399.523C296.798 394.56 289.732 394.589 288.548 399.562L287.917 402.209C287.701 403.119 287.065 403.631 286.515 403.728C286.245 403.776 286.002 403.725 285.812 403.591C285.623 403.457 285.435 403.206 285.345 402.761C285.025 401.189 285.179 399.558 285.787 398.073C286.395 396.589 287.429 395.318 288.759 394.421C290.089 393.525 291.655 393.043 293.259 393.036C294.863 393.03 296.432 393.499 297.77 394.384C299.107 395.27 300.152 396.532 300.772 398.011Z" fill="#C4C4C4" stroke="#ACACAC"/>
<path d="M170.551 398.011C171.171 399.491 171.338 401.121 171.032 402.695C170.945 403.141 170.76 403.394 170.572 403.529C170.382 403.665 170.14 403.717 169.869 403.672C169.319 403.579 168.679 403.073 168.455 402.165L167.803 399.523C166.578 394.56 159.511 394.589 158.327 399.562L157.697 402.209C157.48 403.119 156.844 403.631 156.295 403.728C156.024 403.776 155.782 403.725 155.591 403.591C155.402 403.457 155.215 403.206 155.124 402.761C154.805 401.189 154.959 399.558 155.566 398.073C156.174 396.589 157.208 395.318 158.538 394.421C159.868 393.525 161.434 393.043 163.038 393.036C164.642 393.03 166.212 393.499 167.549 394.384C168.886 395.27 169.931 396.532 170.551 398.011Z" fill="#C4C4C4" stroke="#ACACAC"/>
<circle cx="241.573" cy="297.986" r="4.74767" fill="#00DBE9"/>
<circle cx="216.997" cy="297.986" r="4.74767" fill="#00DBE9"/>
<path d="M253.733 325.06L256.374 321.166C239.511 332.526 217.161 331.816 200.948 319.546C205.729 329.946 215.588 337.099 226.958 338.417L228.184 338.559C238.414 338.585 247.989 333.527 253.733 325.06Z" fill="white" stroke="white"/>
<path d="M405.378 137.825L405.243 130.422L406.047 130.616C411.567 131.955 417.335 131.888 422.822 130.422V140.475L422.445 141.471C420.929 145.466 416.572 147.597 412.489 146.34C408.413 145.525 405.453 141.981 405.378 137.825Z" fill="#F8BA77" stroke="#F8BA77"/>
</svg>
