<svg width="525" height="507" viewBox="0 0 525 507" fill="none" xmlns="http://www.w3.org/2000/svg">
<g filter="url(#filter0_d_12_7)">
<rect x="1" y="73.5263" width="337" height="431" rx="32" transform="rotate(-6.39859 1 73.5263)" fill="#EFFF8B"/>
</g>
<g filter="url(#filter1_d_12_7)">
<rect x="71.0183" y="33.9695" width="337" height="431" rx="32" transform="rotate(1.06599 71.0183 33.9695)" fill="#D2FFEC"/>
</g>
<g filter="url(#filter2_d_12_7)">
<rect x="198.779" width="337" height="431" rx="32" transform="rotate(15.0319 198.779 0)" fill="white"/>
</g>
<rect x="183.449" y="168.43" width="280" height="34" rx="17" transform="rotate(15.0319 183.449 168.43)" fill="#D9DBE9"/>
<path d="M196.898 195.856C196.856 195.651 196.869 195.308 196.937 194.829C196.003 195.391 195.03 195.536 194.017 195.264C193.112 195.021 192.436 194.567 191.99 193.901C191.551 193.231 191.437 192.503 191.648 191.716C191.905 190.76 192.466 190.116 193.332 189.784C194.205 189.448 195.301 189.457 196.619 189.811L198.147 190.221L198.341 189.5C198.488 188.951 198.441 188.471 198.199 188.061C197.959 187.644 197.52 187.35 196.88 187.178C196.32 187.028 195.812 187.043 195.357 187.224C194.902 187.406 194.62 187.697 194.513 188.099L192.934 187.675C193.057 187.216 193.337 186.818 193.773 186.481C194.217 186.139 194.749 185.918 195.371 185.818C195.998 185.719 196.645 185.759 197.313 185.939C198.371 186.223 199.129 186.712 199.586 187.405C200.044 188.092 200.16 188.903 199.934 189.837L198.799 194.064C198.572 194.907 198.5 195.607 198.581 196.162L198.544 196.298L196.898 195.856ZM194.613 193.959C195.106 194.091 195.607 194.09 196.116 193.953C196.626 193.817 197.035 193.572 197.342 193.218L197.848 191.333L196.618 191.003C194.693 190.486 193.58 190.791 193.278 191.917C193.146 192.409 193.206 192.838 193.46 193.204C193.714 193.569 194.098 193.821 194.613 193.959ZM205.632 192.914C205.294 194.176 204.801 195.342 204.156 196.413C203.518 197.479 202.725 198.41 201.777 199.205C200.835 200.001 199.935 200.506 199.077 200.718L199.004 199.67C200.055 199.237 201.032 198.389 201.935 197.127C202.845 195.86 203.536 194.372 204.008 192.66L204.081 192.388C204.4 191.2 204.572 190.063 204.596 188.978C204.623 187.886 204.521 186.876 204.291 185.947C204.067 185.019 203.738 184.255 203.305 183.653L203.894 182.783C204.53 183.396 205.055 184.277 205.468 185.426C205.888 186.576 206.108 187.779 206.128 189.034C206.155 190.291 205.99 191.584 205.632 192.914ZM209.902 194.161L208.603 198.999L206.973 198.562L210.292 186.203L214.851 187.427C216.203 187.79 217.169 188.419 217.747 189.315C218.331 190.212 218.471 191.229 218.165 192.367C217.843 193.566 217.218 194.39 216.291 194.839C215.371 195.284 214.212 195.318 212.814 194.943L209.902 194.161ZM210.26 192.828L213.189 193.615C214.06 193.849 214.783 193.824 215.356 193.542C215.931 193.253 216.323 192.721 216.531 191.946C216.728 191.21 216.654 190.559 216.309 189.993C215.964 189.427 215.388 189.027 214.584 188.793L211.562 187.982L210.26 192.828ZM219.4 201.899L217.83 201.477L221.331 188.439L222.902 188.861L219.4 201.899ZM227.592 204.099C227.55 203.893 227.563 203.551 227.631 203.072C226.697 203.634 225.724 203.779 224.711 203.507C223.805 203.264 223.13 202.809 222.684 202.144C222.245 201.474 222.131 200.745 222.342 199.959C222.599 199.002 223.16 198.358 224.026 198.027C224.899 197.691 225.994 197.7 227.313 198.054L228.841 198.464L229.034 197.743C229.182 197.194 229.135 196.714 228.893 196.303C228.653 195.887 228.213 195.593 227.574 195.421C227.014 195.271 226.506 195.286 226.051 195.467C225.596 195.648 225.314 195.94 225.206 196.341L223.627 195.917C223.751 195.459 224.03 195.061 224.467 194.723C224.911 194.381 225.443 194.16 226.065 194.06C226.692 193.962 227.339 194.002 228.007 194.181C229.065 194.466 229.823 194.954 230.28 195.647C230.738 196.335 230.854 197.145 230.628 198.079L229.492 202.307C229.266 203.15 229.193 203.849 229.275 204.405L229.238 204.541L227.592 204.099ZM225.307 202.202C225.799 202.334 226.3 202.332 226.81 202.196C227.32 202.06 227.729 201.815 228.036 201.461L228.542 199.576L227.311 199.246C225.387 198.729 224.274 199.034 223.972 200.16C223.839 200.652 223.9 201.081 224.154 201.446C224.408 201.812 224.792 202.064 225.307 202.202ZM236.572 194.279L235.974 196.503L237.689 196.963L237.363 198.177L235.648 197.717L234.119 203.413C234.02 203.78 234.022 204.078 234.125 204.306C234.229 204.528 234.465 204.688 234.833 204.787C235.014 204.836 235.272 204.869 235.607 204.886L235.265 206.159C234.821 206.161 234.404 206.11 234.014 206.005C233.312 205.817 232.84 205.463 232.598 204.942C232.355 204.422 232.339 203.772 232.548 202.991L234.078 197.295L232.406 196.846L232.732 195.632L234.404 196.081L235.001 193.857L236.572 194.279ZM242.735 208.165C242.693 207.96 242.706 207.617 242.774 207.138C241.84 207.701 240.867 207.846 239.854 207.574C238.949 207.33 238.273 206.876 237.827 206.21C237.388 205.54 237.274 204.812 237.485 204.025C237.742 203.069 238.303 202.425 239.169 202.093C240.042 201.757 241.137 201.766 242.456 202.12L243.984 202.531L244.178 201.809C244.325 201.26 244.278 200.781 244.036 200.37C243.796 199.953 243.356 199.659 242.717 199.488C242.157 199.337 241.649 199.353 241.194 199.534C240.739 199.715 240.457 200.006 240.349 200.408L238.771 199.984C238.894 199.526 239.174 199.128 239.61 198.79C240.054 198.448 240.586 198.227 241.208 198.127C241.835 198.028 242.482 198.069 243.15 198.248C244.208 198.532 244.966 199.021 245.423 199.714C245.881 200.401 245.997 201.212 245.771 202.146L244.636 206.373C244.409 207.216 244.337 207.916 244.418 208.472L244.381 208.607L242.735 208.165ZM240.45 206.269C240.942 206.401 241.444 206.399 241.953 206.263C242.463 206.127 242.872 205.881 243.179 205.527L243.685 203.643L242.454 203.312C240.53 202.796 239.417 203.1 239.115 204.226C238.983 204.719 239.043 205.148 239.297 205.513C239.551 205.878 239.935 206.13 240.45 206.269ZM247.25 195.691C247.085 196.302 246.777 196.75 246.324 197.035C245.877 197.321 245.394 197.394 244.873 197.255C244.641 197.192 244.448 197.11 244.293 197.008C244.138 196.906 243.946 196.73 243.716 196.48C243.491 196.231 243.321 196.074 243.206 196.006C243.098 195.935 242.965 195.878 242.806 195.835C242.574 195.773 242.352 195.81 242.139 195.947C241.928 196.078 241.785 196.283 241.71 196.56L240.674 196.218C240.836 195.612 241.141 195.157 241.587 194.852C242.038 194.549 242.527 194.468 243.053 194.609C243.251 194.662 243.422 194.739 243.565 194.838C243.709 194.937 243.894 195.105 244.122 195.342C244.349 195.579 244.527 195.742 244.655 195.831C244.788 195.921 244.942 195.99 245.118 196.037C245.361 196.103 245.588 196.06 245.798 195.91C246.014 195.762 246.156 195.561 246.224 195.306L247.25 195.691ZM247.361 204.393C247.602 203.493 247.995 202.731 248.539 202.107C249.088 201.484 249.729 201.061 250.462 200.84C251.201 200.619 251.975 200.618 252.784 200.835C254.035 201.171 254.929 201.875 255.466 202.948C256.009 204.022 256.087 205.277 255.701 206.715L255.671 206.825C255.431 207.719 255.043 208.476 254.506 209.097C253.977 209.713 253.339 210.133 252.593 210.358C251.853 210.584 251.07 210.586 250.244 210.364C248.999 210.029 248.105 209.325 247.562 208.251C247.025 207.179 246.948 205.929 247.331 204.503L247.361 204.393ZM248.889 205.004C248.616 206.022 248.631 206.903 248.935 207.646C249.245 208.391 249.796 208.869 250.588 209.082C251.386 209.296 252.103 209.155 252.74 208.659C253.378 208.157 253.849 207.343 254.151 206.217C254.422 205.209 254.4 204.33 254.086 203.578C253.78 202.823 253.23 202.338 252.438 202.125C251.663 201.917 250.954 202.058 250.313 202.547C249.672 203.036 249.198 203.855 248.889 205.004Z" fill="black"/>
<rect x="170.481" y="216.719" width="280" height="35" rx="17.5" transform="rotate(15.0319 170.481 216.719)" fill="#D9DBE9"/>
<rect x="157.867" y="265.62" width="279" height="34" rx="17" transform="rotate(15.0319 157.867 265.62)" fill="#A4FFA3" stroke="#27AE60"/>
<rect x="144.546" y="313.297" width="280" height="35" rx="17.5" transform="rotate(15.0319 144.546 313.297)" fill="#D9DBE9"/>
<path d="M210.597 73.2122L215.022 56.7336L220.092 58.0952C221.541 58.4842 222.747 59.1599 223.71 60.1223C224.683 61.0792 225.327 62.2473 225.645 63.6268C225.964 64.9987 225.918 66.4505 225.506 67.9822L225.303 68.7405C224.891 70.2721 224.209 71.5489 223.255 72.5709C222.308 73.5948 221.174 74.281 219.851 74.6295C218.527 74.9779 217.144 74.9624 215.701 74.583L210.597 73.2122ZM217.679 60.3956L214.725 71.3964L216.366 71.8371C217.694 72.1937 218.825 72.0324 219.76 71.3532C220.694 70.6739 221.386 69.529 221.835 67.9184L222.069 67.0469C222.519 65.3719 222.512 64.0111 222.049 62.9645C221.588 61.9104 220.689 61.204 219.354 60.8454L217.679 60.3956ZM231.032 78.9428C229.237 78.4606 227.921 77.5167 227.085 76.1111C226.256 74.7076 226.088 73.0891 226.581 71.2557L226.666 70.9388C226.996 69.7089 227.529 68.6749 228.263 67.8368C229 66.9911 229.872 66.4245 230.88 66.1369C231.897 65.8438 232.964 65.8471 234.08 66.147C235.755 66.5968 236.93 67.4786 237.605 68.7922C238.287 70.1079 238.368 71.7353 237.847 73.6744L237.488 75.0099L229.69 72.9158C229.581 73.744 229.726 74.4704 230.124 75.0951C230.53 75.7219 231.141 76.1447 231.956 76.3635C233.216 76.7019 234.323 76.5098 235.277 75.7873L236.401 78.0184C235.724 78.5809 234.914 78.9458 233.972 79.1133C233.031 79.2732 232.051 79.2163 231.032 78.9428ZM233.358 68.7923C232.709 68.6181 232.122 68.695 231.597 69.0233C231.08 69.3535 230.655 69.9108 230.323 70.6953L234.873 71.9171L234.943 71.6568C235.122 70.9284 235.076 70.3174 234.804 69.8238C234.534 69.3225 234.052 68.9787 233.358 68.7923ZM244.934 75.7476C245.451 73.8236 246.286 72.4177 247.438 71.53C248.598 70.6443 249.925 70.4021 251.419 70.8033C252.732 71.1558 253.642 71.9382 254.15 73.1504L254.708 71.9293L257.583 72.7012L253.03 89.6552L249.748 88.7738L251.295 83.0131C250.312 83.6631 249.209 83.824 247.986 83.4957C246.53 83.1046 245.52 82.2267 244.956 80.8619C244.393 79.4971 244.385 77.7924 244.934 75.7476ZM248.141 76.8637C247.827 78.0332 247.792 78.9782 248.035 79.6988C248.286 80.4214 248.785 80.883 249.532 81.0836C250.536 81.3531 251.352 81.1436 251.982 80.4553L253.341 75.3963C253.14 74.5172 252.541 73.944 251.546 73.6765C250.791 73.4739 250.124 73.6225 249.545 74.1222C248.966 74.6219 248.498 75.5357 248.141 76.8637ZM264.543 86.3646C263.473 87.1286 262.224 87.3192 260.798 86.9362C259.485 86.5837 258.583 85.9369 258.092 84.996C257.608 84.0571 257.554 82.8575 257.93 81.3972L260.084 73.3729L263.355 74.2513L261.231 82.1624C260.888 83.4376 261.298 84.2311 262.46 84.5432C263.569 84.841 264.435 84.6609 265.056 84.0027L267.384 75.3333L270.667 76.2147L267.378 88.4605L264.3 87.6338L264.543 86.3646ZM275.421 90.863C273.625 90.3808 272.309 89.4369 271.473 88.0314C270.645 86.6279 270.477 85.0094 270.969 83.1759L271.054 82.859C271.384 81.6292 271.917 80.5952 272.652 79.757C273.388 78.9114 274.26 78.3447 275.268 78.0571C276.285 77.764 277.352 77.7674 278.469 78.0673C280.144 78.5171 281.318 79.3988 281.993 80.7125C282.675 82.0281 282.756 83.6555 282.235 85.5947L281.876 86.9301L274.079 84.836C273.969 85.6642 274.114 86.3906 274.513 87.0154C274.919 87.6421 275.529 88.0649 276.344 88.2837C277.604 88.6221 278.711 88.4301 279.666 87.7076L280.789 89.9387C280.113 90.5011 279.303 90.8661 278.36 91.0335C277.419 91.1934 276.439 91.1366 275.421 90.863ZM277.746 80.7126C277.097 80.5383 276.51 80.6153 275.985 80.9435C275.468 81.2737 275.043 81.8311 274.711 82.6156L279.261 83.8374L279.331 83.5771C279.51 82.8487 279.464 82.2377 279.192 81.744C278.922 81.2428 278.44 80.899 277.746 80.7126ZM288.741 81.0685L288.475 82.4653C289.628 81.6345 290.945 81.4176 292.423 81.8147C294 82.2382 294.916 83.1515 295.17 84.5545C296.365 83.5405 297.758 83.2473 299.35 83.6748C300.678 84.0314 301.562 84.6854 302.002 85.6369C302.444 86.5807 302.457 87.8298 302.039 89.3841L299.939 97.2047L296.657 96.3233L298.754 88.514C298.941 87.8199 298.94 87.2779 298.754 86.888C298.569 86.4906 298.134 86.1997 297.447 86.0154C296.466 85.752 295.662 86.0374 295.033 86.8717L292.786 95.2838L289.515 94.4054L291.61 86.6075C291.8 85.8983 291.798 85.3477 291.604 84.9558C291.41 84.564 290.977 84.2779 290.306 84.0975C289.378 83.8483 288.603 84.0528 287.981 84.711L285.656 93.369L282.385 92.4907L285.674 80.2449L288.741 81.0685ZM313.811 101.172C312.015 100.69 310.699 99.7463 309.863 98.3408C309.035 96.9373 308.867 95.3188 309.359 93.4853L309.444 93.1684C309.774 91.9386 310.307 90.9046 311.041 90.0664C311.778 89.2208 312.65 88.6541 313.658 88.3665C314.675 88.0734 315.742 88.0768 316.858 88.3767C318.533 88.8265 319.708 89.7082 320.383 91.0219C321.065 92.3376 321.146 93.9649 320.625 95.9041L320.266 97.2395L312.468 95.1455C312.359 95.9736 312.504 96.7 312.902 97.3248C313.308 97.9515 313.919 98.3743 314.734 98.5931C315.994 98.9315 317.101 98.7395 318.055 98.017L319.179 100.248C318.502 100.811 317.693 101.175 316.75 101.343C315.809 101.503 314.829 101.446 313.811 101.172ZM316.136 91.022C315.487 90.8477 314.9 90.9247 314.375 91.2529C313.858 91.5831 313.433 92.1405 313.101 92.925L317.651 94.1468L317.721 93.8865C317.9 93.1581 317.854 92.5471 317.582 92.0534C317.312 91.5522 316.83 91.2084 316.136 91.022ZM318.46 83.5407L322.026 84.4981L317.948 87.1647L315.289 86.4505L318.46 83.5407ZM333.643 106.256C333.572 105.921 333.56 105.526 333.61 105.07C332.581 105.74 331.432 105.905 330.165 105.564C328.965 105.242 328.062 104.628 327.456 103.721C326.858 102.816 326.701 101.835 326.984 100.779C327.333 99.4811 328.08 98.6138 329.224 98.177C330.376 97.7422 331.863 97.7651 333.683 98.2459L335.188 98.6501L335.377 97.9484C335.529 97.3826 335.503 96.8903 335.3 96.4718C335.105 96.0552 334.694 95.7629 334.067 95.5947C333.517 95.4468 333.047 95.4623 332.66 95.6413C332.279 95.8223 332.027 96.143 331.904 96.6032L328.633 95.7248C328.823 95.0156 329.218 94.4179 329.818 93.9318C330.418 93.4457 331.163 93.1403 332.054 93.0156C332.947 92.8833 333.892 92.9508 334.888 93.2183C336.397 93.6236 337.49 94.3257 338.168 95.3249C338.856 96.3185 339.016 97.5019 338.647 98.8751L337.221 104.183C336.917 105.347 336.843 106.27 337 106.951L336.948 107.143L333.643 106.256ZM331.549 103.255C332.032 103.384 332.506 103.398 332.97 103.296C333.436 103.187 333.816 102.977 334.109 102.668L334.675 100.563L333.452 100.235C331.815 99.7949 330.792 100.127 330.382 101.23L330.319 101.42C330.21 101.827 330.263 102.201 330.479 102.542C330.695 102.883 331.051 103.121 331.549 103.255ZM345.64 109.477L348.284 99.631L346.462 99.1417L347.107 96.7423L348.929 97.2317L349.208 96.1904C349.577 94.8172 350.255 93.8587 351.243 93.3149C352.239 92.7656 353.447 92.6814 354.866 93.0623C355.318 93.1839 355.853 93.4083 356.469 93.7355L355.754 96.2615C355.5 96.1207 355.178 95.9976 354.785 95.8922C353.555 95.5619 352.785 95.974 352.475 97.1284L352.211 98.1131L354.644 98.7665L354 101.166L351.567 100.512L348.922 110.359L345.64 109.477ZM360.15 113.374C360.078 113.039 360.067 112.644 360.116 112.188C359.087 112.858 357.938 113.023 356.671 112.682C355.471 112.36 354.568 111.746 353.963 110.839C353.364 109.934 353.207 108.953 353.491 107.897C353.839 106.599 354.586 105.732 355.73 105.295C356.883 104.86 358.369 104.883 360.189 105.364L361.695 105.768L361.883 105.067C362.035 104.501 362.009 104.008 361.806 103.59C361.611 103.173 361.2 102.881 360.574 102.713C360.023 102.565 359.554 102.58 359.166 102.759C358.785 102.94 358.534 103.261 358.41 103.721L355.139 102.843C355.33 102.134 355.725 101.536 356.324 101.05C356.924 100.564 357.669 100.258 358.56 100.134C359.453 100.001 360.398 100.069 361.394 100.336C362.903 100.742 363.996 101.444 364.675 102.443C365.362 103.437 365.522 104.62 365.153 105.993L363.728 111.301C363.423 112.465 363.349 113.388 363.506 114.069L363.454 114.261L360.15 113.374ZM358.056 110.373C358.538 110.502 359.012 110.516 359.476 110.414C359.942 110.305 360.322 110.096 360.616 109.786L361.181 107.681L359.959 107.353C358.321 106.913 357.298 107.245 356.888 108.348L356.825 108.538C356.716 108.945 356.769 109.319 356.985 109.66C357.201 110.001 357.558 110.239 358.056 110.373ZM371.836 103.383L371.57 104.78C372.723 103.949 374.04 103.732 375.518 104.129C377.095 104.553 378.011 105.466 378.265 106.869C379.46 105.855 380.853 105.562 382.445 105.99C383.773 106.346 384.657 107 385.097 107.952C385.539 108.895 385.552 110.145 385.134 111.699L383.034 119.519L379.752 118.638L381.849 110.829C382.035 110.135 382.035 109.593 381.849 109.203C381.664 108.805 381.229 108.514 380.542 108.33C379.561 108.067 378.757 108.352 378.128 109.186L375.881 117.599L372.61 116.72L374.705 108.922C374.895 108.213 374.893 107.662 374.699 107.271C374.505 106.879 374.072 106.593 373.401 106.412C372.473 106.163 371.698 106.368 371.076 107.026L368.751 115.684L365.48 114.805L368.769 102.56L371.836 103.383ZM386.723 113.824C387.05 112.61 387.574 111.59 388.297 110.765C389.02 109.94 389.889 109.384 390.905 109.099C391.927 108.815 393.019 108.829 394.181 109.141C395.834 109.585 397.045 110.452 397.815 111.743C398.592 113.036 398.808 114.566 398.462 116.334L398.26 117.177C397.756 119.056 396.826 120.424 395.471 121.282C394.119 122.132 392.559 122.32 390.794 121.846C389.028 121.372 387.769 120.427 387.017 119.012C386.272 117.598 386.161 115.918 386.684 113.971L386.723 113.824ZM389.93 114.94C389.618 116.102 389.598 117.051 389.869 117.788C390.143 118.516 390.687 118.99 391.502 119.209C392.294 119.422 392.994 119.286 393.601 118.802C394.211 118.31 394.695 117.397 395.053 116.061C395.359 114.922 395.374 113.979 395.097 113.234C394.82 112.488 394.278 112.007 393.47 111.79C392.67 111.575 391.968 111.722 391.362 112.231C390.758 112.732 390.281 113.635 389.93 114.94ZM406.205 122.114C406.312 121.714 406.196 121.347 405.857 121.013C405.528 120.674 404.95 120.296 404.123 119.88C401.375 118.487 400.251 116.858 400.751 114.995C401.043 113.908 401.735 113.123 402.828 112.64C403.93 112.152 405.209 112.103 406.665 112.494C408.219 112.911 409.362 113.61 410.094 114.591C410.833 115.575 411.045 116.651 410.731 117.82L407.46 116.942C407.586 116.474 407.538 116.049 407.318 115.666C407.099 115.276 406.669 114.994 406.027 114.822C405.477 114.674 405.017 114.684 404.648 114.852C404.28 115.02 404.044 115.297 403.94 115.681C403.843 116.043 403.934 116.383 404.212 116.701C404.501 117.013 405.03 117.361 405.8 117.746C406.573 118.123 407.211 118.489 407.714 118.843C409.272 119.94 409.841 121.27 409.422 122.832C409.122 123.949 408.399 124.725 407.255 125.162C406.112 125.592 404.783 125.603 403.266 125.195C402.24 124.92 401.376 124.493 400.673 123.917C399.98 123.334 399.492 122.665 399.21 121.91C398.929 121.147 398.888 120.396 399.087 119.656L402.188 120.489C402.062 121.078 402.158 121.581 402.475 121.998C402.791 122.415 403.285 122.713 403.957 122.893C404.583 123.062 405.086 123.071 405.466 122.922C405.855 122.768 406.102 122.499 406.205 122.114ZM417.689 128.826C417.617 128.491 417.606 128.096 417.656 127.64C416.626 128.31 415.478 128.475 414.21 128.134C413.011 127.812 412.108 127.198 411.502 126.291C410.904 125.386 410.746 124.405 411.03 123.349C411.379 122.051 412.125 121.184 413.27 120.747C414.422 120.312 415.908 120.335 417.729 120.816L419.234 121.22L419.422 120.518C419.574 119.953 419.549 119.46 419.346 119.042C419.15 118.625 418.739 118.333 418.113 118.165C417.562 118.017 417.093 118.032 416.705 118.211C416.325 118.392 416.073 118.713 415.949 119.173L412.679 118.295C412.869 117.586 413.264 116.988 413.864 116.502C414.464 116.016 415.209 115.71 416.1 115.586C416.993 115.453 417.937 115.521 418.933 115.788C420.442 116.194 421.536 116.896 422.214 117.895C422.902 118.889 423.061 120.072 422.692 121.445L421.267 126.753C420.963 127.917 420.889 128.84 421.046 129.521L420.994 129.713L417.689 128.826ZM415.595 125.825C416.078 125.954 416.551 125.968 417.016 125.866C417.482 125.757 417.862 125.547 418.155 125.238L418.72 123.133L417.498 122.805C415.861 122.365 414.837 122.697 414.428 123.8L414.365 123.99C414.255 124.397 414.309 124.771 414.524 125.112C414.74 125.453 415.097 125.691 415.595 125.825ZM204.014 100.436L206.658 90.59L204.836 90.1007L205.48 87.7013L207.302 88.1907L207.582 87.1494C207.951 85.7762 208.629 84.8177 209.616 84.2739C210.613 83.7246 211.821 83.6404 213.239 84.0213C213.692 84.1429 214.226 84.3673 214.842 84.6945L214.127 87.2205C213.874 87.0797 213.551 86.9566 213.159 86.8512C211.929 86.5209 211.159 86.933 210.849 88.0874L210.585 89.0721L213.018 89.7255L212.374 92.1249L209.94 91.4714L207.296 101.318L204.014 100.436ZM220.773 95.0964C220.344 94.9165 219.96 94.781 219.62 94.6898C218.383 94.3575 217.459 94.5584 216.85 95.2926L214.698 103.306L211.427 102.427L214.716 90.1814L217.805 91.0111L217.504 92.4955C218.462 91.5475 219.522 91.2295 220.684 91.5416C221.046 91.6388 221.373 91.7791 221.663 91.9623L220.773 95.0964ZM226.649 106.515C226.578 106.18 226.566 105.785 226.616 105.329C225.587 105.999 224.438 106.164 223.171 105.824C221.971 105.501 221.068 104.887 220.462 103.98C219.864 103.075 219.707 102.094 219.99 101.038C220.339 99.7404 221.086 98.8731 222.23 98.4363C223.382 98.0015 224.869 98.0245 226.689 98.5052L228.194 98.9095L228.383 98.2078C228.535 97.6419 228.509 97.1497 228.306 96.7311C228.111 96.3146 227.7 96.0222 227.073 95.854C226.523 95.7061 226.053 95.7217 225.666 95.9006C225.285 96.0817 225.033 96.4023 224.91 96.8625L221.639 95.9842C221.829 95.2749 222.224 94.6773 222.824 94.1912C223.424 93.7051 224.169 93.3996 225.06 93.2749C225.953 93.1426 226.898 93.2102 227.894 93.4776C229.403 93.8829 230.496 94.5851 231.174 95.5842C231.862 96.5778 232.022 97.7612 231.653 99.1344L230.227 104.442C229.923 105.606 229.849 106.529 230.006 107.21L229.954 107.403L226.649 106.515ZM224.555 103.514C225.038 103.644 225.512 103.657 225.976 103.556C226.442 103.446 226.822 103.237 227.115 102.927L227.681 100.822L226.458 100.494C224.821 100.054 223.798 100.386 223.388 101.49L223.325 101.679C223.216 102.086 223.269 102.461 223.485 102.802C223.7 103.143 224.057 103.38 224.555 103.514ZM239.521 106.344C239.628 105.944 239.513 105.577 239.173 105.243C238.844 104.904 238.266 104.526 237.439 104.11C234.691 102.717 233.567 101.088 234.067 99.2247C234.359 98.1382 235.051 97.3534 236.144 96.8702C237.246 96.3814 238.525 96.3326 239.981 96.7236C241.535 97.141 242.678 97.8403 243.41 98.8214C244.149 99.8045 244.361 100.881 244.047 102.05L240.776 101.172C240.902 100.704 240.854 100.279 240.634 99.896C240.415 99.5056 239.985 99.2243 239.344 99.0521C238.793 98.9041 238.333 98.9142 237.964 99.0821C237.596 99.25 237.36 99.5264 237.256 99.9112C237.159 100.273 237.25 100.613 237.529 100.931C237.817 101.243 238.346 101.591 239.117 101.976C239.889 102.353 240.527 102.719 241.03 103.072C242.588 104.17 243.157 105.5 242.738 107.062C242.438 108.179 241.716 108.955 240.571 109.392C239.428 109.821 238.099 109.832 236.582 109.425C235.556 109.15 234.692 108.723 233.989 108.146C233.296 107.564 232.808 106.895 232.526 106.14C232.245 105.377 232.205 104.626 232.403 103.886L235.504 104.719C235.378 105.308 235.474 105.811 235.791 106.228C236.107 106.644 236.602 106.943 237.273 107.123C237.899 107.291 238.402 107.301 238.782 107.152C239.171 106.998 239.418 106.728 239.521 106.344ZM249.484 112.89C247.689 112.408 246.373 111.464 245.537 110.058C244.708 108.655 244.54 107.036 245.033 105.203L245.118 104.886C245.448 103.656 245.981 102.622 246.715 101.784C247.452 100.938 248.324 100.372 249.332 100.084C250.349 99.791 251.416 99.7944 252.532 100.094C254.207 100.544 255.382 101.426 256.057 102.739C256.739 104.055 256.82 105.683 256.299 107.622L255.94 108.957L248.142 106.863C248.033 107.691 248.178 108.418 248.576 109.042C248.982 109.669 249.593 110.092 250.408 110.311C251.668 110.649 252.775 110.457 253.729 109.735L254.853 111.966C254.176 112.528 253.366 112.893 252.424 113.061C251.483 113.22 250.503 113.164 249.484 112.89ZM251.81 102.74C251.161 102.565 250.574 102.642 250.049 102.97C249.532 103.301 249.107 103.858 248.775 104.643L253.325 105.864L253.395 105.604C253.574 104.876 253.528 104.265 253.256 103.771C252.986 103.27 252.504 102.926 251.81 102.74ZM269.064 98.8551L270.363 100.163C269.439 101.014 268.823 101.965 268.517 103.016L268.009 104.906L265.418 104.21L265.874 102.512C266.064 101.803 266.463 101.101 267.07 100.407C267.687 99.7066 268.351 99.1895 269.064 98.8551ZM272.946 99.8975L274.245 101.205C273.321 102.057 272.705 103.008 272.399 104.058L271.891 105.948L269.3 105.252L269.756 103.555C269.946 102.845 270.345 102.144 270.952 101.449C271.569 100.749 272.233 100.232 272.946 99.8975ZM276.807 113.76L275.248 119.566L271.852 118.654L276.278 102.176L282.706 103.902C283.944 104.234 284.969 104.752 285.783 105.456C286.605 106.162 287.156 107.002 287.437 107.975C287.719 108.941 287.718 109.956 287.432 111.02C286.998 112.634 286.101 113.76 284.741 114.398C283.39 115.03 281.738 115.084 279.784 114.559L276.807 113.76ZM277.546 111.01L280.579 111.824C281.477 112.065 282.216 112.038 282.797 111.741C283.386 111.446 283.786 110.906 283.997 110.121C284.214 109.314 284.151 108.597 283.81 107.972C283.468 107.346 282.88 106.913 282.047 106.673L278.935 105.838L277.546 111.01ZM292.017 124.312C290.221 123.83 288.905 122.886 288.069 121.48C287.241 120.077 287.073 118.458 287.565 116.625L287.65 116.308C287.98 115.078 288.513 114.044 289.248 113.206C289.984 112.36 290.856 111.794 291.864 111.506C292.881 111.213 293.948 111.216 295.064 111.516C296.74 111.966 297.914 112.848 298.589 114.161C299.271 115.477 299.352 117.104 298.831 119.043L298.472 120.379L290.674 118.285C290.565 119.113 290.71 119.839 291.108 120.464C291.514 121.091 292.125 121.514 292.94 121.733C294.2 122.071 295.307 121.879 296.261 121.156L297.385 123.387C296.708 123.95 295.899 124.315 294.956 124.482C294.015 124.642 293.035 124.585 292.017 124.312ZM294.342 114.161C293.693 113.987 293.106 114.064 292.581 114.392C292.064 114.723 291.639 115.28 291.307 116.064L295.857 117.286L295.927 117.026C296.106 116.297 296.06 115.686 295.788 115.193C295.518 114.692 295.036 114.348 294.342 114.161ZM305.28 114.502L305.002 115.944C306.171 115.085 307.491 114.853 308.963 115.248C310.26 115.597 311.124 116.237 311.553 117.17C311.982 118.102 312.001 119.328 311.609 120.849L309.484 128.76L306.213 127.882L308.316 120.05C308.503 119.356 308.487 118.813 308.268 118.423C308.051 118.025 307.592 117.732 306.89 117.543C305.97 117.296 305.174 117.503 304.503 118.164L302.184 126.8L298.913 125.921L302.202 113.675L305.28 114.502ZM319.515 127.826C319.622 127.426 319.506 127.059 319.167 126.725C318.838 126.386 318.26 126.008 317.433 125.592C314.685 124.199 313.561 122.57 314.061 120.707C314.353 119.62 315.045 118.835 316.138 118.352C317.24 117.863 318.519 117.815 319.975 118.206C321.529 118.623 322.672 119.322 323.404 120.303C324.143 121.287 324.355 122.363 324.041 123.532L320.77 122.654C320.896 122.186 320.848 121.761 320.628 121.378C320.409 120.988 319.979 120.706 319.337 120.534C318.787 120.386 318.327 120.396 317.958 120.564C317.59 120.732 317.354 121.008 317.25 121.393C317.153 121.755 317.244 122.095 317.522 122.413C317.811 122.725 318.34 123.073 319.11 123.458C319.883 123.835 320.521 124.201 321.024 124.554C322.582 125.652 323.151 126.982 322.732 128.544C322.432 129.661 321.71 130.437 320.565 130.874C319.422 131.303 318.093 131.314 316.576 130.907C315.55 130.632 314.686 130.205 313.983 129.628C313.29 129.046 312.802 128.377 312.52 127.622C312.239 126.859 312.198 126.108 312.397 125.368L315.498 126.201C315.372 126.79 315.468 127.293 315.785 127.71C316.101 128.126 316.596 128.425 317.267 128.605C317.893 128.773 318.396 128.783 318.776 128.634C319.165 128.48 319.412 128.21 319.515 127.826ZM325.068 126.259C325.394 125.044 325.919 124.025 326.642 123.199C327.365 122.374 328.234 121.819 329.249 121.533C330.272 121.25 331.364 121.264 332.526 121.576C334.179 122.02 335.39 122.887 336.159 124.178C336.937 125.471 337.153 127.001 336.807 128.769L336.605 129.612C336.101 131.491 335.171 132.859 333.816 133.717C332.463 134.567 330.904 134.755 329.139 134.281C327.373 133.807 326.114 132.862 325.362 131.446C324.617 130.033 324.506 128.353 325.029 126.406L325.068 126.259ZM328.275 127.375C327.963 128.537 327.943 129.486 328.214 130.223C328.488 130.951 329.032 131.425 329.847 131.644C330.639 131.857 331.339 131.721 331.946 131.237C332.555 130.745 333.039 129.832 333.398 128.496C333.704 127.357 333.719 126.414 333.442 125.668C333.165 124.923 332.622 124.441 331.815 124.225C331.015 124.01 330.312 124.157 329.707 124.666C329.103 125.167 328.626 126.07 328.275 127.375ZM336.748 140.511L335.279 139.158L335.884 138.531C336.637 137.747 337.144 136.9 337.404 135.991L338.085 133.456L340.846 134.197L340.227 136.458C339.995 137.293 339.556 138.082 338.912 138.823C338.269 139.564 337.547 140.126 336.748 140.511ZM351.892 140.148L348.61 139.267L353.278 121.883L356.56 122.764L351.892 140.148ZM355.762 134.502C356.088 133.287 356.613 132.267 357.336 131.442C358.059 130.617 358.928 130.062 359.943 129.776C360.966 129.493 362.058 129.507 363.22 129.819C364.872 130.263 366.083 131.13 366.853 132.421C367.63 133.713 367.846 135.243 367.501 137.011L367.299 137.855C366.794 139.734 365.865 141.102 364.51 141.959C363.157 142.81 361.598 142.998 359.833 142.523C358.067 142.049 356.808 141.105 356.056 139.689C355.311 138.276 355.2 136.596 355.722 134.649L355.762 134.502ZM358.969 135.618C358.657 136.78 358.637 137.729 358.908 138.465C359.182 139.194 359.726 139.668 360.541 139.886C361.333 140.099 362.033 139.964 362.64 139.479C363.249 138.988 363.733 138.074 364.092 136.739C364.398 135.599 364.412 134.657 364.135 133.911C363.858 133.165 363.316 132.684 362.509 132.467C361.709 132.252 361.006 132.399 360.4 132.908C359.797 133.409 359.32 134.313 358.969 135.618ZM368.896 138.053C369.4 136.174 370.252 134.781 371.45 133.873C372.656 132.968 374.017 132.718 375.534 133.126C376.877 133.486 377.798 134.227 378.298 135.348L378.744 134.23L381.709 135.027L378.53 146.865C378.242 147.936 377.747 148.802 377.044 149.463C376.348 150.126 375.503 150.546 374.509 150.724C373.514 150.902 372.425 150.832 371.24 150.513C370.343 150.272 369.516 149.856 368.761 149.265C368.003 148.681 367.482 148.048 367.196 147.365L369.18 145.762C369.749 146.893 370.615 147.615 371.777 147.927C372.645 148.16 373.383 148.108 373.992 147.77C374.598 147.439 375.016 146.848 375.245 145.995L375.421 145.339C374.438 145.989 373.331 146.148 372.101 145.818C370.63 145.423 369.592 144.529 368.987 143.137C368.391 141.74 368.349 140.09 368.859 138.189L368.896 138.053ZM372.103 139.169C371.805 140.278 371.794 141.21 372.068 141.963C372.345 142.709 372.873 143.186 373.65 143.395C374.646 143.662 375.459 143.48 376.09 142.849L377.473 137.699C377.236 136.835 376.63 136.272 375.657 136.01C374.872 135.8 374.167 135.954 373.543 136.474C372.925 136.996 372.445 137.894 372.103 139.169ZM382.11 141.577C382.436 140.363 382.961 139.343 383.684 138.518C384.407 137.693 385.276 137.137 386.291 136.852C387.314 136.568 388.406 136.582 389.568 136.894C391.22 137.338 392.431 138.205 393.201 139.496C393.978 140.789 394.194 142.319 393.849 144.087L393.647 144.93C393.142 146.809 392.212 148.177 390.858 149.035C389.505 149.885 387.946 150.073 386.18 149.599C384.415 149.125 383.156 148.18 382.403 146.765C381.658 145.351 381.547 143.671 382.07 141.725L382.11 141.577ZM385.317 142.693C385.005 143.855 384.984 144.805 385.256 145.541C385.529 146.269 386.074 146.743 386.888 146.962C387.681 147.175 388.38 147.039 388.988 146.555C389.597 146.063 390.081 145.15 390.44 143.814C390.746 142.675 390.76 141.732 390.483 140.987C390.206 140.241 389.664 139.76 388.857 139.543C388.057 139.328 387.354 139.475 386.748 139.984C386.144 140.485 385.667 141.388 385.317 142.693ZM201.433 128.978C199.638 128.496 198.322 127.552 197.486 126.147C196.657 124.743 196.489 123.125 196.982 121.291L197.067 120.974C197.397 119.744 197.93 118.71 198.664 117.872C199.401 117.027 200.273 116.46 201.281 116.172C202.298 115.879 203.365 115.883 204.481 116.182C206.156 116.632 207.331 117.514 208.006 118.828C208.688 120.143 208.768 121.771 208.248 123.71L207.889 125.045L200.091 122.951C199.982 123.779 200.127 124.506 200.525 125.131C200.931 125.757 201.542 126.18 202.356 126.399C203.617 126.737 204.724 126.545 205.678 125.823L206.802 128.054C206.125 128.616 205.315 128.981 204.372 129.149C203.432 129.309 202.452 129.252 201.433 128.978ZM203.759 118.828C203.11 118.653 202.523 118.73 201.998 119.059C201.481 119.389 201.056 119.946 200.724 120.731L205.274 121.953L205.343 121.692C205.523 120.964 205.477 120.353 205.205 119.859C204.935 119.358 204.453 119.014 203.759 118.828ZM215.368 123.268L218.409 120.165L221.906 121.105L216.81 126.167L218.765 133.39L215.256 132.448L214.105 128.013L210.899 131.278L207.379 130.332L212.69 125.061L210.826 118.129L214.335 119.071L215.368 123.268ZM223.643 134.7L220.361 133.818L223.649 121.573L226.931 122.454L223.643 134.7ZM224.308 118.352C224.44 117.862 224.71 117.501 225.12 117.272C225.537 117.044 226.028 117.006 226.594 117.158C227.153 117.308 227.555 117.586 227.802 117.992C228.049 118.398 228.107 118.846 227.975 119.337C227.841 119.835 227.562 120.197 227.137 120.422C226.72 120.65 226.236 120.69 225.685 120.542C225.135 120.394 224.732 120.116 224.478 119.708C224.231 119.302 224.174 118.85 224.308 118.352ZM233.889 133.823C233.996 133.423 233.88 133.057 233.541 132.723C233.212 132.384 232.634 132.006 231.807 131.59C229.059 130.196 227.935 128.568 228.435 126.704C228.727 125.618 229.419 124.833 230.511 124.35C231.613 123.861 232.893 123.812 234.349 124.203C235.903 124.621 237.046 125.32 237.777 126.301C238.517 127.284 238.729 128.36 238.415 129.53L235.144 128.652C235.27 128.184 235.222 127.758 235.001 127.376C234.783 126.985 234.353 126.704 233.711 126.532C233.161 126.384 232.701 126.394 232.332 126.562C231.963 126.73 231.727 127.006 231.624 127.391C231.527 127.753 231.618 128.093 231.896 128.41C232.185 128.722 232.714 129.071 233.484 129.456C234.257 129.833 234.895 130.198 235.398 130.552C236.956 131.65 237.525 132.98 237.106 134.541C236.806 135.658 236.083 136.435 234.939 136.872C233.796 137.301 232.467 137.312 230.95 136.905C229.924 136.629 229.059 136.203 228.357 135.626C227.664 135.044 227.176 134.375 226.894 133.619C226.613 132.856 226.572 132.105 226.771 131.366L229.872 132.199C229.746 132.788 229.842 133.29 230.158 133.707C230.475 134.124 230.969 134.423 231.641 134.603C232.267 134.771 232.77 134.781 233.15 134.632C233.539 134.478 233.785 134.208 233.889 133.823ZM246.29 124.425L245.481 127.435L247.575 127.998L246.931 130.397L244.837 129.835L243.196 135.946C243.074 136.399 243.074 136.747 243.195 136.99C243.315 137.232 243.621 137.42 244.112 137.551C244.474 137.649 244.801 137.708 245.095 137.73L244.429 140.209C243.735 140.233 243.049 140.154 242.37 139.971C240.076 139.355 239.217 137.883 239.794 135.555L241.566 128.956L239.778 128.476L240.422 126.077L242.21 126.557L243.019 123.547L246.29 124.425ZM246.934 134.269C247.261 133.054 247.785 132.034 248.508 131.209C249.232 130.384 250.101 129.829 251.116 129.543C252.138 129.26 253.231 129.274 254.393 129.586C256.045 130.03 257.256 130.897 258.026 132.187C258.803 133.48 259.019 135.01 258.674 136.778L258.471 137.622C257.967 139.501 257.037 140.869 255.682 141.726C254.33 142.577 252.771 142.765 251.005 142.29C249.239 141.816 247.98 140.872 247.228 139.456C246.483 138.043 246.372 136.363 246.895 134.416L246.934 134.269ZM250.141 135.385C249.829 136.547 249.809 137.496 250.081 138.232C250.354 138.961 250.898 139.435 251.713 139.653C252.505 139.866 253.205 139.731 253.812 139.246C254.422 138.755 254.906 137.841 255.264 136.506C255.57 135.366 255.585 134.424 255.308 133.678C255.031 132.932 254.489 132.451 253.681 132.234C252.882 132.019 252.179 132.166 251.573 132.675C250.969 133.176 250.492 134.08 250.141 135.385ZM262.044 132.769L260.744 131.462C261.667 130.617 262.285 129.655 262.6 128.574L263.113 126.662L265.716 127.361L265.245 129.115C265.063 129.794 264.677 130.479 264.087 131.17C263.497 131.861 262.816 132.394 262.044 132.769ZM265.971 133.824L264.672 132.516C265.594 131.672 266.213 130.709 266.527 129.629L267.041 127.716L269.644 128.415L269.173 130.17C268.99 130.849 268.604 131.534 268.014 132.225C267.424 132.916 266.743 133.449 265.971 133.824ZM271.393 142.099C271.677 141.043 272.031 140.236 272.456 139.678C272.88 139.121 273.513 138.632 274.354 138.211C275.205 137.784 275.794 137.412 276.122 137.096C276.452 136.772 276.673 136.398 276.787 135.976C277.129 134.701 276.712 133.905 275.535 133.589C274.976 133.439 274.481 133.492 274.048 133.748C273.625 133.998 273.325 134.423 273.148 135.023L269.865 134.141C270.268 132.704 271.034 131.701 272.166 131.131C273.306 130.564 274.668 130.493 276.252 130.918C277.852 131.348 278.988 132.069 279.663 133.084C280.339 134.09 280.487 135.299 280.108 136.71C279.936 137.351 279.63 137.92 279.189 138.417C278.75 138.906 278.079 139.401 277.176 139.903L276.025 140.528C275.304 140.925 274.803 141.482 274.521 142.199L274.29 142.877L271.393 142.099ZM270.132 145.485C270.267 144.98 270.549 144.61 270.975 144.377C271.412 144.138 271.897 144.091 272.433 144.235C272.969 144.379 273.362 144.662 273.612 145.085C273.872 145.503 273.934 145.965 273.799 146.47C273.665 146.968 273.385 147.334 272.958 147.567C272.539 147.802 272.054 147.846 271.503 147.698C270.952 147.55 270.551 147.268 270.298 146.853C270.053 146.439 269.998 145.983 270.132 145.485Z" fill="#342B2B"/>
<path d="M187.241 240.22C186.864 241.623 186.238 242.666 185.364 243.347C184.491 244.023 183.511 244.214 182.424 243.923C181.264 243.611 180.478 242.96 180.064 241.969L179.703 243.01L178.26 242.622L181.761 229.584L183.331 230.006L182.025 234.87C182.87 234.253 183.85 234.095 184.965 234.394C186.08 234.694 186.841 235.35 187.248 236.363C187.661 237.378 187.671 238.619 187.277 240.084L187.241 240.22ZM185.718 239.62C186.006 238.551 186.021 237.669 185.764 236.975C185.508 236.281 184.992 235.83 184.217 235.622C183.181 235.344 182.308 235.625 181.597 236.466L180.53 240.438C180.753 241.529 181.373 242.212 182.392 242.485C183.144 242.687 183.808 242.553 184.384 242.083C184.959 241.612 185.404 240.791 185.718 239.62ZM192.97 241.285C192.631 242.547 192.139 243.713 191.494 244.784C190.856 245.85 190.063 246.781 189.115 247.576C188.173 248.373 187.273 248.877 186.415 249.09L186.342 248.042C187.393 247.608 188.37 246.76 189.273 245.498C190.183 244.232 190.874 242.743 191.346 241.031L191.419 240.76C191.738 239.571 191.91 238.434 191.934 237.349C191.96 236.258 191.859 235.247 191.629 234.318C191.405 233.39 191.076 232.626 190.643 232.024L191.232 231.154C191.868 231.768 192.393 232.649 192.806 233.797C193.225 234.947 193.445 236.15 193.466 237.405C193.493 238.662 193.327 239.956 192.97 241.285ZM203.872 247.762C203.292 248.249 202.585 248.542 201.752 248.64C200.926 248.733 200.015 248.647 199.019 248.379C198.012 248.109 197.181 247.634 196.526 246.954C195.873 246.269 195.448 245.433 195.252 244.446C195.062 243.461 195.115 242.392 195.412 241.24L195.702 240.162C196.202 238.301 197.022 236.974 198.163 236.182C199.309 235.392 200.669 235.208 202.242 235.63C203.533 235.977 204.482 236.587 205.091 237.46C205.701 238.328 205.932 239.391 205.782 240.649L204.152 240.211C204.286 238.494 203.532 237.415 201.891 236.974C200.799 236.681 199.866 236.843 199.094 237.46C198.328 238.074 197.747 239.107 197.351 240.56L197.08 241.57C196.708 242.956 196.728 244.145 197.142 245.136C197.557 246.121 198.305 246.758 199.385 247.049C199.997 247.213 200.55 247.289 201.044 247.276C201.539 247.263 201.98 247.136 202.366 246.894L203.112 244.118L200.251 243.35L200.607 242.026L205.089 243.229L203.872 247.762ZM211.585 251.572C211.543 251.366 211.556 251.024 211.624 250.545C210.69 251.107 209.717 251.252 208.704 250.98C207.799 250.737 207.123 250.282 206.677 249.617C206.238 248.947 206.124 248.218 206.335 247.432C206.592 246.475 207.153 245.831 208.019 245.5C208.892 245.164 209.988 245.173 211.306 245.527L212.834 245.937L213.028 245.216C213.175 244.667 213.128 244.187 212.887 243.776C212.647 243.36 212.207 243.066 211.567 242.894C211.007 242.744 210.499 242.759 210.044 242.94C209.589 243.121 209.308 243.413 209.2 243.815L207.621 243.391C207.744 242.932 208.024 242.534 208.46 242.196C208.904 241.854 209.437 241.633 210.058 241.533C210.685 241.435 211.333 241.475 212 241.654C213.059 241.939 213.816 242.427 214.273 243.12C214.732 243.808 214.848 244.618 214.621 245.552L213.486 249.78C213.259 250.623 213.187 251.322 213.268 251.878L213.232 252.014L211.585 251.572ZM209.3 249.675C209.793 249.807 210.294 249.805 210.804 249.669C211.313 249.533 211.722 249.288 212.029 248.934L212.535 247.049L211.305 246.719C209.381 246.202 208.267 246.507 207.965 247.633C207.833 248.125 207.894 248.554 208.147 248.919C208.401 249.285 208.785 249.537 209.3 249.675ZM217.077 253.046L215.507 252.625L219.008 239.587L220.578 240.008L217.077 253.046ZM221.304 254.182L219.734 253.76L222.2 244.576L223.77 244.997L221.304 254.182ZM222.727 242.105C222.795 241.851 222.93 241.656 223.129 241.522C223.335 241.389 223.591 241.363 223.896 241.445C224.202 241.528 224.41 241.678 224.522 241.896C224.633 242.113 224.654 242.35 224.586 242.604C224.518 242.859 224.381 243.05 224.177 243.177C223.973 243.304 223.718 243.327 223.413 243.245C223.107 243.163 222.898 243.016 222.785 242.803C222.678 242.593 222.659 242.36 222.727 242.105ZM225.531 255.317L223.961 254.895L227.462 241.857L229.033 242.279L225.531 255.317ZM231.818 257.187C230.573 256.853 229.669 256.173 229.107 255.149C228.547 254.118 228.45 252.919 228.818 251.549L228.896 251.261C229.14 250.349 229.531 249.584 230.068 248.963C230.611 248.339 231.249 247.909 231.979 247.675C232.717 247.436 233.45 247.415 234.18 247.611C235.374 247.931 236.197 248.574 236.648 249.538C237.098 250.503 237.127 251.718 236.733 253.183L236.558 253.837L230.336 252.166C230.116 253.078 230.182 253.881 230.535 254.577C230.895 255.268 231.466 255.718 232.247 255.928C232.802 256.077 233.302 256.09 233.747 255.967C234.193 255.844 234.61 255.634 234.999 255.339L235.758 256.343C234.67 257.319 233.357 257.6 231.818 257.187ZM233.834 248.901C233.2 248.731 232.606 248.82 232.051 249.168C231.498 249.511 231.059 250.085 230.733 250.89L235.334 252.125L235.366 252.006C235.535 251.196 235.486 250.522 235.218 249.983C234.952 249.438 234.49 249.077 233.834 248.901ZM243.185 259.084C242.381 259.638 241.387 259.757 240.204 259.439C239.225 259.176 238.554 258.693 238.191 257.989C237.836 257.28 237.805 256.368 238.098 255.252L239.703 249.276L241.273 249.698L239.68 255.631C239.306 257.023 239.685 257.871 240.817 258.175C242.017 258.497 242.935 258.264 243.571 257.477L245.365 250.796L246.935 251.218L244.469 260.402L242.975 260.001L243.185 259.084ZM260.981 263.098C260.401 263.586 259.695 263.878 258.861 263.976C258.035 264.07 257.124 263.983 256.128 263.716C255.121 263.445 254.29 262.97 253.635 262.291C252.982 261.606 252.557 260.77 252.361 259.783C252.171 258.797 252.224 257.729 252.522 256.577L252.811 255.499C253.311 253.637 254.131 252.31 255.272 251.519C256.419 250.728 257.779 250.544 259.352 250.967C260.642 251.313 261.592 251.923 262.2 252.797C262.811 253.664 263.041 254.727 262.891 255.985L261.261 255.548C261.395 253.83 260.641 252.751 259 252.31C257.908 252.017 256.976 252.179 256.203 252.797C255.438 253.41 254.857 254.444 254.461 255.896L254.189 256.906C253.817 258.293 253.838 259.481 254.251 260.472C254.666 261.457 255.414 262.095 256.495 262.385C257.106 262.549 257.659 262.625 258.154 262.612C258.649 262.6 259.089 262.472 259.476 262.23L260.221 259.455L257.361 258.686L257.716 257.362L262.198 258.566L260.981 263.098ZM268.694 266.908C268.652 266.703 268.665 266.36 268.733 265.881C267.8 266.443 266.827 266.588 265.814 266.316C264.908 266.073 264.232 265.619 263.786 264.953C263.347 264.283 263.234 263.555 263.445 262.768C263.702 261.812 264.263 261.168 265.129 260.836C266.001 260.5 267.097 260.509 268.416 260.863L269.943 261.274L270.137 260.552C270.285 260.003 270.238 259.523 269.996 259.113C269.756 258.696 269.316 258.402 268.677 258.231C268.116 258.08 267.609 258.095 267.154 258.277C266.699 258.458 266.417 258.749 266.309 259.151L264.73 258.727C264.853 258.269 265.133 257.871 265.57 257.533C266.013 257.191 266.546 256.97 267.167 256.87C267.795 256.771 268.442 256.812 269.11 256.991C270.168 257.275 270.926 257.764 271.383 258.457C271.841 259.144 271.957 259.955 271.73 260.889L270.595 265.116C270.369 265.959 270.296 266.659 270.378 267.214L270.341 267.35L268.694 266.908ZM266.41 265.011C266.902 265.144 267.403 265.142 267.913 265.006C268.423 264.869 268.831 264.624 269.139 264.27L269.645 262.386L268.414 262.055C266.49 261.538 265.377 261.843 265.074 262.969C264.942 263.462 265.003 263.89 265.257 264.256C265.51 264.621 265.895 264.873 266.41 265.011ZM274.186 268.383L272.616 267.961L276.117 254.923L277.688 255.345L274.186 268.383ZM278.413 269.518L276.843 269.096L279.31 259.912L280.88 260.334L278.413 269.518ZM279.836 257.442C279.905 257.187 280.039 256.993 280.239 256.858C280.444 256.725 280.7 256.7 281.006 256.782C281.311 256.864 281.52 257.014 281.631 257.232C281.742 257.45 281.764 257.686 281.695 257.941C281.627 258.196 281.491 258.386 281.287 258.514C281.083 258.641 280.828 258.663 280.522 258.581C280.217 258.499 280.007 258.352 279.895 258.14C279.787 257.929 279.768 257.696 279.836 257.442ZM282.641 270.653L281.07 270.232L284.572 257.194L286.142 257.615L282.641 270.653ZM288.927 272.524C287.682 272.189 286.779 271.51 286.217 270.485C285.656 269.455 285.56 268.255 285.928 266.886L286.005 266.597C286.25 265.686 286.64 264.92 287.177 264.3C287.721 263.675 288.358 263.246 289.088 263.011C289.826 262.773 290.56 262.751 291.29 262.947C292.484 263.268 293.306 263.91 293.757 264.875C294.208 265.839 294.236 267.054 293.843 268.52L293.667 269.173L287.445 267.503C287.225 268.414 287.291 269.218 287.644 269.913C288.005 270.604 288.575 271.055 289.356 271.265C289.911 271.414 290.411 271.426 290.857 271.303C291.302 271.18 291.719 270.971 292.108 270.675L292.867 271.68C291.78 272.656 290.467 272.937 288.927 272.524ZM290.943 264.237C290.309 264.067 289.715 264.156 289.16 264.505C288.607 264.848 288.168 265.422 287.843 266.226L292.444 267.461L292.475 267.343C292.644 266.533 292.595 265.858 292.327 265.319C292.061 264.774 291.6 264.414 290.943 264.237ZM296.086 274.264L294.516 273.842L296.982 264.658L298.553 265.08L296.086 274.264ZM297.509 262.188C297.577 261.933 297.712 261.738 297.911 261.604C298.117 261.471 298.373 261.446 298.678 261.528C298.984 261.61 299.192 261.76 299.304 261.978C299.415 262.196 299.436 262.432 299.368 262.687C299.3 262.941 299.163 263.132 298.959 263.26C298.755 263.387 298.501 263.409 298.195 263.327C297.889 263.245 297.68 263.098 297.567 262.886C297.46 262.675 297.441 262.442 297.509 262.188Z" fill="black"/>
<path d="M169.015 291.755C169.575 291.905 170.11 291.867 170.62 291.64C171.13 291.412 171.476 291.05 171.658 290.553L173.144 290.952C172.974 291.471 172.659 291.923 172.197 292.309C171.736 292.694 171.187 292.953 170.55 293.086C169.92 293.22 169.293 293.203 168.671 293.036C167.42 292.7 166.536 292.017 166.018 290.986C165.507 289.951 165.447 288.709 165.836 287.26L165.906 286.997C166.146 286.103 166.524 285.352 167.039 284.744C167.554 284.136 168.169 283.722 168.884 283.501C169.604 283.282 170.383 283.285 171.22 283.51C172.25 283.787 173.022 284.325 173.535 285.124C174.054 285.924 174.204 286.823 173.985 287.82L172.5 287.421C172.614 286.815 172.518 286.267 172.213 285.779C171.914 285.286 171.468 284.96 170.874 284.8C170.076 284.586 169.379 284.708 168.782 285.167C168.193 285.621 167.752 286.392 167.461 287.478L167.381 287.776C167.097 288.834 167.096 289.707 167.378 290.396C167.66 291.084 168.206 291.537 169.015 291.755ZM179.081 290.362C178.742 291.624 178.25 292.791 177.605 293.861C176.966 294.927 176.173 295.858 175.226 296.653C174.284 297.45 173.384 297.954 172.526 298.167L172.452 297.119C173.503 296.685 174.48 295.837 175.383 294.575C176.294 293.309 176.985 291.82 177.457 290.108L177.53 289.837C177.849 288.648 178.02 287.511 178.045 286.426C178.071 285.335 177.969 284.325 177.74 283.395C177.515 282.468 177.187 281.703 176.754 281.101L177.343 280.231C177.979 280.845 178.503 281.726 178.917 282.874C179.336 284.024 179.556 285.227 179.577 286.482C179.603 287.739 179.438 289.033 179.081 290.362ZM180.422 296.01L183.741 283.651L187.23 284.588C188.305 284.877 189.192 285.37 189.89 286.067C190.589 286.764 191.044 287.611 191.255 288.608C191.472 289.607 191.431 290.676 191.131 291.815L190.919 292.604C190.606 293.77 190.106 294.731 189.417 295.486C188.735 296.243 187.912 296.744 186.948 296.989C185.99 297.235 184.955 297.215 183.843 296.929L180.422 296.01ZM185.01 285.43L182.41 295.115L184.124 295.575C185.38 295.913 186.461 295.784 187.367 295.19C188.279 294.598 188.928 293.58 189.316 292.137L189.509 291.416C189.886 290.012 189.848 288.834 189.394 287.881C188.947 286.924 188.12 286.277 186.912 285.94L185.01 285.43ZM195.35 300.201C194.105 299.866 193.201 299.187 192.639 298.162C192.079 297.132 191.982 295.932 192.35 294.563L192.427 294.274C192.672 293.363 193.063 292.597 193.599 291.977C194.143 291.353 194.78 290.923 195.511 290.688C196.248 290.45 196.982 290.428 197.712 290.624C198.906 290.945 199.729 291.588 200.179 292.552C200.63 293.516 200.659 294.731 200.265 296.197L200.09 296.851L193.868 295.18C193.647 296.091 193.714 296.895 194.067 297.59C194.427 298.282 194.998 298.732 195.779 298.942C196.333 299.091 196.833 299.104 197.279 298.981C197.725 298.858 198.142 298.648 198.531 298.352L199.289 299.357C198.202 300.333 196.889 300.614 195.35 300.201ZM197.366 291.915C196.732 291.744 196.138 291.834 195.583 292.182C195.03 292.525 194.591 293.099 194.265 293.903L198.866 295.139L198.898 295.02C199.067 294.21 199.017 293.535 198.75 292.996C198.483 292.451 198.022 292.091 197.366 291.915ZM206.804 300.483C206.918 300.059 206.845 299.687 206.585 299.368C206.332 299.046 205.829 298.692 205.077 298.308C204.33 297.926 203.754 297.552 203.348 297.189C202.948 296.826 202.679 296.451 202.54 296.062C202.408 295.674 202.402 295.254 202.524 294.801C202.726 294.049 203.214 293.497 203.987 293.147C204.767 292.798 205.651 292.756 206.642 293.022C207.683 293.302 208.454 293.797 208.955 294.508C209.461 295.22 209.602 295.995 209.377 296.833L207.798 296.409C207.914 295.979 207.829 295.559 207.545 295.149C207.266 294.74 206.85 294.462 206.295 294.313C205.724 294.159 205.243 294.164 204.854 294.326C204.464 294.488 204.216 294.77 204.108 295.172C204.006 295.551 204.079 295.877 204.328 296.15C204.576 296.423 205.067 296.752 205.801 297.137C206.54 297.524 207.121 297.904 207.542 298.278C207.963 298.653 208.243 299.043 208.383 299.451C208.529 299.854 208.536 300.302 208.404 300.794C208.184 301.615 207.679 302.186 206.888 302.508C206.1 302.824 205.182 302.841 204.135 302.56C203.399 302.362 202.784 302.058 202.288 301.645C201.792 301.233 201.445 300.752 201.247 300.201C201.056 299.646 201.034 299.097 201.179 298.554L202.75 298.976C202.637 299.509 202.734 299.984 203.041 300.4C203.355 300.812 203.834 301.105 204.479 301.278C205.074 301.438 205.581 301.447 206.001 301.305C206.429 301.159 206.696 300.885 206.804 300.483ZM213.749 303.767C214.309 303.918 214.844 303.88 215.354 303.653C215.864 303.425 216.21 303.063 216.392 302.566L217.877 302.965C217.708 303.484 217.392 303.936 216.931 304.322C216.469 304.707 215.92 304.966 215.284 305.099C214.653 305.233 214.027 305.216 213.404 305.049C212.154 304.713 211.269 304.03 210.752 302.999C210.241 301.964 210.18 300.722 210.569 299.273L210.64 299.01C210.88 298.116 211.257 297.365 211.773 296.757C212.288 296.149 212.902 295.735 213.617 295.514C214.337 295.295 215.116 295.298 215.953 295.523C216.983 295.8 217.755 296.337 218.268 297.137C218.788 297.937 218.938 298.836 218.718 299.833L217.233 299.434C217.347 298.828 217.252 298.28 216.946 297.792C216.647 297.299 216.201 296.973 215.607 296.813C214.809 296.599 214.112 296.721 213.516 297.18C212.926 297.634 212.486 298.405 212.194 299.491L212.114 299.789C211.83 300.847 211.829 301.72 212.111 302.409C212.394 303.097 212.939 303.55 213.749 303.767ZM224.536 307.856C224.494 307.651 224.507 307.309 224.575 306.83C223.641 307.392 222.668 307.537 221.655 307.265C220.75 307.022 220.074 306.567 219.628 305.901C219.189 305.231 219.075 304.503 219.286 303.717C219.543 302.76 220.104 302.116 220.97 301.784C221.843 301.449 222.938 301.458 224.257 301.812L225.785 302.222L225.979 301.501C226.126 300.952 226.079 300.472 225.837 300.061C225.597 299.645 225.158 299.351 224.518 299.179C223.958 299.029 223.45 299.044 222.995 299.225C222.54 299.406 222.258 299.698 222.151 300.099L220.572 299.675C220.695 299.217 220.975 298.819 221.411 298.481C221.855 298.139 222.387 297.918 223.009 297.818C223.636 297.72 224.283 297.76 224.951 297.939C226.009 298.223 226.767 298.712 227.224 299.405C227.682 300.092 227.798 300.903 227.572 301.837L226.437 306.065C226.21 306.908 226.138 307.607 226.219 308.163L226.182 308.299L224.536 307.856ZM222.251 305.96C222.744 306.092 223.245 306.09 223.754 305.954C224.264 305.818 224.673 305.573 224.98 305.218L225.486 303.334L224.255 303.003C222.331 302.487 221.218 302.791 220.916 303.918C220.784 304.41 220.844 304.839 221.098 305.204C221.352 305.57 221.736 305.822 222.251 305.96ZM234.849 302.29C234.622 302.187 234.37 302.098 234.092 302.023C233.063 301.747 232.246 301.997 231.642 302.776L229.892 309.295L228.321 308.873L230.788 299.689L232.316 300.099L232.056 301.167C232.792 300.485 233.632 300.27 234.577 300.524C234.882 300.606 235.104 300.708 235.241 300.83L234.849 302.29ZM239.831 299.733L239.234 301.957L240.948 302.417L240.622 303.631L238.908 303.171L237.378 308.866C237.279 309.234 237.281 309.532 237.384 309.76C237.488 309.982 237.724 310.142 238.092 310.241C238.273 310.29 238.531 310.323 238.866 310.34L238.524 311.613C238.081 311.615 237.664 311.564 237.274 311.459C236.572 311.271 236.1 310.916 235.857 310.396C235.615 309.876 235.598 309.226 235.808 308.445L237.337 302.749L235.665 302.3L235.991 301.086L237.663 301.535L238.261 299.311L239.831 299.733ZM244.09 313.29C242.845 312.955 241.941 312.276 241.379 311.251C240.818 310.221 240.722 309.021 241.09 307.652L241.167 307.363C241.412 306.452 241.803 305.686 242.339 305.066C242.883 304.441 243.52 304.012 244.251 303.777C244.988 303.539 245.722 303.517 246.452 303.713C247.646 304.034 248.468 304.676 248.919 305.641C249.37 306.605 249.399 307.82 249.005 309.286L248.83 309.939L242.608 308.269C242.387 309.18 242.454 309.984 242.807 310.679C243.167 311.37 243.738 311.821 244.519 312.031C245.073 312.18 245.573 312.193 246.019 312.07C246.465 311.946 246.882 311.737 247.271 311.441L248.029 312.446C246.942 313.422 245.629 313.703 244.09 313.29ZM246.106 305.003C245.472 304.833 244.877 304.922 244.323 305.271C243.77 305.614 243.33 306.188 243.005 306.992L247.606 308.228L247.638 308.109C247.807 307.299 247.757 306.624 247.49 306.085C247.223 305.54 246.762 305.18 246.106 305.003ZM255.544 313.572C255.658 313.147 255.585 312.776 255.325 312.457C255.072 312.134 254.569 311.781 253.817 311.397C253.07 311.014 252.494 310.641 252.088 310.278C251.688 309.915 251.418 309.54 251.28 309.151C251.148 308.763 251.142 308.343 251.264 307.89C251.466 307.138 251.954 306.586 252.727 306.236C253.507 305.887 254.391 305.845 255.382 306.111C256.423 306.391 257.194 306.886 257.695 307.597C258.201 308.309 258.342 309.084 258.117 309.922L256.538 309.498C256.654 309.068 256.569 308.648 256.285 308.238C256.006 307.829 255.59 307.55 255.035 307.402C254.464 307.248 253.983 307.252 253.594 307.415C253.204 307.577 252.956 307.859 252.848 308.261C252.746 308.64 252.819 308.966 253.067 309.239C253.316 309.512 253.807 309.841 254.541 310.226C255.28 310.613 255.86 310.993 256.282 311.367C256.703 311.741 256.983 312.132 257.123 312.54C257.269 312.943 257.276 313.391 257.144 313.883C256.924 314.704 256.419 315.275 255.628 315.597C254.84 315.913 253.922 315.93 252.875 315.649C252.139 315.451 251.524 315.146 251.028 314.734C250.532 314.322 250.185 313.84 249.987 313.29C249.796 312.735 249.773 312.186 249.919 311.643L251.49 312.064C251.377 312.598 251.474 313.073 251.78 313.489C252.095 313.901 252.574 314.194 253.219 314.367C253.813 314.527 254.321 314.536 254.741 314.394C255.169 314.247 255.436 313.974 255.544 313.572Z" fill="black"/>
<path d="M153.196 334.429C153.574 333.02 154.212 331.978 155.109 331.303C156.008 330.622 156.998 330.427 158.079 330.717C159.154 331.006 159.907 331.602 160.337 332.507L161.623 327.719L163.193 328.141L159.692 341.179L158.249 340.792L158.437 339.786C157.602 340.387 156.625 340.537 155.504 340.236C154.44 339.951 153.689 339.282 153.249 338.229C152.816 337.179 152.787 335.952 153.164 334.548L153.196 334.429ZM154.718 335.029C154.439 336.071 154.435 336.943 154.707 337.647C154.979 338.351 155.494 338.805 156.252 339.009C157.248 339.276 158.096 339.024 158.794 338.253L159.927 334.035C159.69 333.043 159.085 332.416 158.111 332.155C157.342 331.948 156.662 332.084 156.072 332.563C155.483 333.041 155.031 333.864 154.718 335.029ZM167.086 337.877C166.747 339.139 166.255 340.305 165.609 341.376C164.971 342.442 164.178 343.373 163.23 344.168C162.288 344.964 161.388 345.469 160.531 345.681L160.457 344.633C161.508 344.2 162.485 343.352 163.388 342.09C164.298 340.824 164.989 339.335 165.461 337.623L165.534 337.351C165.853 336.163 166.025 335.026 166.05 333.941C166.076 332.85 165.974 331.839 165.744 330.91C165.52 329.982 165.191 329.218 164.758 328.616L165.347 327.746C165.983 328.359 166.508 329.24 166.921 330.389C167.341 331.539 167.561 332.742 167.582 333.997C167.608 335.254 167.443 336.547 167.086 337.877ZM173.547 338.994C172.258 338.217 171.371 337.451 170.888 336.696C170.412 335.937 170.29 335.128 170.521 334.268C170.782 333.294 171.386 332.595 172.331 332.169C173.284 331.74 174.383 331.692 175.628 332.026C176.477 332.254 177.188 332.621 177.762 333.127C178.342 333.635 178.735 334.226 178.942 334.9C179.155 335.576 179.169 336.257 178.986 336.941L177.347 336.501C177.548 335.754 177.467 335.105 177.106 334.553C176.746 333.995 176.133 333.6 175.268 333.367C174.464 333.152 173.788 333.161 173.24 333.396C172.698 333.627 172.343 334.056 172.175 334.685C172.039 335.188 172.137 335.672 172.467 336.137C172.804 336.598 173.447 337.11 174.393 337.674C175.346 338.239 176.063 338.774 176.546 339.28C177.037 339.782 177.358 340.302 177.511 340.841C177.669 341.381 177.664 341.965 177.495 342.593C177.226 343.594 176.62 344.293 175.676 344.689C174.734 345.079 173.61 345.099 172.303 344.748C171.454 344.52 170.705 344.146 170.056 343.625C169.408 343.1 168.96 342.5 168.71 341.826C168.466 341.154 168.44 340.458 168.633 339.74L170.271 340.18C170.071 340.927 170.186 341.592 170.618 342.175C171.057 342.754 171.738 343.167 172.66 343.415C173.521 343.646 174.227 343.648 174.78 343.42C175.332 343.192 175.69 342.775 175.852 342.17C176.015 341.564 175.928 341.041 175.592 340.598C175.257 340.151 174.576 339.616 173.547 338.994ZM179.342 341.442C179.584 340.542 179.977 339.78 180.52 339.155C181.07 338.532 181.711 338.11 182.444 337.888C183.183 337.668 183.957 337.667 184.766 337.884C186.017 338.22 186.91 338.924 187.448 339.996C187.99 341.07 188.069 342.326 187.683 343.763L187.653 343.874C187.413 344.768 187.025 345.525 186.488 346.145C185.958 346.762 185.321 347.182 184.575 347.406C183.835 347.632 183.052 347.634 182.225 347.412C180.98 347.078 180.087 346.374 179.544 345.3C179.007 344.227 178.93 342.978 179.313 341.552L179.342 341.442ZM180.871 342.052C180.597 343.071 180.613 343.952 180.917 344.695C181.226 345.439 181.777 345.918 182.57 346.131C183.367 346.345 184.085 346.204 184.722 345.707C185.36 345.205 185.83 344.391 186.133 343.265C186.403 342.258 186.382 341.379 186.068 340.627C185.761 339.871 185.212 339.387 184.419 339.174C183.644 338.966 182.936 339.106 182.295 339.596C181.654 340.085 181.179 340.904 180.871 342.052ZM186.468 334.391L188.37 334.902L185.425 336.787L184.16 336.447L186.468 334.391ZM192.399 348.77C192.959 348.921 193.494 348.882 194.004 348.655C194.514 348.428 194.86 348.066 195.042 347.569L196.528 347.968C196.358 348.487 196.043 348.939 195.581 349.324C195.119 349.71 194.571 349.969 193.934 350.102C193.304 350.236 192.677 350.219 192.055 350.052C190.804 349.716 189.92 349.033 189.402 348.002C188.891 346.967 188.83 345.725 189.219 344.276L189.29 344.013C189.53 343.119 189.908 342.368 190.423 341.76C190.938 341.152 191.553 340.738 192.267 340.517C192.988 340.298 193.766 340.301 194.604 340.526C195.634 340.802 196.406 341.34 196.919 342.139C197.438 342.94 197.588 343.839 197.369 344.836L195.883 344.437C195.998 343.83 195.902 343.283 195.596 342.794C195.298 342.302 194.852 341.976 194.257 341.816C193.46 341.602 192.762 341.724 192.166 342.183C191.577 342.637 191.136 343.408 190.845 344.494L190.765 344.791C190.481 345.849 190.48 346.723 190.762 347.411C191.044 348.1 191.59 348.553 192.399 348.77ZM204.043 344.753C203.816 344.65 203.564 344.561 203.287 344.487C202.257 344.21 201.44 344.461 200.837 345.239L199.086 351.758L197.516 351.337L199.982 342.152L201.51 342.562L201.251 343.63C201.986 342.948 202.826 342.734 203.771 342.988C204.077 343.07 204.298 343.172 204.435 343.293L204.043 344.753ZM208.738 354.35C208.696 354.145 208.709 353.802 208.777 353.323C207.843 353.885 206.87 354.03 205.857 353.758C204.951 353.515 204.276 353.061 203.83 352.395C203.391 351.725 203.277 350.997 203.488 350.21C203.745 349.254 204.306 348.61 205.172 348.278C206.045 347.942 207.14 347.951 208.459 348.305L209.987 348.716L210.18 347.994C210.328 347.445 210.281 346.965 210.039 346.555C209.799 346.138 209.359 345.844 208.72 345.673C208.16 345.522 207.652 345.537 207.197 345.719C206.742 345.9 206.46 346.191 206.352 346.593L204.774 346.169C204.897 345.711 205.176 345.312 205.613 344.975C206.057 344.633 206.589 344.412 207.211 344.312C207.838 344.213 208.485 344.254 209.153 344.433C210.211 344.717 210.969 345.206 211.426 345.899C211.884 346.586 212 347.397 211.774 348.331L210.638 352.558C210.412 353.401 210.339 354.101 210.421 354.656L210.384 354.792L208.738 354.35ZM206.453 352.453C206.945 352.586 207.446 352.584 207.956 352.448C208.466 352.311 208.875 352.066 209.182 351.712L209.688 349.828L208.457 349.497C206.533 348.98 205.42 349.285 205.118 350.411C204.985 350.903 205.046 351.332 205.3 351.698C205.554 352.063 205.938 352.315 206.453 352.453ZM217.718 344.531L217.12 346.754L218.835 347.215L218.509 348.429L216.794 347.968L215.265 353.664C215.166 354.032 215.168 354.33 215.271 354.557C215.375 354.779 215.611 354.94 215.979 355.039C216.16 355.087 216.418 355.12 216.753 355.137L216.411 356.411C215.967 356.413 215.55 356.362 215.16 356.257C214.458 356.068 213.986 355.714 213.744 355.194C213.501 354.674 213.485 354.023 213.694 353.242L215.224 347.547L213.552 347.098L213.878 345.884L215.55 346.333L216.147 344.109L217.718 344.531ZM221.976 358.087C220.731 357.753 219.828 357.073 219.266 356.049C218.705 355.019 218.609 353.819 218.976 352.449L219.054 352.161C219.299 351.25 219.689 350.484 220.226 349.864C220.77 349.239 221.407 348.81 222.137 348.575C222.875 348.336 223.609 348.315 224.339 348.511C225.533 348.832 226.355 349.474 226.806 350.438C227.257 351.403 227.285 352.618 226.892 354.083L226.716 354.737L220.494 353.066C220.274 353.978 220.34 354.781 220.693 355.477C221.054 356.168 221.624 356.619 222.405 356.828C222.96 356.977 223.46 356.99 223.905 356.867C224.351 356.744 224.768 356.535 225.157 356.239L225.916 357.243C224.829 358.219 223.515 358.501 221.976 358.087ZM223.992 349.801C223.358 349.631 222.764 349.72 222.209 350.069C221.656 350.411 221.217 350.985 220.892 351.79L225.492 353.025L225.524 352.906C225.693 352.096 225.644 351.422 225.376 350.883C225.11 350.338 224.648 349.977 223.992 349.801ZM233.431 358.369C233.545 357.945 233.471 357.573 233.211 357.255C232.958 356.932 232.455 356.579 231.703 356.195C230.957 355.812 230.38 355.439 229.974 355.075C229.574 354.713 229.305 354.337 229.167 353.948C229.034 353.561 229.029 353.141 229.15 352.688C229.352 351.935 229.84 351.384 230.614 351.033C231.393 350.684 232.278 350.643 233.268 350.909C234.309 351.189 235.08 351.684 235.581 352.395C236.088 353.107 236.228 353.882 236.003 354.719L234.425 354.295C234.54 353.865 234.456 353.445 234.171 353.035C233.893 352.627 233.476 352.348 232.922 352.199C232.35 352.046 231.87 352.05 231.48 352.212C231.091 352.375 230.842 352.657 230.734 353.059C230.632 353.438 230.706 353.764 230.954 354.037C231.202 354.31 231.693 354.639 232.427 355.024C233.167 355.411 233.747 355.791 234.168 356.165C234.59 356.539 234.87 356.93 235.009 357.337C235.156 357.741 235.163 358.188 235.031 358.681C234.81 359.501 234.305 360.072 233.515 360.394C232.726 360.71 231.808 360.728 230.762 360.446C230.026 360.249 229.41 359.944 228.914 359.532C228.418 359.119 228.071 358.638 227.873 358.087C227.682 357.533 227.66 356.984 227.806 356.44L229.376 356.862C229.263 357.396 229.36 357.871 229.667 358.287C229.981 358.699 230.461 358.992 231.106 359.165C231.7 359.324 232.207 359.333 232.628 359.191C233.055 359.045 233.323 358.771 233.431 358.369Z" fill="black"/>
<circle cx="402.983" cy="349.565" r="12" transform="rotate(15.0319 402.983 349.565)" fill="#27AE60"/>
<path d="M408.107 347.835L400.38 352.749L398.46 349.056" stroke="#F7F7FC" stroke-width="2" stroke-linecap="round" stroke-linejoin="round"/>
<path d="M139.472 385.763L136.213 384.888L135.62 387.095L139.445 388.122L139.079 389.486L133.556 388.003L135.769 379.763L141.28 381.244L140.911 382.619L137.097 381.594L136.57 383.558L139.829 384.433L139.472 385.763ZM146.292 388.201C146.029 389.182 145.613 389.892 145.047 390.33C144.481 390.765 143.823 390.881 143.072 390.68C142.408 390.501 141.947 390.104 141.687 389.489L141.439 390.12L139.968 389.725L142.302 381.033L143.937 381.472L143.1 384.59C143.596 384.25 144.151 384.162 144.766 384.327C145.513 384.528 146.024 384.96 146.298 385.625C146.578 386.286 146.584 387.115 146.316 388.111L146.292 388.201ZM144.688 387.643C144.855 387.025 144.878 386.547 144.757 386.212C144.638 385.872 144.384 385.651 143.996 385.546C143.475 385.406 143.059 385.523 142.749 385.897L142.1 388.313C142.184 388.797 142.489 389.109 143.013 389.25C143.541 389.392 143.958 389.225 144.264 388.749C144.41 388.521 144.552 388.153 144.688 387.643ZM150.046 392.431C150.01 392.264 150.005 392.066 150.029 391.838C149.515 392.173 148.94 392.256 148.307 392.085C147.707 391.924 147.255 391.617 146.953 391.163C146.653 390.711 146.575 390.221 146.717 389.693C146.891 389.044 147.264 388.61 147.836 388.392C148.413 388.174 149.156 388.186 150.066 388.426L150.819 388.628L150.913 388.277C150.989 387.994 150.976 387.748 150.874 387.539C150.777 387.331 150.571 387.185 150.258 387.101C149.983 387.027 149.748 387.034 149.554 387.124C149.364 387.214 149.238 387.375 149.176 387.605L147.541 387.166C147.636 386.811 147.834 386.512 148.133 386.269C148.433 386.026 148.806 385.873 149.251 385.811C149.698 385.745 150.17 385.779 150.668 385.912C151.423 386.115 151.969 386.466 152.309 386.966C152.652 387.462 152.732 388.054 152.548 388.741L151.835 391.395C151.683 391.977 151.646 392.438 151.724 392.779L151.698 392.875L150.046 392.431ZM148.999 390.93C149.24 390.995 149.477 391.002 149.709 390.951C149.942 390.897 150.132 390.792 150.279 390.637L150.562 389.585L149.951 389.42C149.132 389.201 148.62 389.367 148.415 389.918L148.384 390.013C148.329 390.217 148.356 390.404 148.464 390.574C148.572 390.745 148.75 390.864 148.999 390.93ZM152.581 395.326L151.847 394.65L152.149 394.337C152.526 393.944 152.779 393.521 152.909 393.066L153.249 391.799L154.63 392.17L154.32 393.3C154.204 393.718 153.985 394.112 153.663 394.482C153.341 394.853 152.981 395.134 152.581 395.326ZM161.255 393.3L163.5 389.48L165.209 389.939L161.5 395.507L159.938 395.087L159.517 388.41L161.226 388.869L161.255 393.3ZM164.782 393.045C164.945 392.438 165.207 391.928 165.569 391.515C165.93 391.103 166.365 390.825 166.872 390.682C167.383 390.541 167.93 390.548 168.511 390.704C169.337 390.926 169.942 391.359 170.327 392.005C170.716 392.651 170.824 393.416 170.651 394.3L170.55 394.722C170.298 395.661 169.833 396.345 169.156 396.774C168.479 397.199 167.7 397.293 166.817 397.056C165.934 396.819 165.305 396.347 164.928 395.639C164.556 394.932 164.5 394.092 164.762 393.119L164.782 393.045ZM166.385 393.603C166.229 394.184 166.219 394.659 166.355 395.027C166.491 395.391 166.763 395.628 167.171 395.738C167.567 395.844 167.917 395.776 168.221 395.534C168.525 395.288 168.767 394.832 168.947 394.164C169.099 393.594 169.107 393.123 168.968 392.75C168.83 392.377 168.559 392.136 168.155 392.028C167.755 391.921 167.404 391.994 167.101 392.248C166.799 392.499 166.56 392.951 166.385 393.603ZM173.622 397.47C173.924 397.551 174.191 397.534 174.425 397.419C174.658 397.303 174.815 397.109 174.897 396.836L176.43 397.247C176.315 397.661 176.099 398.012 175.784 398.299C175.469 398.583 175.091 398.769 174.651 398.857C174.216 398.942 173.764 398.922 173.296 398.796C172.421 398.561 171.805 398.098 171.449 397.408C171.093 396.714 171.047 395.876 171.31 394.896L171.339 394.788C171.592 393.845 172.045 393.16 172.698 392.732C173.351 392.305 174.115 392.209 174.99 392.444C175.756 392.649 176.31 393.033 176.653 393.594C177 394.153 177.081 394.795 176.894 395.521L175.36 395.11C175.438 394.791 175.408 394.508 175.273 394.261C175.138 394.01 174.915 393.843 174.606 393.76C174.225 393.658 173.899 393.72 173.628 393.947C173.361 394.17 173.145 394.593 172.978 395.216L172.932 395.386C172.763 396.016 172.737 396.494 172.856 396.821C172.974 397.148 173.23 397.365 173.622 397.47ZM179.583 400.484C178.685 400.243 178.027 399.771 177.609 399.069C177.195 398.367 177.111 397.558 177.357 396.641L177.4 396.482C177.565 395.868 177.831 395.351 178.199 394.931C178.567 394.509 179.003 394.225 179.507 394.082C180.015 393.935 180.549 393.937 181.107 394.087C181.945 394.312 182.532 394.752 182.869 395.409C183.211 396.067 183.251 396.881 182.99 397.85L182.811 398.518L178.912 397.471C178.858 397.885 178.93 398.248 179.129 398.561C179.332 398.874 179.637 399.085 180.045 399.195C180.675 399.364 181.229 399.268 181.706 398.907L182.268 400.022C181.929 400.304 181.524 400.486 181.053 400.57C180.582 400.65 180.093 400.621 179.583 400.484ZM180.746 395.409C180.422 395.322 180.128 395.361 179.866 395.525C179.607 395.69 179.395 395.969 179.229 396.361L181.503 396.972L181.538 396.841C181.628 396.477 181.605 396.172 181.469 395.925C181.334 395.674 181.093 395.502 180.746 395.409ZM183.328 393.749L183.309 393.816L182.008 393.467L181.357 392.412L180.265 392.999L178.986 392.655L179.01 392.565L181.105 391.453L182.055 391.708L183.328 393.749ZM189.5 403.026C189.464 402.859 189.458 402.661 189.483 402.433C188.968 402.768 188.394 402.851 187.76 402.68C187.161 402.519 186.709 402.212 186.406 401.759C186.107 401.306 186.028 400.816 186.17 400.288C186.345 399.639 186.718 399.205 187.29 398.987C187.866 398.769 188.609 398.781 189.52 399.021L190.272 399.223L190.366 398.872C190.442 398.59 190.43 398.343 190.328 398.134C190.23 397.926 190.025 397.78 189.712 397.696C189.436 397.622 189.202 397.629 189.008 397.719C188.818 397.809 188.692 397.97 188.63 398.2L186.994 397.761C187.09 397.406 187.287 397.107 187.587 396.864C187.887 396.621 188.26 396.468 188.705 396.406C189.152 396.34 189.624 396.374 190.122 396.507C190.876 396.71 191.423 397.061 191.762 397.561C192.106 398.058 192.186 398.649 192.001 399.336L191.289 401.99C191.136 402.572 191.1 403.033 191.178 403.374L191.152 403.47L189.5 403.026ZM188.453 401.526C188.694 401.59 188.931 401.597 189.163 401.546C189.396 401.492 189.586 401.387 189.733 401.232L190.015 400.18L189.404 400.016C188.586 399.796 188.074 399.962 187.869 400.513L187.838 400.608C187.783 400.812 187.809 400.999 187.917 401.169C188.025 401.34 188.204 401.459 188.453 401.526ZM195.035 403.22C195.337 403.301 195.605 403.284 195.838 403.169C196.071 403.054 196.228 402.859 196.31 402.586L197.843 402.998C197.728 403.412 197.513 403.762 197.197 404.05C196.882 404.333 196.505 404.519 196.064 404.607C195.629 404.692 195.177 404.672 194.709 404.547C193.834 404.312 193.218 403.849 192.862 403.158C192.506 402.464 192.46 401.627 192.723 400.646L192.752 400.539C193.006 399.595 193.459 398.91 194.111 398.483C194.764 398.055 195.528 397.959 196.403 398.194C197.169 398.4 197.723 398.783 198.066 399.345C198.414 399.903 198.494 400.545 198.307 401.272L196.773 400.86C196.851 400.541 196.822 400.258 196.686 400.011C196.551 399.761 196.329 399.594 196.019 399.511C195.638 399.408 195.312 399.471 195.041 399.697C194.775 399.921 194.558 400.344 194.391 400.966L194.345 401.136C194.176 401.766 194.151 402.245 194.269 402.572C194.387 402.899 194.643 403.115 195.035 403.22ZM200.996 406.235C200.099 405.994 199.441 405.522 199.023 404.819C198.608 404.117 198.524 403.308 198.771 402.391L198.813 402.233C198.978 401.618 199.245 401.101 199.612 400.682C199.98 400.259 200.416 399.976 200.92 399.832C201.429 399.685 201.962 399.687 202.52 399.837C203.358 400.062 203.945 400.503 204.283 401.16C204.624 401.817 204.664 402.631 204.404 403.601L204.224 404.268L200.325 403.221C200.271 403.635 200.343 403.999 200.542 404.311C200.745 404.624 201.051 404.836 201.458 404.945C202.088 405.114 202.642 405.018 203.119 404.657L203.681 405.773C203.342 406.054 202.937 406.236 202.466 406.32C201.996 406.4 201.506 406.372 200.996 406.235ZM202.159 401.16C201.835 401.073 201.541 401.111 201.279 401.275C201.02 401.44 200.808 401.719 200.642 402.111L202.917 402.722L202.952 402.592C203.041 402.228 203.018 401.922 202.882 401.675C202.747 401.425 202.506 401.253 202.159 401.16ZM209.152 403.383C208.937 403.293 208.745 403.226 208.575 403.18C207.957 403.014 207.495 403.114 207.19 403.481L206.114 407.488L204.479 407.049L206.123 400.926L207.668 401.341L207.517 402.083C207.996 401.609 208.526 401.45 209.107 401.606C209.288 401.655 209.452 401.725 209.597 401.816L209.152 403.383ZM213.001 401.159L212.597 402.664L213.644 402.945L213.322 404.145L212.275 403.864L211.454 406.92C211.393 407.146 211.393 407.32 211.453 407.441C211.514 407.563 211.667 407.656 211.912 407.722C212.093 407.771 212.257 407.801 212.404 407.812L212.071 409.051C211.724 409.063 211.381 409.023 211.041 408.932C209.894 408.624 209.465 407.888 209.753 406.724L210.639 403.425L209.745 403.185L210.067 401.985L210.961 402.225L211.366 400.72L213.001 401.159ZM213.323 406.081C213.487 405.474 213.749 404.964 214.11 404.551C214.472 404.139 214.907 403.861 215.414 403.718C215.925 403.576 216.471 403.583 217.052 403.739C217.879 403.961 218.484 404.395 218.869 405.04C219.258 405.687 219.366 406.452 219.193 407.336L219.092 407.757C218.84 408.697 218.375 409.381 217.697 409.81C217.021 410.235 216.241 410.329 215.359 410.092C214.476 409.855 213.846 409.382 213.47 408.675C213.098 407.968 213.042 407.128 213.304 406.155L213.323 406.081ZM214.927 406.639C214.771 407.22 214.761 407.695 214.896 408.063C215.033 408.427 215.305 408.664 215.713 408.773C216.109 408.88 216.459 408.812 216.762 408.57C217.067 408.324 217.309 407.867 217.488 407.199C217.641 406.63 217.649 406.159 217.51 405.786C217.372 405.413 217.101 405.172 216.697 405.064C216.297 404.956 215.946 405.03 215.643 405.284C215.341 405.535 215.102 405.986 214.927 406.639ZM223.128 411.389C222.592 411.771 221.968 411.867 221.255 411.675C220.599 411.499 220.148 411.176 219.902 410.705C219.66 410.236 219.633 409.636 219.821 408.906L220.898 404.894L222.534 405.333L221.472 409.288C221.3 409.926 221.505 410.323 222.086 410.479C222.641 410.628 223.073 410.538 223.384 410.209L224.548 405.874L226.189 406.315L224.545 412.437L223.006 412.024L223.128 411.389ZM228.122 410.686L226.764 410.321L228.105 404.56L229.848 405.028L228.122 410.686ZM227.203 411.398C227.478 411.472 227.677 411.612 227.799 411.819C227.926 412.027 227.955 412.257 227.887 412.51C227.82 412.759 227.68 412.942 227.467 413.058C227.257 413.176 227.015 413.198 226.739 413.124C226.467 413.051 226.269 412.91 226.142 412.703C226.02 412.496 225.992 412.268 226.059 412.019C226.126 411.77 226.264 411.587 226.474 411.469C226.688 411.349 226.931 411.325 227.203 411.398ZM231.279 411.534L229.921 411.169L231.262 405.408L233.005 405.876L231.279 411.534ZM230.36 412.246C230.636 412.32 230.835 412.46 230.957 412.667C231.083 412.875 231.112 413.105 231.045 413.358C230.978 413.607 230.838 413.789 230.624 413.906C230.415 414.024 230.172 414.046 229.897 413.972C229.625 413.899 229.426 413.758 229.3 413.551C229.178 413.344 229.15 413.116 229.217 412.867C229.284 412.618 229.422 412.435 229.631 412.317C229.846 412.196 230.089 412.173 230.36 412.246Z" fill="#27AE60"/>
<path d="M256.969 416.224C256.755 416.135 256.563 416.067 256.393 416.021C255.774 415.855 255.312 415.955 255.008 416.323L253.932 420.329L252.296 419.89L253.941 413.767L255.485 414.182L255.335 414.924C255.814 414.45 256.344 414.291 256.925 414.447C257.106 414.496 257.269 414.566 257.414 414.657L256.969 416.224ZM259.204 421.866C258.306 421.625 257.648 421.153 257.23 420.45C256.816 419.749 256.732 418.939 256.978 418.023L257.02 417.864C257.186 417.249 257.452 416.732 257.819 416.313C258.188 415.89 258.624 415.607 259.127 415.463C259.636 415.317 260.169 415.318 260.728 415.468C261.565 415.693 262.153 416.134 262.49 416.791C262.831 417.449 262.871 418.262 262.611 419.232L262.432 419.9L258.533 418.853C258.478 419.267 258.55 419.63 258.75 419.942C258.953 420.256 259.258 420.467 259.665 420.577C260.295 420.746 260.849 420.65 261.326 420.288L261.888 421.404C261.55 421.685 261.145 421.868 260.673 421.951C260.203 422.031 259.713 422.003 259.204 421.866ZM260.366 416.791C260.042 416.704 259.748 416.742 259.486 416.906C259.227 417.072 259.015 417.35 258.849 417.742L261.124 418.353L261.159 418.223C261.248 417.859 261.225 417.553 261.089 417.307C260.954 417.056 260.713 416.884 260.366 416.791ZM265.435 421.277L267.68 417.457L269.389 417.916L265.68 423.484L264.118 423.064L263.696 416.387L265.405 416.846L265.435 421.277ZM270.195 424.697L268.554 424.256L270.199 418.133L271.84 418.574L270.195 424.697ZM270.528 416.523C270.594 416.277 270.729 416.097 270.934 415.982C271.142 415.869 271.388 415.85 271.671 415.926C271.95 416.001 272.151 416.14 272.275 416.343C272.398 416.546 272.427 416.77 272.361 417.015C272.294 417.264 272.155 417.445 271.943 417.558C271.734 417.672 271.492 417.692 271.217 417.618C270.941 417.544 270.74 417.405 270.613 417.201C270.489 416.998 270.461 416.772 270.528 416.523ZM275.318 424.258C275.372 424.058 275.314 423.875 275.144 423.708C274.98 423.538 274.691 423.35 274.277 423.142C272.903 422.445 272.341 421.631 272.592 420.699C272.737 420.156 273.083 419.763 273.63 419.522C274.181 419.277 274.82 419.253 275.548 419.448C276.325 419.657 276.897 420.007 277.263 420.497C277.632 420.989 277.738 421.527 277.581 422.112L275.946 421.672C276.009 421.439 275.985 421.226 275.875 421.034C275.765 420.839 275.55 420.699 275.23 420.612C274.954 420.539 274.724 420.544 274.54 420.627C274.356 420.711 274.238 420.85 274.186 421.042C274.137 421.223 274.183 421.393 274.322 421.552C274.466 421.708 274.731 421.882 275.116 422.074C275.502 422.263 275.821 422.446 276.073 422.623C276.852 423.172 277.136 423.836 276.927 424.617C276.777 425.176 276.416 425.564 275.843 425.783C275.272 425.997 274.607 426.003 273.849 425.799C273.336 425.661 272.904 425.448 272.552 425.16C272.206 424.868 271.962 424.534 271.821 424.156C271.681 423.775 271.66 423.399 271.759 423.03L273.31 423.446C273.247 423.74 273.295 423.992 273.453 424.2C273.611 424.409 273.859 424.558 274.194 424.648C274.507 424.732 274.759 424.737 274.949 424.663C275.143 424.585 275.267 424.451 275.318 424.258ZM280.3 427.531C279.402 427.29 278.744 426.818 278.326 426.116C277.912 425.414 277.828 424.605 278.074 423.688L278.117 423.529C278.282 422.915 278.548 422.398 278.915 421.978C279.284 421.556 279.72 421.272 280.224 421.129C280.732 420.982 281.266 420.984 281.824 421.134C282.661 421.358 283.249 421.799 283.586 422.456C283.927 423.114 283.968 423.928 283.707 424.897L283.528 425.565L279.629 424.518C279.574 424.932 279.647 425.295 279.846 425.608C280.049 425.921 280.354 426.132 280.762 426.242C281.392 426.411 281.945 426.315 282.422 425.954L282.984 427.069C282.646 427.351 282.241 427.533 281.77 427.617C281.299 427.697 280.809 427.668 280.3 427.531ZM281.463 422.456C281.138 422.369 280.845 422.408 280.582 422.572C280.324 422.737 280.111 423.015 279.945 423.408L282.22 424.019L282.255 423.888C282.345 423.524 282.322 423.219 282.186 422.972C282.051 422.721 281.81 422.549 281.463 422.456ZM287.251 425.934C287.414 425.326 287.676 424.817 288.038 424.404C288.4 423.991 288.834 423.714 289.342 423.571C289.853 423.429 290.399 423.436 290.98 423.592C291.806 423.814 292.412 424.248 292.797 424.893C293.185 425.54 293.293 426.305 293.121 427.189L293.019 427.61C292.767 428.55 292.302 429.234 291.625 429.663C290.949 430.088 290.169 430.182 289.286 429.945C288.403 429.708 287.774 429.235 287.398 428.528C287.025 427.821 286.97 426.981 287.231 426.007L287.251 425.934ZM288.855 426.492C288.698 427.073 288.688 427.547 288.824 427.916C288.961 428.28 289.233 428.517 289.64 428.626C290.036 428.733 290.386 428.665 290.69 428.423C290.995 428.177 291.237 427.72 291.416 427.052C291.569 426.483 291.576 426.011 291.438 425.639C291.299 425.266 291.028 425.025 290.624 424.917C290.225 424.809 289.873 424.883 289.57 425.137C289.268 425.388 289.03 425.839 288.855 426.492ZM297.055 431.242C296.52 431.624 295.896 431.72 295.183 431.528C294.526 431.352 294.075 431.029 293.83 430.558C293.588 430.089 293.561 429.489 293.749 428.759L294.826 424.747L296.461 425.186L295.399 429.141C295.228 429.779 295.433 430.176 296.014 430.332C296.568 430.481 297.001 430.391 297.312 430.061L298.476 425.727L300.117 426.167L298.473 432.29L296.934 431.877L297.055 431.242ZM303.713 425.519L303.309 427.025L304.356 427.306L304.033 428.505L302.986 428.224L302.166 431.28C302.105 431.506 302.105 431.68 302.165 431.802C302.226 431.923 302.379 432.017 302.624 432.082C302.805 432.131 302.969 432.161 303.115 432.172L302.783 433.411C302.436 433.423 302.092 433.384 301.753 433.293C300.606 432.985 300.177 432.248 300.465 431.084L301.351 427.785L300.457 427.545L300.779 426.345L301.673 426.585L302.077 425.08L303.713 425.519ZM308.295 430.008C308.081 429.918 307.889 429.85 307.719 429.805C307.1 429.638 306.639 429.739 306.334 430.106L305.258 434.112L303.622 433.673L305.267 427.55L306.811 427.965L306.661 428.707C307.14 428.233 307.67 428.074 308.251 428.23C308.432 428.279 308.595 428.349 308.74 428.441L308.295 430.008ZM308.234 431.569C308.397 430.961 308.66 430.451 309.021 430.039C309.383 429.626 309.817 429.349 310.325 429.206C310.836 429.064 311.382 429.071 311.963 429.227C312.789 429.449 313.395 429.883 313.78 430.528C314.168 431.174 314.276 431.94 314.104 432.823L314.003 433.245C313.75 434.185 313.285 434.869 312.608 435.298C311.932 435.723 311.152 435.817 310.269 435.58C309.387 435.343 308.757 434.87 308.381 434.162C308.009 433.456 307.953 432.616 308.214 431.642L308.234 431.569ZM309.838 432.127C309.682 432.708 309.671 433.182 309.807 433.55C309.944 433.915 310.216 434.152 310.623 434.261C311.02 434.367 311.369 434.3 311.673 434.058C311.978 433.812 312.22 433.355 312.399 432.687C312.552 432.118 312.559 431.646 312.421 431.273C312.282 430.901 312.011 430.66 311.608 430.551C311.208 430.444 310.856 430.518 310.553 430.772C310.251 431.023 310.013 431.474 309.838 432.127ZM317.975 435.714C318.029 435.514 317.971 435.33 317.801 435.163C317.636 434.994 317.347 434.805 316.934 434.597C315.56 433.9 314.998 433.086 315.248 432.154C315.394 431.611 315.74 431.218 316.286 430.977C316.837 430.732 317.477 430.708 318.205 430.903C318.982 431.112 319.553 431.462 319.919 431.952C320.289 432.444 320.395 432.982 320.238 433.567L318.603 433.128C318.665 432.894 318.642 432.681 318.531 432.49C318.422 432.294 318.207 432.154 317.886 432.068C317.611 431.994 317.381 431.999 317.197 432.083C317.012 432.167 316.894 432.305 316.843 432.497C316.794 432.678 316.839 432.848 316.979 433.007C317.123 433.163 317.387 433.337 317.773 433.53C318.159 433.718 318.478 433.901 318.73 434.078C319.508 434.627 319.793 435.292 319.583 436.073C319.433 436.631 319.072 437.019 318.5 437.238C317.929 437.452 317.264 437.458 316.505 437.254C315.992 437.116 315.56 436.903 315.209 436.615C314.862 436.324 314.619 435.989 314.477 435.612C314.337 435.23 314.317 434.854 314.416 434.485L315.966 434.901C315.904 435.196 315.951 435.447 316.11 435.656C316.268 435.864 316.515 436.013 316.851 436.103C317.164 436.187 317.416 436.192 317.605 436.118C317.8 436.041 317.923 435.906 317.975 435.714ZM326.603 439.845C326.567 439.677 326.562 439.48 326.586 439.252C326.072 439.587 325.497 439.669 324.864 439.499C324.264 439.338 323.812 439.03 323.51 438.577C323.21 438.125 323.132 437.634 323.274 437.106C323.448 436.457 323.821 436.024 324.393 435.805C324.97 435.588 325.713 435.599 326.623 435.84L327.376 436.042L327.47 435.691C327.546 435.408 327.533 435.162 327.431 434.953C327.334 434.744 327.128 434.598 326.815 434.514C326.54 434.44 326.305 434.448 326.111 434.537C325.921 434.628 325.795 434.788 325.733 435.018L324.098 434.579C324.193 434.224 324.391 433.926 324.69 433.683C324.99 433.44 325.363 433.287 325.808 433.224C326.255 433.158 326.727 433.192 327.225 433.326C327.98 433.528 328.526 433.88 328.866 434.379C329.209 434.876 329.289 435.468 329.105 436.154L328.392 438.808C328.24 439.39 328.203 439.852 328.281 440.192L328.255 440.288L326.603 439.845ZM325.556 438.344C325.797 438.409 326.034 438.416 326.266 438.365C326.499 438.31 326.689 438.205 326.836 438.051L327.119 436.998L326.508 436.834C325.689 436.614 325.177 436.78 324.972 437.332L324.941 437.426C324.886 437.63 324.913 437.817 325.021 437.988C325.129 438.158 325.307 438.277 325.556 438.344ZM333.039 439.759C333.093 439.559 333.035 439.376 332.865 439.209C332.7 439.039 332.411 438.85 331.998 438.642C330.624 437.945 330.062 437.131 330.312 436.199C330.458 435.656 330.804 435.264 331.35 435.022C331.901 434.778 332.541 434.753 333.269 434.949C334.046 435.158 334.617 435.507 334.983 435.998C335.353 436.489 335.459 437.027 335.302 437.612L333.667 437.173C333.729 436.939 333.706 436.726 333.595 436.535C333.486 436.34 333.271 436.199 332.95 436.113C332.675 436.039 332.445 436.044 332.261 436.128C332.076 436.212 331.958 436.35 331.906 436.543C331.858 436.724 331.903 436.894 332.043 437.052C332.187 437.208 332.451 437.383 332.837 437.575C333.223 437.764 333.542 437.946 333.794 438.123C334.572 438.672 334.857 439.337 334.647 440.118C334.497 440.676 334.136 441.065 333.564 441.283C332.993 441.498 332.328 441.503 331.569 441.3C331.056 441.162 330.624 440.949 330.273 440.66C329.926 440.369 329.683 440.035 329.541 439.657C329.401 439.275 329.381 438.9 329.48 438.53L331.03 438.946C330.967 439.241 331.015 439.492 331.174 439.701C331.332 439.909 331.579 440.059 331.915 440.149C332.228 440.233 332.48 440.238 332.669 440.163C332.864 440.086 332.987 439.951 333.039 439.759ZM339.003 441.361C339.057 441.161 338.999 440.977 338.829 440.81C338.665 440.641 338.376 440.452 337.962 440.244C336.588 439.547 336.026 438.733 336.277 437.801C336.422 437.258 336.768 436.865 337.315 436.624C337.866 436.379 338.505 436.355 339.233 436.551C340.01 436.759 340.582 437.109 340.948 437.599C341.317 438.091 341.423 438.629 341.266 439.214L339.631 438.775C339.694 438.541 339.67 438.328 339.56 438.137C339.45 437.942 339.235 437.801 338.915 437.715C338.639 437.641 338.409 437.646 338.225 437.73C338.041 437.814 337.923 437.952 337.871 438.144C337.822 438.325 337.868 438.495 338.007 438.654C338.151 438.81 338.416 438.984 338.801 439.177C339.187 439.365 339.506 439.548 339.758 439.725C340.537 440.274 340.821 440.939 340.612 441.72C340.462 442.278 340.101 442.666 339.528 442.885C338.957 443.099 338.292 443.105 337.534 442.901C337.021 442.764 336.589 442.55 336.237 442.262C335.891 441.971 335.647 441.636 335.506 441.259C335.366 440.877 335.345 440.502 335.444 440.132L336.995 440.548C336.932 440.843 336.98 441.094 337.138 441.303C337.297 441.511 337.544 441.66 337.879 441.75C338.192 441.834 338.444 441.839 338.634 441.765C338.828 441.688 338.952 441.553 339.003 441.361ZM345.031 444.126C344.496 444.508 343.872 444.603 343.159 444.412C342.502 444.236 342.051 443.912 341.805 443.442C341.564 442.972 341.537 442.373 341.724 441.642L342.802 437.63L344.437 438.069L343.375 442.025C343.204 442.663 343.409 443.059 343.99 443.215C344.544 443.364 344.977 443.274 345.288 442.945L346.452 438.61L348.093 439.051L346.449 445.174L344.909 444.761L345.031 444.126ZM350.832 439.787L350.693 440.508C351.277 440.078 351.937 439.962 352.673 440.16C353.322 440.334 353.754 440.654 353.968 441.12C354.183 441.586 354.192 442.2 353.996 442.96L352.934 446.916L351.298 446.476L352.35 442.56C352.443 442.213 352.435 441.942 352.326 441.747C352.217 441.548 351.988 441.401 351.637 441.307C351.177 441.184 350.779 441.287 350.443 441.618L349.284 445.935L347.648 445.496L349.293 439.373L350.832 439.787ZM358.185 440.148L357.781 441.653L358.828 441.934L358.506 443.134L357.459 442.852L356.638 445.908C356.577 446.135 356.577 446.309 356.638 446.43C356.698 446.551 356.851 446.645 357.096 446.711C357.277 446.759 357.441 446.789 357.588 446.8L357.255 448.04C356.908 448.052 356.565 448.012 356.225 447.921C355.078 447.613 354.649 446.877 354.937 445.712L355.823 442.413L354.929 442.173L355.251 440.974L356.146 441.214L356.55 439.708L358.185 440.148ZM358.508 445.069C358.671 444.462 358.933 443.952 359.295 443.54C359.656 443.127 360.091 442.849 360.598 442.707C361.109 442.565 361.656 442.572 362.237 442.728C363.063 442.95 363.668 443.383 364.053 444.029C364.442 444.675 364.55 445.44 364.377 446.324L364.276 446.746C364.024 447.685 363.559 448.369 362.882 448.798C362.205 449.223 361.426 449.317 360.543 449.08C359.66 448.843 359.031 448.371 358.654 447.663C358.282 446.956 358.226 446.116 358.488 445.143L358.508 445.069ZM360.111 445.628C359.955 446.208 359.945 446.683 360.081 447.051C360.217 447.415 360.49 447.652 360.897 447.762C361.293 447.868 361.643 447.8 361.947 447.558C362.251 447.312 362.493 446.856 362.673 446.188C362.826 445.618 362.833 445.147 362.694 444.774C362.556 444.401 362.285 444.161 361.881 444.052C361.481 443.945 361.13 444.018 360.827 444.273C360.525 444.523 360.286 444.975 360.111 445.628ZM368.248 449.214C368.302 449.014 368.244 448.831 368.075 448.664C367.91 448.494 367.621 448.306 367.207 448.097C365.833 447.401 365.271 446.587 365.522 445.655C365.667 445.111 366.014 444.719 366.56 444.477C367.111 444.233 367.75 444.209 368.478 444.404C369.256 444.613 369.827 444.963 370.193 445.453C370.562 445.945 370.668 446.483 370.511 447.068L368.876 446.628C368.939 446.394 368.915 446.182 368.805 445.99C368.695 445.795 368.48 445.655 368.16 445.568C367.884 445.494 367.654 445.499 367.47 445.583C367.286 445.667 367.168 445.806 367.116 445.998C367.067 446.179 367.113 446.349 367.252 446.508C367.396 446.664 367.661 446.838 368.046 447.03C368.432 447.219 368.751 447.402 369.003 447.579C369.782 448.127 370.066 448.792 369.857 449.573C369.707 450.132 369.346 450.52 368.773 450.738C368.202 450.953 367.537 450.959 366.779 450.755C366.266 450.617 365.834 450.404 365.482 450.116C365.136 449.824 364.892 449.49 364.751 449.112C364.611 448.731 364.59 448.355 364.689 447.985L366.24 448.402C366.177 448.696 366.225 448.948 366.383 449.156C366.542 449.365 366.789 449.514 367.124 449.604C367.438 449.688 367.689 449.693 367.879 449.619C368.074 449.541 368.197 449.407 368.248 449.214Z" fill="#2ECDFF"/>
<path d="M251.364 420.853L369.505 452.579L369.353 453.145L251.212 421.419L251.364 420.853Z" fill="#2ECDFF"/>
<defs>
<filter id="filter0_d_12_7" x="0.364021" y="39.3335" width="384.205" height="467.144" filterUnits="userSpaceOnUse" color-interpolation-filters="sRGB">
<feFlood flood-opacity="0" result="BackgroundImageFix"/>
<feColorMatrix in="SourceAlpha" type="matrix" values="0 0 0 0 0 0 0 0 0 0 0 0 0 0 0 0 0 0 127 0" result="hardAlpha"/>
<feOffset dy="4"/>
<feGaussianBlur stdDeviation="2"/>
<feComposite in2="hardAlpha" operator="out"/>
<feColorMatrix type="matrix" values="0 0 0 0 0 0 0 0 0 0 0 0 0 0 0 0 0 0 0.25 0"/>
<feBlend mode="normal" in2="BackgroundImageFix" result="effect1_dropShadow_12_7"/>
<feBlend mode="normal" in="SourceGraphic" in2="effect1_dropShadow_12_7" result="shape"/>
</filter>
<filter id="filter1_d_12_7" x="59.5896" y="34.5592" width="351.781" height="444.016" filterUnits="userSpaceOnUse" color-interpolation-filters="sRGB">
<feFlood flood-opacity="0" result="BackgroundImageFix"/>
<feColorMatrix in="SourceAlpha" type="matrix" values="0 0 0 0 0 0 0 0 0 0 0 0 0 0 0 0 0 0 127 0" result="hardAlpha"/>
<feOffset dy="4"/>
<feGaussianBlur stdDeviation="2"/>
<feComposite in2="hardAlpha" operator="out"/>
<feColorMatrix type="matrix" values="0 0 0 0 0 0 0 0 0 0 0 0 0 0 0 0 0 0 0.25 0"/>
<feBlend mode="normal" in2="BackgroundImageFix" result="effect1_dropShadow_12_7"/>
<feBlend mode="normal" in="SourceGraphic" in2="effect1_dropShadow_12_7" result="shape"/>
</filter>
<filter id="filter2_d_12_7" x="90.1931" y="7.19646" width="430.858" height="497.262" filterUnits="userSpaceOnUse" color-interpolation-filters="sRGB">
<feFlood flood-opacity="0" result="BackgroundImageFix"/>
<feColorMatrix in="SourceAlpha" type="matrix" values="0 0 0 0 0 0 0 0 0 0 0 0 0 0 0 0 0 0 127 0" result="hardAlpha"/>
<feOffset dy="4"/>
<feGaussianBlur stdDeviation="2"/>
<feComposite in2="hardAlpha" operator="out"/>
<feColorMatrix type="matrix" values="0 0 0 0 0 0 0 0 0 0 0 0 0 0 0 0 0 0 0.25 0"/>
<feBlend mode="normal" in2="BackgroundImageFix" result="effect1_dropShadow_12_7"/>
<feBlend mode="normal" in="SourceGraphic" in2="effect1_dropShadow_12_7" result="shape"/>
</filter>
</defs>
</svg>
