<svg width="144" height="144" viewBox="0 0 144 144" fill="none" xmlns="http://www.w3.org/2000/svg">
<rect width="144" height="144" fill="#00DBE9"/>
<path d="M101.32 60.4461L43.9587 60.4461L44.3007 70.3244C44.4634 75.0239 45.2062 79.6853 46.5121 84.2026C47.5711 87.8659 48.9603 91.4256 50.6625 94.8379L52.2818 98.0839C53.3793 100.284 54.6364 102.401 56.0428 104.418L56.6954 105.354C57.6661 106.745 58.7861 108.027 60.0354 109.175L60.8409 109.916C62.2788 111.237 63.9758 112.246 65.8242 112.876L66.8447 113.225C71.4206 114.786 76.4736 113.968 80.3231 111.043C84.0265 108.126 87.4023 104.816 90.391 101.17L91.0638 100.35L91.2822 99.9639C93.9378 95.2738 96.053 90.2978 97.5875 85.1312C99.1715 79.7979 100.196 74.3143 100.646 68.7689L101.32 60.4461Z" fill="#E1E0E0" stroke="#E1E0E0" stroke-width="2"/>
<path d="M100.849 65.6505C100.849 67.7946 100.637 69.2661 100.268 70.2262C99.9062 71.1652 99.421 71.5581 98.868 71.6816C98.2649 71.8164 97.4569 71.6619 96.4057 71.2094C95.3675 70.7625 94.1718 70.0609 92.8253 69.2073C92.1613 68.7863 91.4622 68.3293 90.7321 67.8519C88.5248 66.4088 86.033 64.7797 83.3642 63.3989C79.8053 61.5575 75.8704 60.1224 71.7519 60.1224C67.632 60.1224 63.7698 61.5584 60.3188 63.4019C57.6446 64.8305 55.1845 66.5234 53.0357 68.002C52.4172 68.4277 51.8244 68.8356 51.2597 69.2143C49.9862 70.0686 48.8647 70.7688 47.8962 71.2145C46.9128 71.6669 46.1786 71.8126 45.6428 71.6835C45.158 71.5667 44.7105 71.1897 44.3741 70.2389C44.0325 69.2737 43.8389 67.7971 43.8389 65.6505C43.8389 48.5743 56.6369 34.799 72.3439 34.799C88.0508 34.799 100.849 48.5743 100.849 65.6505Z" fill="#E1E0E0" stroke="#E1E0E0"/>
<path d="M81.5109 90.6829C81.5109 96.7184 77.0244 101.538 71.577 101.538C66.1296 101.538 61.6431 96.7184 61.6431 90.6829C61.6431 84.6475 66.1296 79.8284 71.577 79.8284C77.0244 79.8284 81.5109 84.6475 81.5109 90.6829Z" fill="#231F20" stroke="#231F20"/>
<path d="M55.1991 55.3673L90.517 55.3674C89.1958 47.9574 83.3376 42.1907 75.9078 40.9862L73.9425 40.6676C73.2882 40.5615 72.6239 40.5312 71.9628 40.5773L71.2556 40.6266C63.6421 41.1571 57.2616 46.5844 55.5169 54.0143L55.1991 55.3673Z" fill="#231F20" stroke="#231F20"/>
<path d="M43.8138 66.1526C43.8138 66.7274 43.8624 67.223 43.9019 67.6253C43.904 67.647 43.9061 67.6684 43.9082 67.6896C43.9509 68.1265 43.9706 68.394 43.9402 68.5835C43.9269 68.6666 43.9071 68.7084 43.8921 68.7308C43.8792 68.75 43.8563 68.7761 43.7986 68.8056C43.6601 68.8763 43.3772 68.9396 42.8096 68.9396C40.7565 68.9396 39.0979 67.2873 39.0979 65.2562C39.0979 63.225 40.7565 61.5728 42.8096 61.5728C43.2853 61.5728 43.5128 61.7091 43.6441 61.8644C43.7951 62.043 43.8965 62.3372 43.9358 62.7896C43.9746 63.2361 43.9479 63.7623 43.9071 64.3494C43.9009 64.4379 43.8944 64.5277 43.8879 64.6186C43.8519 65.1162 43.8138 65.6453 43.8138 66.1526Z" fill="#ACACAC" stroke="#ACACAC"/>
<line x1="40.3074" y1="67.6695" x2="37.351" y2="78.3127" stroke="#ACACAC"/>
<path d="M41.3041 68.4227L39.2345 79.0659" stroke="#ACACAC"/>
<circle cx="37.4824" cy="81.1533" r="2.56784" fill="#C4C4C4" stroke="#ACACAC"/>
<line x1="36.1865" y1="83.5171" x2="35.5952" y2="101.256" stroke="#ACACAC"/>
<line x1="37.9823" y1="84.2212" x2="37.9823" y2="101.234" stroke="#ACACAC"/>
<path d="M106.706 65.5351C106.706 67.4295 105.219 68.9397 103.416 68.9397C102.963 68.9397 102.626 68.8457 102.371 68.6992C102.117 68.5533 101.915 68.3388 101.755 68.0524C101.425 67.4609 101.291 66.5914 101.291 65.5351C101.291 64.4789 101.425 63.6094 101.755 63.0179C101.915 62.7315 102.117 62.517 102.371 62.3711C102.626 62.2246 102.963 62.1306 103.416 62.1306C105.219 62.1306 106.706 63.6408 106.706 65.5351Z" fill="#ACACAC" stroke="#ACACAC"/>
<line x1="104.763" y1="69.1949" x2="107.128" y2="79.2469" stroke="#ACACAC"/>
<line x1="105.931" y1="68.5519" x2="109.478" y2="78.6038" stroke="#ACACAC"/>
<path d="M110.889 81.1533C110.889 82.5936 109.78 83.7211 108.461 83.7211C107.141 83.7211 106.033 82.5936 106.033 81.1533C106.033 79.7129 107.141 78.5854 108.461 78.5854C109.78 78.5854 110.889 79.7129 110.889 81.1533Z" fill="#ACACAC" stroke="#ACACAC"/>
<circle cx="98.142" cy="63.1645" r="1.03392" fill="#231F20" stroke="#231F20"/>
<circle cx="71.5074" cy="110.437" r="0.894471" fill="#231F20" stroke="#231F20"/>
<path d="M48.1379 63.1645C48.1379 63.7815 47.6937 64.1985 47.2435 64.1985C46.7932 64.1985 46.349 63.7815 46.349 63.1645C46.349 62.5476 46.7932 62.1306 47.2435 62.1306C47.6937 62.1306 48.1379 62.5476 48.1379 63.1645Z" fill="#C4C4C4" stroke="#ACACAC"/>
<line x1="107.706" y1="83.3844" x2="107.706" y2="101.234" stroke="#ACACAC"/>
<line x1="109.379" y1="83.3844" x2="109.379" y2="101.234" stroke="#ACACAC"/>
<path d="M112.027 104.144C112.35 104.915 112.437 105.766 112.278 106.587C112.239 106.787 112.162 106.871 112.115 106.905C112.066 106.94 111.995 106.961 111.897 106.944C111.694 106.91 111.406 106.706 111.302 106.285L110.943 104.833C110.214 101.877 106.004 101.894 105.299 104.857L104.953 106.311C104.852 106.733 104.566 106.94 104.363 106.976C104.265 106.993 104.194 106.973 104.145 106.938C104.097 106.904 104.02 106.821 103.98 106.621C103.813 105.801 103.893 104.95 104.21 104.176C104.527 103.402 105.067 102.739 105.76 102.271C106.454 101.803 107.271 101.552 108.108 101.548C108.944 101.545 109.763 101.79 110.461 102.252C111.158 102.714 111.703 103.372 112.027 104.144Z" fill="#C4C4C4" stroke="#ACACAC"/>
<path d="M40.4805 104.144C40.8038 104.915 40.8911 105.766 40.7313 106.587C40.6922 106.787 40.6161 106.871 40.5683 106.905C40.5194 106.94 40.4489 106.961 40.3512 106.944C40.1473 106.91 39.8593 106.706 39.7553 106.285L39.3971 104.833C38.6674 101.877 34.4582 101.894 33.7529 104.857L33.4067 106.311C33.3061 106.733 33.0199 106.94 32.8162 106.976C32.7187 106.993 32.648 106.973 32.5988 106.938C32.5508 106.904 32.4739 106.821 32.4332 106.621C32.2666 105.801 32.3469 104.95 32.6639 104.176C32.9809 103.402 33.5204 102.739 34.2141 102.271C34.9079 101.803 35.7247 101.552 36.5614 101.548C37.3981 101.545 38.217 101.79 38.9146 102.252C39.6122 102.714 40.1571 103.372 40.4805 104.144Z" fill="#C4C4C4" stroke="#ACACAC"/>
<path d="M101.32 60.4461L43.9587 60.4461L44.3007 70.3244C44.4634 75.0239 45.2062 79.6853 46.5121 84.2026C47.5711 87.8659 48.9603 91.4256 50.6625 94.8379L52.2818 98.0839C53.3793 100.284 54.6364 102.401 56.0428 104.418L56.6954 105.354C57.6661 106.745 58.7861 108.027 60.0354 109.175L60.8409 109.916C62.2788 111.237 63.9758 112.246 65.8242 112.876L66.8447 113.225C71.4206 114.786 76.4736 113.968 80.3231 111.043C84.0265 108.126 87.4023 104.816 90.391 101.17L91.0638 100.35L91.2822 99.9639C93.9378 95.2738 96.053 90.2978 97.5875 85.1312C99.1715 79.7979 100.196 74.3143 100.646 68.7689L101.32 60.4461Z" fill="#E1E0E0" stroke="#E1E0E0" stroke-width="2"/>
<path d="M100.849 65.6505C100.849 67.7946 100.637 69.2661 100.268 70.2262C99.9062 71.1652 99.421 71.5581 98.868 71.6816C98.2649 71.8164 97.4569 71.6619 96.4057 71.2094C95.3675 70.7625 94.1718 70.0609 92.8253 69.2073C92.1613 68.7863 91.4622 68.3293 90.7321 67.8519C88.5248 66.4088 86.033 64.7797 83.3642 63.3989C79.8053 61.5575 75.8704 60.1224 71.7519 60.1224C67.632 60.1224 63.7698 61.5584 60.3188 63.4019C57.6446 64.8305 55.1845 66.5234 53.0357 68.002C52.4172 68.4277 51.8244 68.8356 51.2597 69.2143C49.9862 70.0686 48.8647 70.7688 47.8962 71.2145C46.9128 71.6669 46.1786 71.8126 45.6428 71.6835C45.158 71.5667 44.7105 71.1897 44.3741 70.2389C44.0325 69.2737 43.8389 67.7971 43.8389 65.6505C43.8389 48.5743 56.6369 34.799 72.3439 34.799C88.0508 34.799 100.849 48.5743 100.849 65.6505Z" fill="#E1E0E0" stroke="#E1E0E0"/>
<path d="M81.5109 90.6829C81.5109 96.7184 77.0244 101.538 71.577 101.538C66.1296 101.538 61.6431 96.7184 61.6431 90.6829C61.6431 84.6475 66.1296 79.8284 71.577 79.8284C77.0244 79.8284 81.5109 84.6475 81.5109 90.6829Z" fill="#231F20" stroke="#231F20"/>
<path d="M55.1991 55.3673L90.517 55.3674C89.1958 47.9574 83.3376 42.1907 75.9078 40.9862L73.9425 40.6676C73.2882 40.5615 72.6239 40.5312 71.9628 40.5773L71.2556 40.6266C63.6421 41.1571 57.2616 46.5844 55.5169 54.0143L55.1991 55.3673Z" fill="#231F20" stroke="#231F20"/>
<path d="M43.8138 66.1526C43.8138 66.7274 43.8624 67.223 43.9019 67.6253C43.904 67.647 43.9061 67.6684 43.9082 67.6896C43.9509 68.1265 43.9706 68.394 43.9402 68.5835C43.9269 68.6666 43.9071 68.7084 43.8921 68.7308C43.8792 68.75 43.8563 68.7761 43.7986 68.8056C43.6601 68.8763 43.3772 68.9396 42.8096 68.9396C40.7565 68.9396 39.0979 67.2873 39.0979 65.2562C39.0979 63.225 40.7565 61.5728 42.8096 61.5728C43.2853 61.5728 43.5128 61.7091 43.6441 61.8644C43.7951 62.043 43.8965 62.3372 43.9358 62.7896C43.9746 63.2361 43.9479 63.7623 43.9071 64.3494C43.9009 64.4379 43.8944 64.5277 43.8879 64.6186C43.8519 65.1162 43.8138 65.6453 43.8138 66.1526Z" fill="#ACACAC" stroke="#ACACAC"/>
<line x1="40.3074" y1="67.6695" x2="37.351" y2="78.3127" stroke="#ACACAC"/>
<path d="M41.3041 68.4227L39.2345 79.0659" stroke="#ACACAC"/>
<circle cx="37.4824" cy="81.1533" r="2.56784" fill="#C4C4C4" stroke="#ACACAC"/>
<line x1="36.1865" y1="83.5171" x2="35.5952" y2="101.256" stroke="#ACACAC"/>
<line x1="37.9823" y1="84.2212" x2="37.9823" y2="101.234" stroke="#ACACAC"/>
<path d="M106.706 65.5351C106.706 67.4295 105.219 68.9397 103.416 68.9397C102.963 68.9397 102.626 68.8457 102.371 68.6992C102.117 68.5533 101.915 68.3388 101.755 68.0524C101.425 67.4609 101.291 66.5914 101.291 65.5351C101.291 64.4789 101.425 63.6094 101.755 63.0179C101.915 62.7315 102.117 62.517 102.371 62.3711C102.626 62.2246 102.963 62.1306 103.416 62.1306C105.219 62.1306 106.706 63.6408 106.706 65.5351Z" fill="#ACACAC" stroke="#ACACAC"/>
<line x1="104.763" y1="69.1949" x2="107.128" y2="79.2469" stroke="#ACACAC"/>
<line x1="105.931" y1="68.5519" x2="109.478" y2="78.6038" stroke="#ACACAC"/>
<path d="M110.889 81.1533C110.889 82.5936 109.78 83.7211 108.461 83.7211C107.141 83.7211 106.033 82.5936 106.033 81.1533C106.033 79.7129 107.141 78.5854 108.461 78.5854C109.78 78.5854 110.889 79.7129 110.889 81.1533Z" fill="#ACACAC" stroke="#ACACAC"/>
<circle cx="98.142" cy="63.1645" r="1.03392" fill="#231F20" stroke="#231F20"/>
<circle cx="71.5074" cy="110.437" r="0.894471" fill="#231F20" stroke="#231F20"/>
<path d="M48.1379 63.1645C48.1379 63.7815 47.6937 64.1985 47.2435 64.1985C46.7932 64.1985 46.349 63.7815 46.349 63.1645C46.349 62.5476 46.7932 62.1306 47.2435 62.1306C47.6937 62.1306 48.1379 62.5476 48.1379 63.1645Z" fill="#C4C4C4" stroke="#ACACAC"/>
<line x1="107.706" y1="83.3844" x2="107.706" y2="101.234" stroke="#ACACAC"/>
<line x1="109.379" y1="83.3844" x2="109.379" y2="101.234" stroke="#ACACAC"/>
<path d="M112.027 104.144C112.35 104.915 112.437 105.766 112.278 106.587C112.239 106.787 112.162 106.871 112.115 106.905C112.066 106.94 111.995 106.961 111.897 106.944C111.694 106.91 111.406 106.706 111.302 106.285L110.943 104.833C110.214 101.877 106.004 101.894 105.299 104.857L104.953 106.311C104.852 106.733 104.566 106.94 104.363 106.976C104.265 106.993 104.194 106.973 104.145 106.938C104.097 106.904 104.02 106.821 103.98 106.621C103.813 105.801 103.893 104.95 104.21 104.176C104.527 103.402 105.067 102.739 105.76 102.271C106.454 101.803 107.271 101.552 108.108 101.548C108.944 101.545 109.763 101.79 110.461 102.252C111.158 102.714 111.703 103.372 112.027 104.144Z" fill="#C4C4C4" stroke="#ACACAC"/>
<path d="M40.4805 104.144C40.8038 104.915 40.8911 105.766 40.7313 106.587C40.6922 106.787 40.6161 106.871 40.5683 106.905C40.5194 106.94 40.4489 106.961 40.3512 106.944C40.1473 106.91 39.8593 106.706 39.7553 106.285L39.3971 104.833C38.6674 101.877 34.4582 101.894 33.7529 104.857L33.4067 106.311C33.3061 106.733 33.0199 106.94 32.8162 106.976C32.7187 106.993 32.648 106.973 32.5988 106.938C32.5508 106.904 32.4739 106.821 32.4332 106.621C32.2666 105.801 32.3469 104.95 32.6639 104.176C32.9809 103.402 33.5204 102.739 34.2141 102.271C34.9079 101.803 35.7247 101.552 36.5614 101.548C37.3981 101.545 38.217 101.79 38.9146 102.252C39.6122 102.714 40.1571 103.372 40.4805 104.144Z" fill="#C4C4C4" stroke="#ACACAC"/>
<circle cx="79.7093" cy="49.1007" r="2.60848" fill="#00DBE9"/>
<circle cx="66.2066" cy="49.1007" r="2.60848" fill="#00DBE9"/>
<path d="M86.3902 63.9757L87.8417 61.8362C78.5766 68.0777 66.2971 67.6873 57.389 60.9462C60.016 66.66 65.4329 70.5899 71.6798 71.3142L72.3531 71.3922C77.974 71.4068 83.2347 68.6273 86.3902 63.9757Z" fill="white" stroke="white"/>
</svg>
