<svg width="24" height="24" viewBox="0 0 24 24" fill="none" xmlns="http://www.w3.org/2000/svg">
<g clip-path="url(#clip0_10_12)">
<path d="M22.3901 6.27012C21.3171 4.43154 19.8615 2.97594 18.0231 1.90299C16.1844 0.829979 14.1771 0.29361 11.9998 0.29361C9.82276 0.29361 7.8148 0.830143 5.97651 1.90299C4.13793 2.97589 2.68244 4.43154 1.60937 6.27012C0.536479 8.10864 0 10.1163 0 12.2931C0 14.9079 0.76288 17.2592 2.28903 19.3476C3.815 21.4361 5.78633 22.8813 8.20287 23.6833C8.48416 23.7356 8.69239 23.6988 8.82779 23.5741C8.96323 23.4492 9.03087 23.2928 9.03087 23.1056C9.03087 23.0743 9.02819 22.7932 9.02299 22.2619C9.01763 21.7305 9.01511 21.2669 9.01511 20.8715L8.65572 20.9336C8.42659 20.9756 8.13752 20.9935 7.78853 20.9884C7.43972 20.9835 7.0776 20.9469 6.70267 20.8789C6.32757 20.8116 5.97869 20.6553 5.65576 20.4105C5.33299 20.1657 5.10385 19.8453 4.9684 19.4499L4.81216 19.0903C4.70801 18.8509 4.54405 18.5849 4.32007 18.2935C4.09607 18.0017 3.86956 17.804 3.64043 17.6999L3.53103 17.6215C3.45813 17.5695 3.39049 17.5067 3.32793 17.4339C3.26544 17.3611 3.21865 17.2881 3.1874 17.2151C3.15609 17.1421 3.18204 17.0821 3.26549 17.0352C3.34895 16.9881 3.49977 16.9653 3.71863 16.9653L4.031 17.012C4.23935 17.0537 4.49705 17.1784 4.80444 17.3869C5.11168 17.5952 5.36424 17.866 5.56217 18.1992C5.80188 18.6264 6.09067 18.9519 6.42936 19.1759C6.76779 19.3999 7.10901 19.5116 7.45268 19.5116C7.79636 19.5116 8.0932 19.4856 8.34329 19.4337C8.59312 19.3817 8.82751 19.3033 9.04636 19.1993C9.14011 18.5011 9.39535 17.9647 9.81187 17.5897C9.2182 17.5273 8.68445 17.4335 8.21036 17.3085C7.73655 17.1833 7.24692 16.9804 6.7418 16.6988C6.2364 16.4177 5.81715 16.0687 5.48392 15.6521C5.15064 15.2355 4.87712 14.6884 4.66375 14.0115C4.45025 13.3344 4.34348 12.5532 4.34348 11.6678C4.34348 10.4072 4.75503 9.3345 5.57793 8.44904C5.19245 7.50129 5.22884 6.43884 5.68723 5.2618C5.98932 5.16794 6.43731 5.23837 7.03097 5.47265C7.62475 5.70705 8.05948 5.90783 8.33563 6.07431C8.61177 6.24073 8.83304 6.38175 8.99973 6.49614C9.96865 6.22541 10.9685 6.09002 11.9997 6.09002C13.0308 6.09002 14.0309 6.22541 15 6.49614L15.5936 6.12132C15.9997 5.87122 16.4791 5.64204 17.0309 5.43369C17.5829 5.22546 18.0051 5.1681 18.2969 5.26196C18.7655 6.43906 18.8072 7.50145 18.4216 8.4492C19.2445 9.33466 19.6561 10.4077 19.6561 11.668C19.6561 12.5534 19.5491 13.3369 19.3359 14.0193C19.1224 14.7019 18.8465 15.2484 18.5081 15.66C18.1693 16.0716 17.7473 16.418 17.2423 16.6991C16.7371 16.9803 16.2472 17.1833 15.7735 17.3084C15.2993 17.4336 14.7656 17.5276 14.172 17.59C14.7135 18.0587 14.9843 18.7983 14.9843 19.8085V23.1051C14.9843 23.2924 15.0493 23.4488 15.1797 23.5737C15.3099 23.6984 15.5155 23.7351 15.7968 23.6828C18.2136 22.8809 20.1849 21.4357 21.7109 19.3472C23.2367 17.2588 23.9999 14.9075 23.9999 12.2926C23.9993 10.1161 23.4625 8.10864 22.3901 6.27012Z" fill="white"/>
</g>
<defs>
<clipPath id="clip0_10_12">
<rect width="24" height="24" fill="white"/>
</clipPath>
</defs>
</svg>
