<svg width="502" height="420" viewBox="0 0 502 420" fill="none" xmlns="http://www.w3.org/2000/svg">
<path d="M16.9805 390.812H11.3438L10.3594 394H5.96484L12.2227 376.938H16.0898L22.3945 394H17.9766L16.9805 390.812ZM12.3281 387.637H15.9961L14.1562 381.719L12.3281 387.637ZM33.1158 387.754C33.1158 389.723 32.6705 391.297 31.7798 392.477C30.897 393.648 29.7017 394.234 28.1939 394.234C27.0298 394.234 26.0728 393.809 25.3228 392.957V398.875H21.3736V381.32H25.065L25.1822 382.492C25.94 381.555 26.9361 381.086 28.1705 381.086C29.733 381.086 30.9478 381.664 31.815 382.82C32.6822 383.969 33.1158 385.551 33.1158 387.566V387.754ZM29.1666 387.508C29.1666 385.258 28.5103 384.133 27.1978 384.133C26.2603 384.133 25.6353 384.469 25.3228 385.141V390.133C25.6666 390.836 26.2994 391.188 27.2213 391.188C28.4791 391.188 29.1275 390.102 29.1666 387.93V387.508ZM37.4738 394H33.5128V376H37.4738V394ZM42.5231 394H38.5622V381.32H42.5231V394ZM38.3278 378.051C38.3278 377.488 38.5309 377.027 38.9372 376.668C39.3434 376.309 39.8708 376.129 40.5192 376.129C41.1677 376.129 41.695 376.309 42.1012 376.668C42.5075 377.027 42.7106 377.488 42.7106 378.051C42.7106 378.613 42.5075 379.074 42.1012 379.434C41.695 379.793 41.1677 379.973 40.5192 379.973C39.8708 379.973 39.3434 379.793 38.9372 379.434C38.5309 379.074 38.3278 378.613 38.3278 378.051ZM42.9084 387.531C42.9084 385.516 43.3459 383.938 44.2209 382.797C45.0959 381.656 46.303 381.086 47.842 381.086C49.1389 381.086 50.178 381.617 50.9592 382.68L51.2405 381.32H54.6623V398.875H50.7014V392.945C49.9436 393.805 48.9827 394.234 47.8186 394.234C46.3186 394.234 45.1233 393.656 44.2327 392.5C43.3498 391.336 42.9084 389.68 42.9084 387.531ZM46.8577 387.777C46.8577 390.051 47.5139 391.188 48.8264 391.188C49.7327 391.188 50.3577 390.844 50.7014 390.156V385.141C50.3733 384.469 49.7561 384.133 48.8498 384.133C47.6233 384.133 46.9631 385.113 46.8694 387.074L46.8577 387.777ZM62.8992 392.629C62.0633 393.699 60.9344 394.234 59.5125 394.234C58.1219 394.234 57.0672 393.832 56.3484 393.027C55.6375 392.215 55.282 391.051 55.282 389.535V381.32H59.2313V389.559C59.2313 390.645 59.7586 391.188 60.8133 391.188C61.7195 391.188 62.3641 390.863 62.7469 390.215V381.32H66.7195V394H63.0164L62.8992 392.629ZM73.4681 394.234C71.5228 394.234 69.9486 393.656 68.7455 392.5C67.5423 391.336 66.9408 389.824 66.9408 387.965V387.637C66.9408 386.34 67.1791 385.195 67.6556 384.203C68.14 383.211 68.8431 382.445 69.765 381.906C70.6869 381.359 71.7806 381.086 73.0462 381.086C74.8275 381.086 76.2337 381.641 77.265 382.75C78.2962 383.852 78.8119 385.391 78.8119 387.367V388.902H70.9603C71.1009 389.613 71.4095 390.172 71.8861 390.578C72.3627 390.984 72.9798 391.188 73.7377 391.188C74.9877 391.188 75.9642 390.75 76.6673 389.875L78.472 392.008C77.9798 392.688 77.2806 393.23 76.3744 393.637C75.4759 394.035 74.5072 394.234 73.4681 394.234ZM73.0228 384.133C71.8666 384.133 71.1791 384.898 70.9603 386.43H74.9447V386.125C74.9603 385.492 74.8002 385.004 74.4642 384.66C74.1283 384.309 73.6478 384.133 73.0228 384.133Z" fill="#E086FF"/>
<path d="M427.684 380.113H422.562V394H418.449V380.113H413.422V376.938H427.684V380.113ZM434.585 384.895L433.284 384.801C432.042 384.801 431.245 385.191 430.893 385.973V394H426.944V381.32H430.647L430.776 382.949C431.44 381.707 432.366 381.086 433.553 381.086C433.975 381.086 434.342 381.133 434.655 381.227L434.585 384.895ZM440.349 394.234C438.403 394.234 436.829 393.656 435.626 392.5C434.423 391.336 433.821 389.824 433.821 387.965V387.637C433.821 386.34 434.06 385.195 434.536 384.203C435.021 383.211 435.724 382.445 436.646 381.906C437.568 381.359 438.661 381.086 439.927 381.086C441.708 381.086 443.114 381.641 444.146 382.75C445.177 383.852 445.693 385.391 445.693 387.367V388.902H437.841C437.982 389.613 438.29 390.172 438.767 390.578C439.243 390.984 439.86 391.188 440.618 391.188C441.868 391.188 442.845 390.75 443.548 389.875L445.353 392.008C444.86 392.688 444.161 393.23 443.255 393.637C442.357 394.035 441.388 394.234 440.349 394.234ZM439.903 384.133C438.747 384.133 438.06 384.898 437.841 386.43H441.825V386.125C441.841 385.492 441.681 385.004 441.345 384.66C441.009 384.309 440.528 384.133 439.903 384.133ZM449.898 394H445.937V381.32H449.898V394ZM445.703 378.051C445.703 377.488 445.906 377.027 446.312 376.668C446.718 376.309 447.246 376.129 447.894 376.129C448.543 376.129 449.07 376.309 449.476 376.668C449.882 377.027 450.086 377.488 450.086 378.051C450.086 378.613 449.882 379.074 449.476 379.434C449.07 379.793 448.543 379.973 447.894 379.973C447.246 379.973 446.718 379.793 446.312 379.434C445.906 379.074 445.703 378.613 445.703 378.051ZM454.408 381.32L454.537 382.809C455.412 381.66 456.619 381.086 458.158 381.086C459.479 381.086 460.463 381.48 461.112 382.27C461.768 383.059 462.108 384.246 462.131 385.832V394H458.17V385.996C458.17 385.355 458.041 384.887 457.783 384.59C457.526 384.285 457.057 384.133 456.377 384.133C455.604 384.133 455.03 384.438 454.655 385.047V394H450.705V381.32H454.408ZM468.903 394.234C466.958 394.234 465.384 393.656 464.18 392.5C462.977 391.336 462.376 389.824 462.376 387.965V387.637C462.376 386.34 462.614 385.195 463.091 384.203C463.575 383.211 464.278 382.445 465.2 381.906C466.122 381.359 467.216 381.086 468.481 381.086C470.263 381.086 471.669 381.641 472.7 382.75C473.731 383.852 474.247 385.391 474.247 387.367V388.902H466.395C466.536 389.613 466.845 390.172 467.321 390.578C467.798 390.984 468.415 391.188 469.173 391.188C470.423 391.188 471.399 390.75 472.102 389.875L473.907 392.008C473.415 392.688 472.716 393.23 471.809 393.637C470.911 394.035 469.942 394.234 468.903 394.234ZM468.458 384.133C467.302 384.133 466.614 384.898 466.395 386.43H470.38V386.125C470.395 385.492 470.235 385.004 469.899 384.66C469.563 384.309 469.083 384.133 468.458 384.133Z" fill="#FF931E"/>
<path d="M15.0938 18.2227C15.0391 19.4102 14.7188 20.4609 14.1328 21.375C13.5469 22.2812 12.7227 22.9844 11.6602 23.4844C10.6055 23.9844 9.39844 24.2344 8.03906 24.2344C5.79688 24.2344 4.03125 23.5039 2.74219 22.043C1.45312 20.582 0.808594 18.5195 0.808594 15.8555V15.0117C0.808594 13.3398 1.09766 11.8789 1.67578 10.6289C2.26172 9.37109 3.10156 8.40234 4.19531 7.72266C5.28906 7.03516 6.55469 6.69141 7.99219 6.69141C10.0625 6.69141 11.7266 7.23828 12.9844 8.33203C14.2422 9.41797 14.957 10.918 15.1289 12.832H11.0273C10.9961 11.793 10.7344 11.0469 10.2422 10.5938C9.75 10.1406 9 9.91406 7.99219 9.91406C6.96875 9.91406 6.21875 10.2969 5.74219 11.0625C5.26562 11.8281 5.01562 13.0508 4.99219 14.7305V15.9375C4.99219 17.7578 5.21875 19.0586 5.67188 19.8398C6.13281 20.6211 6.92188 21.0117 8.03906 21.0117C8.98438 21.0117 9.70703 20.7891 10.207 20.3438C10.707 19.8984 10.9727 19.1914 11.0039 18.2227H15.0938ZM14.7994 17.543C14.7994 16.2773 15.0455 15.1523 15.5377 14.168C16.0298 13.1758 16.7369 12.4141 17.6588 11.8828C18.5806 11.3516 19.6627 11.0859 20.9048 11.0859C22.8033 11.0859 24.2994 11.6758 25.3931 12.8555C26.4869 14.0273 27.0338 15.625 27.0338 17.6484V17.7891C27.0338 19.7656 26.483 21.3359 25.3814 22.5C24.2877 23.6562 22.8033 24.2344 20.9283 24.2344C19.1236 24.2344 17.6744 23.6953 16.5806 22.6172C15.4869 21.5312 14.897 20.0625 14.8111 18.2109L14.7994 17.543ZM18.7486 17.7891C18.7486 18.9609 18.9322 19.8203 19.2994 20.3672C19.6666 20.9141 20.2095 21.1875 20.9283 21.1875C22.3345 21.1875 23.0533 20.1055 23.0845 17.9414V17.543C23.0845 15.2695 22.358 14.1328 20.9048 14.1328C19.5845 14.1328 18.8697 15.1133 18.7603 17.0742L18.7486 17.7891ZM30.8409 11.3203L30.9698 12.8086C31.8448 11.6602 33.0519 11.0859 34.5909 11.0859C35.9113 11.0859 36.8956 11.4805 37.5441 12.2695C38.2003 13.0586 38.5402 14.2461 38.5636 15.832V24H34.6027V15.9961C34.6027 15.3555 34.4738 14.8867 34.2159 14.5898C33.9581 14.2852 33.4894 14.1328 32.8097 14.1328C32.0363 14.1328 31.462 14.4375 31.087 15.0469V24H27.1378V11.3203H30.8409ZM45.3356 24.2344C43.3903 24.2344 41.8161 23.6562 40.613 22.5C39.4098 21.3359 38.8083 19.8242 38.8083 17.9648V17.6367C38.8083 16.3398 39.0466 15.1953 39.5231 14.2031C40.0075 13.2109 40.7106 12.4453 41.6325 11.9062C42.5544 11.3594 43.6481 11.0859 44.9137 11.0859C46.695 11.0859 48.1012 11.6406 49.1325 12.75C50.1637 13.8516 50.6794 15.3906 50.6794 17.3672V18.9023H42.8278C42.9684 19.6133 43.277 20.1719 43.7536 20.5781C44.2302 20.9844 44.8473 21.1875 45.6052 21.1875C46.8552 21.1875 47.8317 20.75 48.5348 19.875L50.3395 22.0078C49.8473 22.6875 49.1481 23.2305 48.2419 23.6367C47.3434 24.0352 46.3747 24.2344 45.3356 24.2344ZM44.8903 14.1328C43.7341 14.1328 43.0466 14.8984 42.8278 16.4297H46.8122V16.125C46.8278 15.4922 46.6677 15.0039 46.3317 14.6602C45.9958 14.3086 45.5153 14.1328 44.8903 14.1328ZM56.0803 21.1875C56.635 21.1875 57.0647 21.0391 57.3694 20.7422C57.6741 20.4375 57.8225 20.0156 57.8147 19.4766H61.5178C61.5178 20.8672 61.0178 22.0078 60.0178 22.8984C59.0256 23.7891 57.7444 24.2344 56.1741 24.2344C54.3303 24.2344 52.8772 23.6562 51.8147 22.5C50.7522 21.3438 50.2209 19.7422 50.2209 17.6953V17.5312C50.2209 16.25 50.4553 15.1211 50.9241 14.1445C51.4006 13.1602 52.0842 12.4062 52.9748 11.8828C53.8655 11.3516 54.9202 11.0859 56.1389 11.0859C57.7873 11.0859 59.0959 11.543 60.0647 12.457C61.0334 13.3711 61.5178 14.6094 61.5178 16.1719H57.8147C57.8147 15.5156 57.6545 15.0117 57.3342 14.6602C57.0139 14.3086 56.5842 14.1328 56.0452 14.1328C55.0217 14.1328 54.4241 14.7852 54.2522 16.0898C54.1975 16.5039 54.1702 17.0742 54.1702 17.8008C54.1702 19.0742 54.3225 19.957 54.6272 20.4492C54.9319 20.9414 55.4163 21.1875 56.0803 21.1875ZM66.2273 8.16797V11.3203H68.3133V14.0625H66.2273V19.8633C66.2273 20.3398 66.3133 20.6719 66.4852 20.8594C66.657 21.0469 66.9969 21.1406 67.5047 21.1406C67.8953 21.1406 68.2234 21.1172 68.4891 21.0703V23.8945C67.7781 24.1211 67.0359 24.2344 66.2625 24.2344C64.9031 24.2344 63.8992 23.9141 63.2508 23.2734C62.6023 22.6328 62.2781 21.6602 62.2781 20.3555V14.0625H60.6609V11.3203H62.2781V8.16797H66.2273ZM74.4525 24.2344C72.5072 24.2344 70.933 23.6562 69.7298 22.5C68.5267 21.3359 67.9252 19.8242 67.9252 17.9648V17.6367C67.9252 16.3398 68.1634 15.1953 68.64 14.2031C69.1244 13.2109 69.8275 12.4453 70.7494 11.9062C71.6712 11.3594 72.765 11.0859 74.0306 11.0859C75.8119 11.0859 77.2181 11.6406 78.2494 12.75C79.2806 13.8516 79.7962 15.3906 79.7962 17.3672V18.9023H71.9447C72.0853 19.6133 72.3939 20.1719 72.8705 20.5781C73.347 20.9844 73.9642 21.1875 74.722 21.1875C75.972 21.1875 76.9486 20.75 77.6517 19.875L79.4564 22.0078C78.9642 22.6875 78.265 23.2305 77.3587 23.6367C76.4603 24.0352 75.4916 24.2344 74.4525 24.2344ZM74.0072 14.1328C72.8509 14.1328 72.1634 14.8984 71.9447 16.4297H75.9291V16.125C75.9447 15.4922 75.7845 15.0039 75.4486 14.6602C75.1127 14.3086 74.6322 14.1328 74.0072 14.1328ZM87.5527 18.1758H80.5097V15.1172H87.5527V18.1758ZM95.7192 20.4375C95.7192 20.1016 95.5434 19.832 95.1919 19.6289C94.8403 19.4258 94.1723 19.2148 93.188 18.9961C92.2036 18.7773 91.3911 18.4922 90.7505 18.1406C90.1098 17.7812 89.6216 17.3477 89.2856 16.8398C88.9497 16.332 88.7817 15.75 88.7817 15.0938C88.7817 13.9297 89.2622 12.9727 90.2231 12.2227C91.1841 11.4648 92.4419 11.0859 93.9966 11.0859C95.6684 11.0859 97.0122 11.4648 98.0278 12.2227C99.0434 12.9805 99.5513 13.9766 99.5513 15.2109H95.5903C95.5903 14.1953 95.0552 13.6875 93.9848 13.6875C93.5708 13.6875 93.2231 13.8047 92.9419 14.0391C92.6606 14.2656 92.52 14.5508 92.52 14.8945C92.52 15.2461 92.6919 15.5312 93.0356 15.75C93.3794 15.9688 93.9263 16.1484 94.6763 16.2891C95.4341 16.4297 96.0981 16.5977 96.6684 16.793C98.5747 17.4492 99.5278 18.625 99.5278 20.3203C99.5278 21.4766 99.0122 22.418 97.9809 23.1445C96.9575 23.8711 95.6294 24.2344 93.9966 24.2344C92.9106 24.2344 91.9419 24.0391 91.0903 23.6484C90.2388 23.2578 89.5747 22.7266 89.0981 22.0547C88.6216 21.3828 88.3833 20.6758 88.3833 19.9336H92.0747C92.0903 20.5195 92.2856 20.9492 92.6606 21.2227C93.0356 21.4883 93.5161 21.6211 94.102 21.6211C94.6411 21.6211 95.0434 21.5117 95.3091 21.293C95.5825 21.0742 95.7192 20.7891 95.7192 20.4375ZM105.96 24.2344C104.015 24.2344 102.44 23.6562 101.237 22.5C100.034 21.3359 99.4327 19.8242 99.4327 17.9648V17.6367C99.4327 16.3398 99.6709 15.1953 100.147 14.2031C100.632 13.2109 101.335 12.4453 102.257 11.9062C103.179 11.3594 104.272 11.0859 105.538 11.0859C107.319 11.0859 108.726 11.6406 109.757 12.75C110.788 13.8516 111.304 15.3906 111.304 17.3672V18.9023H103.452C103.593 19.6133 103.901 20.1719 104.378 20.5781C104.855 20.9844 105.472 21.1875 106.23 21.1875C107.48 21.1875 108.456 20.75 109.159 19.875L110.964 22.0078C110.472 22.6875 109.772 23.2305 108.866 23.6367C107.968 24.0352 106.999 24.2344 105.96 24.2344ZM105.515 14.1328C104.358 14.1328 103.671 14.8984 103.452 16.4297H107.437V16.125C107.452 15.4922 107.292 15.0039 106.956 14.6602C106.62 14.3086 106.14 14.1328 105.515 14.1328Z" fill="#00DBE9"/>
<path d="M417.98 27.8125H412.344L411.359 31H406.965L413.223 13.9375H417.09L423.395 31H418.977L417.98 27.8125ZM413.328 24.6367H416.996L415.156 18.7188L413.328 24.6367ZM434.116 24.7539C434.116 26.7227 433.67 28.2969 432.78 29.4766C431.897 30.6484 430.702 31.2344 429.194 31.2344C428.03 31.2344 427.073 30.8086 426.323 29.957V35.875H422.374V18.3203H426.065L426.182 19.4922C426.94 18.5547 427.936 18.0859 429.17 18.0859C430.733 18.0859 431.948 18.6641 432.815 19.8203C433.682 20.9688 434.116 22.5508 434.116 24.5664V24.7539ZM430.167 24.5078C430.167 22.2578 429.51 21.1328 428.198 21.1328C427.26 21.1328 426.635 21.4688 426.323 22.1406V27.1328C426.667 27.8359 427.299 28.1875 428.221 28.1875C429.479 28.1875 430.128 27.1016 430.167 24.9297V24.5078ZM441.978 21.8945L440.677 21.8008C439.435 21.8008 438.638 22.1914 438.286 22.9727V31H434.337V18.3203H438.04L438.169 19.9492C438.833 18.707 439.759 18.0859 440.946 18.0859C441.368 18.0859 441.735 18.1328 442.048 18.2266L441.978 21.8945ZM447.742 31.2344C445.797 31.2344 444.222 30.6562 443.019 29.5C441.816 28.3359 441.215 26.8242 441.215 24.9648V24.6367C441.215 23.3398 441.453 22.1953 441.929 21.2031C442.414 20.2109 443.117 19.4453 444.039 18.9062C444.961 18.3594 446.054 18.0859 447.32 18.0859C449.101 18.0859 450.507 18.6406 451.539 19.75C452.57 20.8516 453.086 22.3906 453.086 24.3672V25.9023H445.234C445.375 26.6133 445.683 27.1719 446.16 27.5781C446.636 27.9844 447.254 28.1875 448.011 28.1875C449.261 28.1875 450.238 27.75 450.941 26.875L452.746 29.0078C452.254 29.6875 451.554 30.2305 450.648 30.6367C449.75 31.0352 448.781 31.2344 447.742 31.2344ZM447.297 21.1328C446.14 21.1328 445.453 21.8984 445.234 23.4297H449.218V23.125C449.234 22.4922 449.074 22.0039 448.738 21.6602C448.402 21.3086 447.922 21.1328 447.297 21.1328ZM456.752 18.3203L456.881 19.8086C457.756 18.6602 458.963 18.0859 460.502 18.0859C461.823 18.0859 462.807 18.4805 463.455 19.2695C464.112 20.0586 464.451 21.2461 464.475 22.832V31H460.514V22.9961C460.514 22.3555 460.385 21.8867 460.127 21.5898C459.869 21.2852 459.401 21.1328 458.721 21.1328C457.948 21.1328 457.373 21.4375 456.998 22.0469V31H453.049V18.3203H456.752ZM464.614 24.5664C464.614 22.5586 465.048 20.9766 465.915 19.8203C466.782 18.6641 467.993 18.0859 469.548 18.0859C470.68 18.0859 471.634 18.5312 472.407 19.4219V13H476.368V31H472.817L472.618 29.6406C471.805 30.7031 470.774 31.2344 469.524 31.2344C468.016 31.2344 466.821 30.6562 465.938 29.5C465.055 28.3438 464.614 26.6992 464.614 24.5664ZM468.563 24.8125C468.563 27.0625 469.22 28.1875 470.532 28.1875C471.407 28.1875 472.032 27.8203 472.407 27.0859V22.2578C472.048 21.5078 471.43 21.1328 470.555 21.1328C469.337 21.1328 468.677 22.1172 468.575 24.0859L468.563 24.8125ZM484.195 31C484.054 30.7422 483.929 30.3633 483.82 29.8633C483.093 30.7773 482.077 31.2344 480.773 31.2344C479.577 31.2344 478.562 30.875 477.726 30.1562C476.89 29.4297 476.472 28.5195 476.472 27.4258C476.472 26.0508 476.98 25.0117 477.995 24.3086C479.011 23.6055 480.488 23.2539 482.425 23.2539H483.644V22.5859C483.644 21.4219 483.14 20.8398 482.132 20.8398C481.195 20.8398 480.726 21.3008 480.726 22.2227H476.777C476.777 20.9961 477.296 20 478.335 19.2344C479.382 18.4688 480.714 18.0859 482.331 18.0859C483.949 18.0859 485.226 18.4805 486.163 19.2695C487.101 20.0586 487.581 21.1406 487.605 22.5156V28.1289C487.62 29.293 487.8 30.1836 488.144 30.8008V31H484.195ZM481.722 28.4219C482.214 28.4219 482.62 28.3164 482.941 28.1055C483.269 27.8945 483.503 27.6562 483.644 27.3906V25.3633H482.495C481.12 25.3633 480.433 25.9805 480.433 27.2148C480.433 27.5742 480.554 27.8672 480.796 28.0938C481.038 28.3125 481.347 28.4219 481.722 28.4219Z" fill="#03EF62"/>
<path d="M304.383 187.786L178.909 187.786L179.657 209.395C180.013 219.675 181.637 229.871 184.494 239.752C186.811 247.766 189.849 255.552 193.573 263.016L197.115 270.117C199.516 274.929 202.265 279.56 205.342 283.971L206.769 286.019C208.893 289.063 211.343 291.867 214.075 294.378L215.837 295.998C218.983 298.889 222.695 301.095 226.738 302.474L228.97 303.236C238.98 306.652 250.033 304.863 258.453 298.463L264.65 293.583C268.632 290.447 272.262 286.888 275.475 282.968L281.948 275.073L284.442 270.667C288.911 262.775 292.471 254.402 295.053 245.707L297.421 237.735C300.086 228.761 301.811 219.533 302.567 210.201L304.383 187.786Z" fill="#E1E0E0" stroke="#E1E0E0" stroke-width="2"/>
<path d="M303.946 199.171C303.946 203.885 303.482 207.191 302.635 209.393C301.796 211.574 300.606 212.617 299.149 212.943C297.641 213.28 295.729 212.879 293.399 211.876C291.081 210.878 288.432 209.322 285.483 207.452C284.018 206.523 282.481 205.518 280.878 204.471C276.055 201.317 270.641 197.778 264.833 194.773C257.088 190.765 248.579 187.672 239.705 187.672C230.83 187.672 222.481 190.766 214.975 194.776C209.158 197.883 203.815 201.56 199.117 204.792C197.76 205.727 196.456 206.624 195.21 207.459C192.422 209.329 189.935 210.885 187.77 211.881C185.59 212.884 183.828 213.276 182.454 212.945C181.13 212.626 180.034 211.599 179.258 209.406C178.477 207.198 178.053 203.887 178.053 199.171C178.053 161.534 206.271 131.091 241 131.091C275.728 131.091 303.946 161.534 303.946 199.171Z" fill="#E1E0E0" stroke="#E1E0E0"/>
<path d="M261.645 253.927C261.645 267.409 251.612 278.265 239.322 278.265C227.032 278.265 216.998 267.409 216.998 253.927C216.998 240.446 227.032 229.59 239.322 229.59C251.612 229.59 261.645 240.446 261.645 253.927Z" fill="#231F20" stroke="#231F20"/>
<path d="M203.496 176.677L280.752 176.677C277.862 160.468 265.048 147.854 248.795 145.219L244.496 144.522C243.065 144.29 241.612 144.224 240.166 144.325L238.619 144.432C221.965 145.593 208.008 157.465 204.191 173.717L203.496 176.677Z" fill="#231F20" stroke="#231F20"/>
<path d="M179.185 200.269C179.185 201.496 179.289 202.555 179.376 203.436C179.38 203.483 179.385 203.528 179.389 203.573C179.48 204.505 179.535 205.174 179.455 205.68C179.416 205.922 179.349 206.1 179.256 206.239C179.166 206.374 179.035 206.496 178.828 206.601C178.393 206.823 177.653 206.959 176.395 206.959C171.58 206.959 167.682 203.083 167.682 198.308C167.682 193.534 171.58 189.657 176.395 189.657C177.561 189.657 178.246 189.999 178.674 190.506C179.122 191.035 179.36 191.826 179.45 192.861C179.54 193.89 179.477 195.085 179.388 196.366C179.374 196.563 179.36 196.761 179.346 196.961C179.267 198.05 179.185 199.183 179.185 200.269Z" fill="#ACACAC" stroke="#ACACAC"/>
<line x1="170.35" y1="203.428" x2="163.883" y2="226.709" stroke="#ACACAC"/>
<path d="M173.102 205.234L168.575 228.516" stroke="#ACACAC"/>
<circle cx="164.742" cy="233.082" r="6.21069" fill="#C4C4C4" stroke="#ACACAC"/>
<line x1="161.314" y1="238.233" x2="160.021" y2="277.035" stroke="#ACACAC"/>
<line x1="165.242" y1="239.793" x2="165.242" y2="277.007" stroke="#ACACAC"/>
<path d="M316.758 198.918C316.758 203.373 313.256 206.959 308.967 206.959C307.893 206.959 307.051 206.736 306.387 206.354C305.724 205.974 305.21 205.42 304.816 204.714C304.018 203.283 303.726 201.255 303.726 198.918C303.726 196.582 304.018 194.553 304.816 193.123C305.21 192.417 305.724 191.863 306.387 191.482C307.051 191.101 307.893 190.877 308.967 190.877C313.256 190.877 316.758 194.463 316.758 198.918Z" fill="#ACACAC" stroke="#ACACAC"/>
<line x1="311.336" y1="207.06" x2="316.51" y2="229.048" stroke="#ACACAC"/>
<line x1="313.908" y1="205.715" x2="321.669" y2="227.703" stroke="#ACACAC"/>
<path d="M325.909 233.082C325.909 236.534 323.243 239.293 320.003 239.293C316.763 239.293 314.097 236.534 314.097 233.082C314.097 229.63 316.763 226.871 320.003 226.871C323.243 226.871 325.909 229.63 325.909 233.082Z" fill="#ACACAC" stroke="#ACACAC"/>
<circle cx="297.431" cy="193.733" r="2.85535" fill="#231F20" stroke="#231F20"/>
<circle cx="239.17" cy="297.139" r="2.55032" fill="#231F20" stroke="#231F20"/>
<path d="M188.644 193.733C188.644 195.356 187.459 196.588 186.094 196.588C184.729 196.588 183.544 195.356 183.544 193.733C183.544 192.11 184.729 190.877 186.094 190.877C187.459 190.877 188.644 192.11 188.644 193.733Z" fill="#C4C4C4" stroke="#ACACAC"/>
<line x1="317.758" y1="237.962" x2="317.758" y2="277.006" stroke="#ACACAC"/>
<line x1="321.418" y1="237.962" x2="321.418" y2="277.006" stroke="#ACACAC"/>
<path d="M328.934 288.83C328.826 289.386 328.592 289.715 328.341 289.895C328.089 290.076 327.77 290.143 327.421 290.084C326.716 289.965 325.918 289.323 325.64 288.198L324.857 285.023C323.41 279.16 315.063 279.195 313.664 285.069L312.907 288.25C312.639 289.378 311.846 290.027 311.141 290.151C310.793 290.213 310.474 290.148 310.22 289.97C309.968 289.792 309.731 289.465 309.618 288.91C309.23 287.001 309.417 285.02 310.155 283.218C310.893 281.415 312.149 279.872 313.764 278.784C315.379 277.695 317.28 277.109 319.228 277.101C321.175 277.093 323.082 277.663 324.705 278.738C326.329 279.814 327.598 281.347 328.35 283.143C329.103 284.939 329.306 286.918 328.934 288.83Z" fill="#C4C4C4" stroke="#ACACAC"/>
<path d="M172.432 288.83C172.323 289.386 172.089 289.715 171.838 289.895C171.586 290.076 171.267 290.143 170.919 290.084C170.213 289.965 169.415 289.323 169.138 288.198L168.354 285.023C166.907 279.16 158.56 279.195 157.162 285.069L156.404 288.25C156.136 289.378 155.343 290.027 154.639 290.151C154.291 290.213 153.971 290.148 153.718 289.97C153.465 289.792 153.229 289.465 153.116 288.91C152.728 287.001 152.915 285.02 153.653 283.218C154.39 281.415 155.646 279.872 157.261 278.784C158.876 277.695 160.778 277.109 162.725 277.101C164.673 277.093 166.579 277.663 168.203 278.738C169.827 279.814 171.095 281.347 171.848 283.143C172.601 284.939 172.804 286.918 172.432 288.83Z" fill="#C4C4C4" stroke="#ACACAC"/>
<path d="M304.383 187.786L178.909 187.786L179.657 209.395C180.013 219.675 181.637 229.871 184.494 239.752C186.811 247.766 189.849 255.552 193.573 263.016L197.115 270.117C199.516 274.929 202.265 279.56 205.342 283.971L206.769 286.019C208.893 289.063 211.343 291.867 214.075 294.378L215.837 295.998C218.983 298.889 222.695 301.095 226.738 302.474L228.97 303.236C238.98 306.652 250.033 304.863 258.453 298.463L264.65 293.583C268.632 290.447 272.262 286.888 275.475 282.968L281.948 275.073L284.442 270.667C288.911 262.775 292.471 254.402 295.053 245.707L297.421 237.735C300.086 228.761 301.811 219.533 302.567 210.201L304.383 187.786Z" fill="#E1E0E0" stroke="#E1E0E0" stroke-width="2"/>
<path d="M303.946 199.171C303.946 203.885 303.482 207.191 302.635 209.393C301.796 211.574 300.606 212.617 299.149 212.943C297.641 213.28 295.729 212.879 293.399 211.876C291.081 210.878 288.432 209.322 285.483 207.452C284.018 206.523 282.481 205.518 280.878 204.471C276.055 201.317 270.641 197.778 264.833 194.773C257.088 190.765 248.579 187.672 239.705 187.672C230.83 187.672 222.481 190.766 214.975 194.776C209.158 197.883 203.815 201.56 199.117 204.792C197.76 205.727 196.456 206.624 195.21 207.459C192.422 209.329 189.935 210.885 187.77 211.881C185.59 212.884 183.828 213.276 182.454 212.945C181.13 212.626 180.034 211.599 179.258 209.406C178.477 207.198 178.053 203.887 178.053 199.171C178.053 161.534 206.271 131.091 241 131.091C275.728 131.091 303.946 161.534 303.946 199.171Z" fill="#E1E0E0" stroke="#E1E0E0"/>
<path d="M261.645 253.927C261.645 267.409 251.612 278.265 239.322 278.265C227.032 278.265 216.998 267.409 216.998 253.927C216.998 240.446 227.032 229.59 239.322 229.59C251.612 229.59 261.645 240.446 261.645 253.927Z" fill="#231F20" stroke="#231F20"/>
<path d="M203.496 176.677L280.752 176.677C277.862 160.468 265.048 147.854 248.795 145.219L244.496 144.522C243.065 144.29 241.612 144.224 240.166 144.325L238.619 144.432C221.965 145.593 208.008 157.465 204.191 173.717L203.496 176.677Z" fill="#231F20" stroke="#231F20"/>
<path d="M179.185 200.269C179.185 201.496 179.289 202.555 179.376 203.436C179.38 203.483 179.385 203.528 179.389 203.573C179.48 204.505 179.535 205.174 179.455 205.68C179.416 205.922 179.349 206.1 179.256 206.239C179.166 206.374 179.035 206.496 178.828 206.601C178.393 206.823 177.653 206.959 176.395 206.959C171.58 206.959 167.682 203.083 167.682 198.308C167.682 193.534 171.58 189.657 176.395 189.657C177.561 189.657 178.246 189.999 178.674 190.506C179.122 191.035 179.36 191.826 179.45 192.861C179.54 193.89 179.477 195.085 179.388 196.366C179.374 196.563 179.36 196.761 179.346 196.961C179.267 198.05 179.185 199.183 179.185 200.269Z" fill="#ACACAC" stroke="#ACACAC"/>
<line x1="170.35" y1="203.428" x2="163.883" y2="226.709" stroke="#ACACAC"/>
<path d="M173.102 205.234L168.575 228.516" stroke="#ACACAC"/>
<circle cx="164.742" cy="233.082" r="6.21069" fill="#C4C4C4" stroke="#ACACAC"/>
<line x1="161.314" y1="238.233" x2="160.021" y2="277.035" stroke="#ACACAC"/>
<line x1="165.242" y1="239.793" x2="165.242" y2="277.007" stroke="#ACACAC"/>
<path d="M316.758 198.918C316.758 203.373 313.256 206.959 308.967 206.959C307.893 206.959 307.051 206.736 306.387 206.354C305.724 205.974 305.21 205.42 304.816 204.714C304.018 203.283 303.726 201.255 303.726 198.918C303.726 196.582 304.018 194.553 304.816 193.123C305.21 192.417 305.724 191.863 306.387 191.482C307.051 191.101 307.893 190.877 308.967 190.877C313.256 190.877 316.758 194.463 316.758 198.918Z" fill="#ACACAC" stroke="#ACACAC"/>
<line x1="311.336" y1="207.06" x2="316.51" y2="229.048" stroke="#ACACAC"/>
<line x1="313.908" y1="205.715" x2="321.669" y2="227.703" stroke="#ACACAC"/>
<path d="M325.909 233.082C325.909 236.534 323.243 239.293 320.003 239.293C316.763 239.293 314.097 236.534 314.097 233.082C314.097 229.63 316.763 226.871 320.003 226.871C323.243 226.871 325.909 229.63 325.909 233.082Z" fill="#ACACAC" stroke="#ACACAC"/>
<circle cx="297.431" cy="193.733" r="2.85535" fill="#231F20" stroke="#231F20"/>
<circle cx="239.17" cy="297.139" r="2.55032" fill="#231F20" stroke="#231F20"/>
<path d="M188.644 193.733C188.644 195.356 187.459 196.588 186.094 196.588C184.729 196.588 183.544 195.356 183.544 193.733C183.544 192.11 184.729 190.877 186.094 190.877C187.459 190.877 188.644 192.11 188.644 193.733Z" fill="#C4C4C4" stroke="#ACACAC"/>
<line x1="317.758" y1="237.962" x2="317.758" y2="277.006" stroke="#ACACAC"/>
<line x1="321.418" y1="237.962" x2="321.418" y2="277.006" stroke="#ACACAC"/>
<path d="M328.934 288.83C328.826 289.386 328.592 289.715 328.341 289.895C328.089 290.076 327.77 290.143 327.421 290.084C326.716 289.965 325.918 289.323 325.64 288.198L324.857 285.023C323.41 279.16 315.063 279.195 313.664 285.069L312.907 288.25C312.639 289.378 311.846 290.027 311.141 290.151C310.793 290.213 310.474 290.148 310.22 289.97C309.968 289.792 309.731 289.465 309.618 288.91C309.23 287.001 309.417 285.02 310.155 283.218C310.893 281.415 312.149 279.872 313.764 278.784C315.379 277.695 317.28 277.109 319.228 277.101C321.175 277.093 323.082 277.663 324.705 278.738C326.329 279.814 327.598 281.347 328.35 283.143C329.103 284.939 329.306 286.918 328.934 288.83Z" fill="#C4C4C4" stroke="#ACACAC"/>
<path d="M172.432 288.83C172.323 289.386 172.089 289.715 171.838 289.895C171.586 290.076 171.267 290.143 170.919 290.084C170.213 289.965 169.415 289.323 169.138 288.198L168.354 285.023C166.907 279.16 158.56 279.195 157.162 285.069L156.404 288.25C156.136 289.378 155.343 290.027 154.639 290.151C154.291 290.213 153.971 290.148 153.718 289.97C153.465 289.792 153.229 289.465 153.116 288.91C152.728 287.001 152.915 285.02 153.653 283.218C154.39 281.415 155.646 279.872 157.261 278.784C158.876 277.695 160.778 277.109 162.725 277.101C164.673 277.093 166.579 277.663 168.203 278.738C169.827 279.814 171.095 281.347 171.848 283.143C172.601 284.939 172.804 286.918 172.432 288.83Z" fill="#C4C4C4" stroke="#ACACAC"/>
<circle cx="257.111" cy="162.969" r="5.70588" fill="#00DBE9"/>
<circle cx="227.574" cy="162.969" r="5.70588" fill="#00DBE9"/>
<path d="M271.725 195.507L274.9 190.827C254.633 204.48 227.772 203.626 208.287 188.88C214.033 201.379 225.882 209.975 239.547 211.559L241.02 211.73C253.315 211.762 264.822 205.682 271.725 195.507Z" fill="white" stroke="white"/>
<circle cx="241" cy="210" r="198.5" stroke="black" stroke-width="3"/>
<path d="M373.972 377.714C389.42 377.714 401.943 365.242 401.943 349.857C401.943 334.472 389.42 322 373.972 322C358.523 322 346 334.472 346 349.857C346 365.242 358.523 377.714 373.972 377.714Z" fill="#FF931E"/>
<path d="M360.339 343.229L360.351 356.12L356.674 353.977L356.663 345.371L360.339 343.229ZM365.855 340.2L365.872 359.514H362.195L362.178 340.2H365.855ZM387.548 356.331L387.531 343.006L391.213 345.154L391.219 354.183L387.548 356.331ZM382.032 359.514L382.015 340.2H385.692L385.709 359.514H382.032Z" fill="#05192D"/>
<path d="M383.871 348V351.714H363.648V348H383.871Z" fill="#05192D"/>
<path d="M103.943 377.714C119.376 377.714 131.887 365.242 131.887 349.857C131.887 334.472 119.376 322 103.943 322C88.5107 322 76 334.472 76 349.857C76 365.242 88.5107 377.714 103.943 377.714Z" fill="#E086FF"/>
<path d="M87.6809 351.332L103.774 362.686L103.949 362.806L120.257 351.354L121.185 352.017C121.418 352.186 121.609 352.407 121.744 352.663C121.879 352.918 121.954 353.202 121.962 353.492C121.971 353.781 121.914 354.069 121.794 354.333C121.675 354.596 121.498 354.829 121.275 355.012L121.185 355.086L105.007 366.6C104.697 366.82 104.328 366.938 103.949 366.938C103.571 366.938 103.201 366.82 102.891 366.6L86.7079 355.086C86.4662 354.911 86.2692 354.681 86.1333 354.414C85.9974 354.147 85.9265 353.852 85.9265 353.552C85.9265 353.251 85.9974 352.956 86.1333 352.689C86.2692 352.422 86.4662 352.192 86.7079 352.017L87.6809 351.326V351.332Z" fill="#05192D"/>
<path d="M102.886 333.109L86.7079 344.629C86.4663 344.8 86.2691 345.028 86.133 345.292C85.9969 345.557 85.9258 345.85 85.9258 346.149C85.9258 346.447 85.9969 346.741 86.133 347.005C86.2691 347.27 86.4663 347.497 86.7079 347.669L102.886 359.183C103.519 359.634 104.368 359.634 105.001 359.183L121.179 347.669C121.421 347.497 121.618 347.27 121.754 347.005C121.89 346.741 121.961 346.447 121.961 346.149C121.961 345.85 121.89 345.557 121.754 345.292C121.618 345.028 121.421 344.8 121.179 344.629L105.001 333.114C104.692 332.894 104.322 332.776 103.943 332.776C103.565 332.776 103.195 332.894 102.886 333.114V333.109ZM103.943 336.897L116.931 346.143L103.943 355.383L90.956 346.143L103.943 336.897Z" fill="#05192D"/>
<path d="M109.973 343.88L113.062 346.074L113.118 346.16L105.029 352.103C104.407 352.56 103.581 352.577 102.942 352.154L102.869 352.097L94.8646 346.217L98.038 343.96L103.949 348.303L109.973 343.88Z" fill="#05192D"/>
<path d="M105.782 329.429V348.874H102.105V329.429H105.782Z" fill="#05192D"/>
<path d="M373.972 88.7143C389.42 88.7143 401.943 76.2422 401.943 60.8571C401.943 45.4721 389.42 33 373.972 33C358.523 33 346 45.4721 346 60.8571C346 76.2422 358.523 88.7143 373.972 88.7143Z" fill="#03EF62"/>
<path d="M373.943 41.9143C372.112 41.9113 370.297 42.2728 368.604 42.9782C366.91 43.6836 365.371 44.7191 364.073 46.0254C362.776 47.3318 361.746 48.8836 361.042 50.5921C360.338 52.3006 359.975 54.1324 359.972 55.9829V56.1658C360.004 58.5677 360.644 60.9214 361.833 63.0021C363.021 65.0829 364.717 66.8213 366.76 68.0515L366.788 68.0743V73.8572H381.127V68.0515L381.218 67.9943C383.261 66.7428 384.95 64.9807 386.123 62.8778C387.297 60.775 387.914 58.4024 387.915 55.9886C387.913 54.1376 387.55 52.3052 386.846 50.596C386.143 48.8869 385.113 47.3345 383.816 46.0275C382.518 44.7205 380.978 43.6845 379.285 42.9788C377.591 42.273 375.776 41.9113 373.943 41.9143ZM373.943 45.6286C379.628 45.6286 384.238 50.2686 384.238 55.9829C384.24 57.9232 383.7 59.8247 382.682 61.4698C381.663 63.1149 380.207 64.4373 378.48 65.2858L377.451 65.7943V70.1429H370.465V65.8L369.43 65.2972C367.335 64.2763 365.647 62.566 364.643 60.4474C363.638 58.3289 363.377 55.9281 363.902 53.6398C364.427 51.3514 365.708 49.3116 367.532 47.8557C369.357 46.3998 371.618 45.6144 373.943 45.6286ZM379.973 76.2743L377.852 79.9886H370.035L367.914 76.2743H379.973Z" fill="#05192D"/>
<path d="M374.396 50.3429L373.366 54.36H378.491L376.585 62.4572H372.812L373.847 58.0743H368.621L370.6 50.3429H374.396Z" fill="#05192D"/>
<path d="M103.311 88.2632C118.394 88.2632 130.622 75.8921 130.622 60.6316C130.622 45.3711 118.394 33 103.311 33C88.2274 33 76 45.3711 76 60.6316C76 75.8921 88.2274 88.2632 103.311 88.2632Z" fill="#00DBE9"/>
<path d="M103.239 40.3684H103.598V44.0526H103.239C99.6596 44.0538 96.1825 45.2784 93.3565 47.5331C90.5305 49.7877 88.5166 52.9441 87.6326 56.5039C86.7486 60.0637 87.0449 63.8243 88.4747 67.1921C89.9045 70.5599 92.3864 73.3432 95.5286 75.1025C98.6709 76.8619 102.294 77.4972 105.828 76.9082C109.361 76.3191 112.602 74.5393 115.04 71.8496C117.478 69.1599 118.974 65.7135 119.292 62.0543C119.609 58.3952 118.73 54.7317 116.794 51.6421L119.766 49.5789C122.152 53.3506 123.244 57.8307 122.87 62.3109C122.497 66.791 120.679 71.0156 117.704 74.3166C114.729 77.6175 110.767 79.8065 106.444 80.5374C102.121 81.2683 97.6839 80.4994 93.8344 78.3522C89.9849 76.2051 86.9427 72.8022 85.1887 68.6817C83.4348 64.5612 83.0692 59.9583 84.1497 55.6006C85.2303 51.243 87.6954 47.3794 91.1552 44.6207C94.615 41.862 98.8721 40.3657 103.253 40.3684H103.239ZM103.296 48.4737H103.584V52.1579H103.296C101.464 52.1538 99.6812 52.7747 98.2295 53.9231C96.7778 55.0715 95.7388 56.6823 95.2759 58.5024C94.813 60.3226 94.9523 62.249 95.672 63.9791C96.3916 65.7092 97.6509 67.1449 99.2519 68.0608C100.853 68.9766 102.705 69.3207 104.517 69.039C106.329 68.7573 107.999 67.8657 109.264 66.5043C110.529 65.1429 111.317 63.3889 111.506 61.5177C111.694 59.6465 111.271 57.7641 110.304 56.1663L113.276 54.0884C114.695 56.3658 115.335 59.0631 115.095 61.755C114.855 64.4469 113.749 66.9803 111.951 68.9557C110.153 70.9311 107.766 72.2361 105.165 72.6648C102.565 73.0936 99.899 72.6218 97.5887 71.3238C95.2783 70.0258 93.4547 67.9755 92.4053 65.4961C91.3559 63.0168 91.1405 60.2494 91.793 57.6306C92.4456 55.0117 93.9289 52.6902 96.0092 51.0322C98.0894 49.3742 100.648 48.4741 103.282 48.4737H103.296Z" fill="#05192D"/>
<path d="M103.239 64.9643C105.594 64.9643 107.504 63.0047 107.504 60.5874C107.504 58.1702 105.594 56.2106 103.239 56.2106C100.884 56.2106 98.9744 58.1702 98.9744 60.5874C98.9744 63.0047 100.884 64.9643 103.239 64.9643Z" fill="#05192D"/>
<path d="M105.393 40.4126V60.8526H101.803V40.4126H105.393Z" fill="#05192D"/>
<path d="M292.393 18.3182L292.013 19.7695L292.393 18.3182ZM228.277 11.7758L228.355 13.2738L228.277 11.7758ZM222.885 10.9963C222.331 11.612 222.381 12.5604 222.996 13.1147L233.029 22.1479C233.644 22.7022 234.593 22.6525 235.147 22.0368C235.702 21.4212 235.652 20.4728 235.036 19.9184L226.118 11.889L234.148 2.97114C234.702 2.35549 234.652 1.40705 234.037 0.852729C233.421 0.298408 232.473 0.348124 231.918 0.963771L222.885 10.9963ZM295.379 17.5488L292.772 16.867L292.013 19.7695L294.621 20.4512L295.379 17.5488ZM228.198 10.2779L223.921 10.5021L224.079 13.4979L228.355 13.2738L228.198 10.2779ZM292.772 16.867C271.715 11.3611 249.934 9.13856 228.198 10.2779L228.355 13.2738C249.782 12.1506 271.254 14.3416 292.013 19.7695L292.772 16.867Z" fill="black"/>
<path d="M42.803 217.714L41.305 217.79L42.803 217.714ZM41.8747 220.324C42.4896 220.879 43.4381 220.831 43.9932 220.216L53.0385 210.194C53.5936 209.579 53.545 208.631 52.93 208.076C52.3151 207.521 51.3666 207.569 50.8115 208.184L42.7712 217.092L33.8631 209.052C33.2482 208.497 32.2997 208.545 31.7446 209.16C31.1895 209.775 31.2381 210.724 31.8531 211.279L41.8747 220.324ZM41.305 217.79L41.3817 219.287L44.3777 219.134L44.3011 217.637L41.305 217.79ZM50.5749 148.532C43.2465 170.85 40.1038 194.33 41.305 217.79L44.3011 217.637C43.1188 194.546 46.212 171.435 53.4251 149.468L50.5749 148.532Z" fill="black"/>
<path d="M437.881 237.557L439.369 237.75L437.881 237.557ZM438.552 189.365L440.044 189.214L438.552 189.365ZM438.448 177.838C437.806 177.314 436.861 177.41 436.338 178.052L427.804 188.512C427.28 189.154 427.376 190.099 428.018 190.623C428.66 191.147 429.605 191.051 430.129 190.409L437.714 181.11L447.012 188.696C447.654 189.22 448.599 189.124 449.123 188.482C449.647 187.84 449.551 186.895 448.909 186.371L438.448 177.838ZM438.988 240.693L439.369 237.75L436.394 237.364L436.012 240.307L438.988 240.693ZM440.044 189.214L438.992 178.849L436.008 179.151L437.059 189.517L440.044 189.214ZM439.369 237.75C441.456 221.651 441.682 205.365 440.044 189.214L437.059 189.517C438.674 205.439 438.451 221.494 436.394 237.364L439.369 237.75Z" fill="black"/>
<path d="M191.755 402.399L191.406 403.858L191.755 402.399ZM256.054 407.606L255.944 406.11L256.054 407.606ZM258.636 408.48C259.177 407.853 259.107 406.906 258.48 406.364L248.26 397.544C247.633 397.003 246.685 397.073 246.144 397.7C245.603 398.327 245.673 399.274 246.3 399.815L255.384 407.656L247.544 416.74C247.003 417.367 247.073 418.315 247.7 418.856C248.327 419.397 249.274 419.327 249.815 418.7L258.636 408.48ZM187.651 402.959L191.406 403.858L192.104 400.94L188.349 400.041L187.651 402.959ZM256.164 409.102L257.61 408.996L257.39 406.004L255.944 406.11L256.164 409.102ZM191.406 403.858C212.593 408.931 234.437 410.7 256.164 409.102L255.944 406.11C234.525 407.685 212.991 405.941 192.104 400.94L191.406 403.858Z" fill="black"/>
</svg>
