<svg width="119" height="30" viewBox="0 0 119 30" fill="none" xmlns="http://www.w3.org/2000/svg">
<path d="M4.71875 19.2344H14.6719V23H0.03125V0.25H4.71875V19.2344ZM16.375 14.3906C16.375 12.7135 16.6979 11.2188 17.3438 9.90625C17.9896 8.59375 18.9167 7.57812 20.125 6.85938C21.3438 6.14062 22.7552 5.78125 24.3594 5.78125C26.6406 5.78125 28.5 6.47917 29.9375 7.875C31.3854 9.27083 32.1927 11.1667 32.3594 13.5625L32.3906 14.7188C32.3906 17.3125 31.6667 19.3958 30.2188 20.9688C28.7708 22.5312 26.8281 23.3125 24.3906 23.3125C21.9531 23.3125 20.0052 22.5312 18.5469 20.9688C17.099 19.4062 16.375 17.2812 16.375 14.5938V14.3906ZM20.8906 14.7188C20.8906 16.3229 21.1927 17.5521 21.7969 18.4062C22.401 19.25 23.2656 19.6719 24.3906 19.6719C25.4844 19.6719 26.3385 19.2552 26.9531 18.4219C27.5677 17.5781 27.875 16.2344 27.875 14.3906C27.875 12.8177 27.5677 11.599 26.9531 10.7344C26.3385 9.86979 25.474 9.4375 24.3594 9.4375C23.2552 9.4375 22.401 9.86979 21.7969 10.7344C21.1927 11.5885 20.8906 12.9167 20.8906 14.7188ZM34.4688 14.3906C34.4688 12.7135 34.7917 11.2188 35.4375 9.90625C36.0833 8.59375 37.0104 7.57812 38.2188 6.85938C39.4375 6.14062 40.849 5.78125 42.4531 5.78125C44.7344 5.78125 46.5938 6.47917 48.0312 7.875C49.4792 9.27083 50.2865 11.1667 50.4531 13.5625L50.4844 14.7188C50.4844 17.3125 49.7604 19.3958 48.3125 20.9688C46.8646 22.5312 44.9219 23.3125 42.4844 23.3125C40.0469 23.3125 38.099 22.5312 36.6406 20.9688C35.1927 19.4062 34.4688 17.2812 34.4688 14.5938V14.3906ZM38.9844 14.7188C38.9844 16.3229 39.2865 17.5521 39.8906 18.4062C40.4948 19.25 41.3594 19.6719 42.4844 19.6719C43.5781 19.6719 44.4323 19.2552 45.0469 18.4219C45.6615 17.5781 45.9688 16.2344 45.9688 14.3906C45.9688 12.8177 45.6615 11.599 45.0469 10.7344C44.4323 9.86979 43.5677 9.4375 42.4531 9.4375C41.349 9.4375 40.4948 9.86979 39.8906 10.7344C39.2865 11.5885 38.9844 12.9167 38.9844 14.7188ZM68.4844 14.7031C68.4844 17.3073 67.8906 19.3958 66.7031 20.9688C65.526 22.5312 63.9323 23.3125 61.9219 23.3125C60.2135 23.3125 58.8333 22.7188 57.7812 21.5312V29.5H53.2656V6.09375H57.4531L57.6094 7.75C58.7031 6.4375 60.1302 5.78125 61.8906 5.78125C63.974 5.78125 65.5938 6.55208 66.75 8.09375C67.9062 9.63542 68.4844 11.7604 68.4844 14.4688V14.7031ZM63.9688 14.375C63.9688 12.8021 63.6875 11.5885 63.125 10.7344C62.5729 9.88021 61.7656 9.45312 60.7031 9.45312C59.2865 9.45312 58.3125 9.99479 57.7812 11.0781V18C58.3333 19.1146 59.3177 19.6719 60.7344 19.6719C62.8906 19.6719 63.9688 17.9062 63.9688 14.375ZM71.5938 23V0.25H79.5625C82.3229 0.25 84.4167 0.78125 85.8438 1.84375C87.2708 2.89583 87.9844 4.44271 87.9844 6.48438C87.9844 7.59896 87.6979 8.58333 87.125 9.4375C86.5521 10.2812 85.7552 10.901 84.7344 11.2969C85.901 11.5885 86.8177 12.1771 87.4844 13.0625C88.1615 13.9479 88.5 15.0312 88.5 16.3125C88.5 18.5 87.8021 20.1562 86.4062 21.2812C85.0104 22.4062 83.0208 22.9792 80.4375 23H71.5938ZM76.2812 13.0938V19.2344H80.2969C81.401 19.2344 82.2604 18.974 82.875 18.4531C83.5 17.9219 83.8125 17.1927 83.8125 16.2656C83.8125 14.1823 82.7344 13.125 80.5781 13.0938H76.2812ZM76.2812 9.78125H79.75C82.1146 9.73958 83.2969 8.79688 83.2969 6.95312C83.2969 5.92188 82.9948 5.18229 82.3906 4.73438C81.7969 4.27604 80.8542 4.04688 79.5625 4.04688H76.2812V9.78125ZM91.0312 14.3906C91.0312 12.7135 91.3542 11.2188 92 9.90625C92.6458 8.59375 93.5729 7.57812 94.7812 6.85938C96 6.14062 97.4115 5.78125 99.0156 5.78125C101.297 5.78125 103.156 6.47917 104.594 7.875C106.042 9.27083 106.849 11.1667 107.016 13.5625L107.047 14.7188C107.047 17.3125 106.323 19.3958 104.875 20.9688C103.427 22.5312 101.484 23.3125 99.0469 23.3125C96.6094 23.3125 94.6615 22.5312 93.2031 20.9688C91.7552 19.4062 91.0312 17.2812 91.0312 14.5938V14.3906ZM95.5469 14.7188C95.5469 16.3229 95.849 17.5521 96.4531 18.4062C97.0573 19.25 97.9219 19.6719 99.0469 19.6719C100.141 19.6719 100.995 19.2552 101.609 18.4219C102.224 17.5781 102.531 16.2344 102.531 14.3906C102.531 12.8177 102.224 11.599 101.609 10.7344C100.995 9.86979 100.13 9.4375 99.0156 9.4375C97.9115 9.4375 97.0573 9.86979 96.4531 10.7344C95.849 11.5885 95.5469 12.9167 95.5469 14.7188ZM115.234 1.9375V6.09375H118.125V9.40625H115.234V17.8438C115.234 18.4688 115.354 18.9167 115.594 19.1875C115.833 19.4583 116.292 19.5938 116.969 19.5938C117.469 19.5938 117.911 19.5573 118.297 19.4844V22.9062C117.411 23.1771 116.5 23.3125 115.562 23.3125C112.396 23.3125 110.781 21.7135 110.719 18.5156V9.40625H108.25V6.09375H110.719V1.9375H115.234Z" fill="#00DBE9"/>
</svg>
